<svg width="32" height="32" viewBox="0 0 32 32" fill="none" xmlns="http://www.w3.org/2000/svg">
<path d="M21.3628 12.0553L19.5903 13.3849L21.3628 14.7146V12.0553Z" fill="white"/>
<path d="M10.7261 10.7257H16.0447V16.0443H10.7261V10.7257Z" fill="white"/>
<path d="M5.4072 26.5477V30.6704C5.4072 31.2079 5.73048 31.6936 6.22786 31.8987C6.71832 32.1034 7.29361 31.9938 7.67699 31.6104L12.606 26.6814H25.3518C29.0174 26.6814 32 23.6989 32 20.0332V6.6482C32 2.98256 29.0174 0 25.3518 0H6.73684C3.0712 0 0 2.98256 0 6.6482V20.0332C0 23.2444 2.37651 25.9297 5.4072 26.5477V26.5477ZM8.06648 9.39612C8.06648 8.66119 8.66119 8.06648 9.39612 8.06648H17.374C18.1089 8.06648 18.7036 8.66119 18.7036 9.39612V10.7264L21.8953 8.33268C22.2978 8.02881 22.8392 7.98342 23.2872 8.20672C23.7378 8.43267 24.0222 8.89228 24.0222 9.39612V17.374C24.0222 17.8778 23.7378 18.3374 23.2872 18.5634C22.8227 18.794 22.2851 18.732 21.8953 18.4374L18.7036 16.0437V17.374C18.7036 18.1089 18.1089 18.7036 17.374 18.7036H9.39612C8.66119 18.7036 8.06648 18.1089 8.06648 17.374V9.39612Z" fill="#193EFF"/>
</svg>
