<svg width="95" height="95" viewBox="0 0 95 95" fill="none" xmlns="http://www.w3.org/2000/svg">
<path d="M62.2924 4H91.0006M91.0006 4V32.7082M91.0006 4L35.9766 59.024M64.6847 59.024H35.9766M35.9766 59.024V30.3158" stroke="white" stroke-width="8" stroke-linecap="round" stroke-linejoin="round"/>
<path d="M43.1526 4H9.65969C8.39071 4 7.17371 4.5041 6.2764 5.4014C5.3791 6.29871 4.875 7.51571 4.875 8.78469V85.3398C4.875 86.6088 5.3791 87.8258 6.2764 88.7231C7.17371 89.6204 8.39071 90.1245 9.65969 90.1245H86.2148C87.4838 90.1245 88.7008 89.6204 89.5981 88.7231C90.4954 87.8258 90.9995 86.6088 90.9995 85.3398V51.8469" stroke="white" stroke-width="8" stroke-linecap="round" stroke-linejoin="round"/>
</svg>
