<svg width="110" height="110" viewBox="0 0 110 110" fill="none" xmlns="http://www.w3.org/2000/svg">
<path d="M41.2229 9.76235C41.055 8.86045 40.5429 8.05922 39.7949 7.52805C39.0469 6.99689 38.1217 6.77744 37.2148 6.9161C36.4044 7.04019 35.6678 7.45729 35.1444 8.08834C34.6211 8.71938 34.3475 9.52051 34.3754 10.3398C26.0361 12.3886 20.7354 16.5273 17.6004 21.6148C14.4654 26.7023 13.7367 32.3605 13.7367 36.9323V39.1048L8.82793 45.9042C8.02274 47.0189 7.4486 48.2833 7.13929 49.6232C6.82998 50.963 6.79174 52.3512 7.02683 53.706C7.26193 55.0608 7.7656 56.3549 8.50822 57.5122C9.25083 58.6695 10.2174 59.6666 11.3511 60.4448L52.1198 88.433C59.5666 93.5445 68.3875 96.2795 77.4198 96.2773H87.7254C89.9465 96.2763 92.141 95.7943 94.1582 94.8646C96.1753 93.935 97.9673 92.5796 99.4109 90.8917C100.855 89.2037 101.916 87.2233 102.521 85.0863C103.127 82.9494 103.263 80.7067 102.919 78.5123C101.723 71.0255 95.1986 65.8486 89.2379 63.2155C87.0311 62.2461 85.1679 60.9123 83.9442 59.1111L69.5273 34.2923C70.3854 34.1146 71.1395 33.6076 71.628 32.8801C72.1164 32.1526 72.3002 31.2626 72.1398 30.4011C71.9718 29.5006 71.4608 28.7005 70.7143 28.1695C69.9678 27.6385 69.0443 27.4181 68.1386 27.5548C55.2823 29.5898 43.3198 21.3398 41.2229 9.76235ZM23.4579 25.2173C24.6817 23.2373 26.4486 21.333 29.0817 19.7586L37.1254 33.6942C37.4844 34.3164 37.7094 35.0067 37.786 35.7209C37.8627 36.435 37.7893 37.1574 37.5705 37.8415C37.3517 38.5257 36.9924 39.1566 36.5156 39.6938C36.0388 40.231 35.455 40.6626 34.8017 40.9611L25.5686 45.1823L20.6254 41.7723V36.9323C20.6254 32.9998 21.2717 28.7923 23.4648 25.2173M50.1742 62.1155L33.6879 50.7717L50.6279 41.848C51.8067 41.2266 53.1803 41.0856 54.4608 41.4548C55.7412 41.8239 56.829 42.6744 57.4961 43.828L61.2017 50.2423C61.5491 50.8435 61.7716 51.5086 61.8558 52.1977C61.9399 52.8869 61.884 53.586 61.6914 54.2531C61.4988 54.9201 61.1735 55.5414 60.7349 56.0797C60.2963 56.6179 59.7536 57.0621 59.1392 57.3855L50.1742 62.1155ZM16.3629 47.1967L59.7167 77.0342C64.8753 80.5873 70.991 82.4908 77.2548 82.493H96.0786C95.7035 84.4359 94.6643 86.1879 93.139 87.4485C91.6137 88.7092 89.6974 89.3999 87.7186 89.4023H77.4061C69.7657 89.4039 62.304 87.0909 56.0042 82.768L15.2354 54.773C14.8577 54.5134 14.5357 54.1809 14.2884 53.795C14.0411 53.4092 13.8734 52.9778 13.7953 52.5262C13.7171 52.0746 13.7301 51.6119 13.8334 51.1654C13.9366 50.7189 14.1282 50.2975 14.3967 49.9261L16.3629 47.1967Z" fill="white"/>
</svg>
