<svg width="13" height="26" viewBox="0 0 13 26" fill="none" xmlns="http://www.w3.org/2000/svg">
<path d="M11.9826 6.61129L6.69019 8.53811V2.92453L11.9826 1" stroke="#1A1919" stroke-linecap="round" stroke-linejoin="round"/>
<path fill-rule="evenodd" clip-rule="evenodd" d="M4.81957 11.089V11.8558L5.54298 11.5941V10.8261L4.81957 11.089Z" fill="#1A1919"/>
<path fill-rule="evenodd" clip-rule="evenodd" d="M5.54298 10.8261L4.81957 11.089V11.8558L5.54298 11.5941V10.8261Z" stroke="#1A1919" stroke-width="0.25" stroke-linecap="round" stroke-linejoin="round"/>
<path fill-rule="evenodd" clip-rule="evenodd" d="M6.06615 10.5749V11.3406L6.78957 11.0777V10.312L6.06615 10.5749Z" fill="#1A1919"/>
<path fill-rule="evenodd" clip-rule="evenodd" d="M6.78957 10.3115L6.06615 10.5743V11.3411L6.78957 11.0783V10.3115Z" stroke="#1A1919" stroke-width="0.25" stroke-linecap="round" stroke-linejoin="round"/>
<path fill-rule="evenodd" clip-rule="evenodd" d="M7.27676 10.1554V10.9222L8.00132 10.6582V9.89251L7.27676 10.1554Z" fill="#1A1919"/>
<path fill-rule="evenodd" clip-rule="evenodd" d="M8.0005 9.89153L7.27709 10.1544V10.9212L8.0005 10.6584V9.89153Z" stroke="#1A1919" stroke-width="0.25" stroke-linecap="round" stroke-linejoin="round"/>
<path fill-rule="evenodd" clip-rule="evenodd" d="M4.81957 13.0532V13.8201L5.54298 13.5572V12.7915L4.81957 13.0532Z" fill="#1A1919"/>
<path fill-rule="evenodd" clip-rule="evenodd" d="M5.54298 12.7915L4.81957 13.0532V13.8201L5.54298 13.5584V12.7915Z" stroke="#1A1919" stroke-width="0.25" stroke-linecap="round" stroke-linejoin="round"/>
<path fill-rule="evenodd" clip-rule="evenodd" d="M6.06615 12.5391V13.306L6.78957 13.042V12.2763L6.06615 12.5391Z" fill="#1A1919"/>
<path fill-rule="evenodd" clip-rule="evenodd" d="M6.78957 12.2753L6.06615 12.5382V13.305L6.78957 13.0422V12.2753Z" stroke="#1A1919" stroke-width="0.25" stroke-linecap="round" stroke-linejoin="round"/>
<path fill-rule="evenodd" clip-rule="evenodd" d="M7.27676 12.1192V12.8861L8.00132 12.6221V11.8564L7.27676 12.1192Z" fill="#1A1919"/>
<path fill-rule="evenodd" clip-rule="evenodd" d="M8.0005 11.8564L7.27709 12.1192V12.8861L8.0005 12.6232V11.8564Z" stroke="#1A1919" stroke-width="0.25" stroke-linecap="round" stroke-linejoin="round"/>
<path fill-rule="evenodd" clip-rule="evenodd" d="M4.81957 15.0108V15.7777L5.54298 15.516V14.748L4.81957 15.0108Z" fill="#1A1919"/>
<path fill-rule="evenodd" clip-rule="evenodd" d="M5.54298 14.748L4.81957 15.0108V15.7777L5.54298 15.516V14.748Z" stroke="#1A1919" stroke-width="0.25" stroke-linecap="round" stroke-linejoin="round"/>
<path fill-rule="evenodd" clip-rule="evenodd" d="M6.06615 14.4962V15.263L6.78957 14.999V14.2333L6.06615 14.4962Z" fill="#1A1919"/>
<path fill-rule="evenodd" clip-rule="evenodd" d="M6.78957 14.2333L6.06615 14.4962V15.263L6.78957 15.0002V14.2333Z" stroke="#1A1919" stroke-width="0.25" stroke-linecap="round" stroke-linejoin="round"/>
<path fill-rule="evenodd" clip-rule="evenodd" d="M7.27676 14.0772V14.8441L8.00132 14.5801V13.8144L7.27676 14.0772Z" fill="#1A1919"/>
<path fill-rule="evenodd" clip-rule="evenodd" d="M8.0005 13.8134L7.27709 14.0763V14.8431L8.0005 14.5802V13.8134Z" stroke="#1A1919" stroke-width="0.25" stroke-linecap="round" stroke-linejoin="round"/>
<path fill-rule="evenodd" clip-rule="evenodd" d="M8.98197 19.5441L9.57053 19.3292L8.98197 19.5441Z" fill="#1A1919"/>
<path d="M6.69015 24.9995L1 22.9287V5.01824L6.69015 2.94629" stroke="#1A1919" stroke-linecap="round" stroke-linejoin="round"/>
<path d="M6.69033 19.3865L3.79211 18.3305" stroke="#1A1919" stroke-linecap="round" stroke-linejoin="round"/>
<path d="M11.9826 17.4621L9.08435 16.4073" stroke="#1A1919" stroke-linecap="round" stroke-linejoin="round"/>
<path d="M11.9827 1V6.60444" stroke="#1A1919" stroke-linecap="round" stroke-linejoin="round"/>
<path d="M11.9826 23.0734L6.69019 25.0002V19.3866L11.9826 17.4609" stroke="#1A1919" stroke-linecap="round" stroke-linejoin="round"/>
<path d="M11.9827 17.4609V23.0665" stroke="#1A1919" stroke-linecap="round" stroke-linejoin="round"/>
<path d="M3.79626 18.3308L9.08414 16.4062" stroke="#1A1919" stroke-linecap="round" stroke-linejoin="round"/>
<path d="M3.79175 18.2652V9.75" stroke="#1A1919" stroke-linecap="round" stroke-linejoin="round"/>
<path d="M9.08411 16.4074V7.92871" stroke="#1A1919" stroke-linecap="round" stroke-linejoin="round"/>
</svg>
