<svg width="18" height="36" viewBox="0 0 18 36" fill="none" xmlns="http://www.w3.org/2000/svg">
<path d="M16.6325 8.98698L9.09937 11.7296V3.73932L16.6325 1" stroke="white" stroke-linecap="round" stroke-linejoin="round"/>
<path fill-rule="evenodd" clip-rule="evenodd" d="M6.43668 15.36V16.4515L7.46636 16.079V14.9859L6.43668 15.36Z" fill="white"/>
<path fill-rule="evenodd" clip-rule="evenodd" d="M7.46636 14.9859L6.43668 15.36V16.4515L7.46636 16.079V14.9859Z" stroke="white" stroke-width="0.25" stroke-linecap="round" stroke-linejoin="round"/>
<path fill-rule="evenodd" clip-rule="evenodd" d="M8.21109 14.6285V15.7184L9.24078 15.3442V14.2544L8.21109 14.6285Z" fill="white"/>
<path fill-rule="evenodd" clip-rule="evenodd" d="M9.24078 14.2536L8.21109 14.6277V15.7192L9.24078 15.3451V14.2536Z" stroke="white" stroke-width="0.25" stroke-linecap="round" stroke-linejoin="round"/>
<path fill-rule="evenodd" clip-rule="evenodd" d="M9.93416 14.0312V15.1227L10.9655 14.7469V13.6571L9.93416 14.0312Z" fill="white"/>
<path fill-rule="evenodd" clip-rule="evenodd" d="M10.9644 13.6563L9.93473 14.0304V15.1219L10.9644 14.7478V13.6563Z" stroke="white" stroke-width="0.25" stroke-linecap="round" stroke-linejoin="round"/>
<path fill-rule="evenodd" clip-rule="evenodd" d="M6.43668 18.1567V19.2482L7.46636 18.874V17.7842L6.43668 18.1567Z" fill="white"/>
<path fill-rule="evenodd" clip-rule="evenodd" d="M7.46636 17.7834L6.43668 18.1559V19.2474L7.46636 18.8749V17.7834Z" stroke="white" stroke-width="0.25" stroke-linecap="round" stroke-linejoin="round"/>
<path fill-rule="evenodd" clip-rule="evenodd" d="M8.21109 17.4244V18.5159L9.24078 18.1401V17.0502L8.21109 17.4244Z" fill="white"/>
<path fill-rule="evenodd" clip-rule="evenodd" d="M9.24078 17.0495L8.21109 17.4236V18.5151L9.24078 18.141V17.0495Z" stroke="white" stroke-width="0.25" stroke-linecap="round" stroke-linejoin="round"/>
<path fill-rule="evenodd" clip-rule="evenodd" d="M9.93416 16.827V17.9185L10.9655 17.5428V16.4529L9.93416 16.827Z" fill="white"/>
<path fill-rule="evenodd" clip-rule="evenodd" d="M10.9644 16.4521L9.93473 16.8263V17.9178L10.9644 17.5436V16.4521Z" stroke="white" stroke-width="0.25" stroke-linecap="round" stroke-linejoin="round"/>
<path fill-rule="evenodd" clip-rule="evenodd" d="M6.43668 20.9422V22.0337L7.46636 21.6612V20.568L6.43668 20.9422Z" fill="white"/>
<path fill-rule="evenodd" clip-rule="evenodd" d="M7.46636 20.568L6.43668 20.9422V22.0337L7.46636 21.6612V20.568Z" stroke="white" stroke-width="0.25" stroke-linecap="round" stroke-linejoin="round"/>
<path fill-rule="evenodd" clip-rule="evenodd" d="M8.21109 20.2107V21.3022L9.24078 20.9264V19.8366L8.21109 20.2107Z" fill="white"/>
<path fill-rule="evenodd" clip-rule="evenodd" d="M9.24078 19.8357L8.21109 20.2099V21.3014L9.24078 20.9272V19.8357Z" stroke="white" stroke-width="0.25" stroke-linecap="round" stroke-linejoin="round"/>
<path fill-rule="evenodd" clip-rule="evenodd" d="M9.93416 19.6134V20.7049L10.9655 20.3291V19.2392L9.93416 19.6134Z" fill="white"/>
<path fill-rule="evenodd" clip-rule="evenodd" d="M10.9644 19.2384L9.93473 19.6126V20.7041L10.9644 20.3299V19.2384Z" stroke="white" stroke-width="0.25" stroke-linecap="round" stroke-linejoin="round"/>
<path fill-rule="evenodd" clip-rule="evenodd" d="M12.3613 27.3958L13.199 27.09L12.3613 27.3958Z" fill="white"/>
<path d="M9.09922 35.1604L1 32.2128V6.71958L9.09922 3.77042" stroke="white" stroke-linecap="round" stroke-linejoin="round"/>
<path d="M9.09937 27.1715L4.97412 25.6685" stroke="white" stroke-linecap="round" stroke-linejoin="round"/>
<path d="M16.6323 24.4312L12.5071 22.9298" stroke="white" stroke-linecap="round" stroke-linejoin="round"/>
<path d="M16.6329 1V8.97722" stroke="white" stroke-linecap="round" stroke-linejoin="round"/>
<path d="M16.6325 32.4181L9.09937 35.1607V27.1705L16.6325 24.4295" stroke="white" stroke-linecap="round" stroke-linejoin="round"/>
<path d="M16.6329 24.4295V32.4083" stroke="white" stroke-linecap="round" stroke-linejoin="round"/>
<path d="M4.97998 25.6685L12.5066 22.9291" stroke="white" stroke-linecap="round" stroke-linejoin="round"/>
<path d="M4.97398 25.5746V13.4542" stroke="white" stroke-linecap="round" stroke-linejoin="round"/>
<path d="M12.5067 22.93V10.8617" stroke="white" stroke-linecap="round" stroke-linejoin="round"/>
</svg>
