<svg width="223" height="209" viewBox="0 0 223 209" fill="none" xmlns="http://www.w3.org/2000/svg">
<g opacity="0.2">
<path d="M171.255 12.6822C171.946 13.2553 212.977 35.2904 212.977 35.2904L200.525 62.5749L171.255 12.6822Z" stroke="black" stroke-width="2" stroke-miterlimit="10" stroke-linecap="round" stroke-linejoin="round"/>
<path d="M191.958 70.2388L162.655 20.3757" stroke="black" stroke-width="2" stroke-miterlimit="10" stroke-linecap="round" stroke-linejoin="round"/>
<path d="M171.255 12.6821L162.655 20.3757" stroke="black" stroke-width="2" stroke-miterlimit="10" stroke-linecap="round" stroke-linejoin="round"/>
<path d="M200.525 62.5748L191.958 70.2388" stroke="black" stroke-width="2" stroke-miterlimit="10" stroke-linecap="round" stroke-linejoin="round"/>
</g>
<g opacity="0.3">
<path d="M134.129 199.089C134.414 192.462 150.23 185.882 155.132 190.379C155.297 190.545 156.6 191.752 156.552 193.527C156.41 199.87 139.552 206.567 135.219 202.118C134.082 200.958 134.129 199.396 134.129 199.089Z" stroke="black" stroke-miterlimit="10" stroke-linecap="round" stroke-linejoin="round"/>
<path d="M158.115 196.817C158.186 197.124 158.233 197.456 158.233 197.787C158.091 204.13 141.233 210.827 136.9 206.378C136.379 205.834 136.095 205.218 135.953 204.674" stroke="black" stroke-miterlimit="10" stroke-linecap="round" stroke-linejoin="round"/>
<path d="M136.237 198.568C136.663 193.906 149.022 188.817 152.645 191.823C152.764 191.918 153.734 192.746 153.64 194C153.356 198.473 140.191 203.68 136.971 200.674C136.142 199.893 136.213 198.781 136.237 198.568Z" stroke="black" stroke-miterlimit="10" stroke-linecap="round" stroke-linejoin="round"/>
<path d="M138.107 201.289C140.096 197.313 149.425 193.55 153.379 195.278" stroke="black" stroke-miterlimit="10" stroke-linecap="round" stroke-linejoin="round"/>
<path d="M134.343 200.627L136.189 205.431" stroke="black" stroke-miterlimit="10" stroke-linecap="round" stroke-linejoin="round"/>
<path d="M156.528 192.628L158.138 197.03" stroke="black" stroke-miterlimit="10" stroke-linecap="round" stroke-linejoin="round"/>
</g>
<g opacity="0.2">
<path d="M23.4398 65.1117L2.29566 45.3812L13.4275 38.1447L23.4398 65.1117Z" stroke="black" stroke-width="2" stroke-miterlimit="10" stroke-linecap="round" stroke-linejoin="round"/>
<path d="M4.48365 43.4962L15.6097 36.2327L25.6008 63.2325" stroke="black" stroke-width="2" stroke-miterlimit="10" stroke-linecap="round" stroke-linejoin="round"/>
<path d="M23.4399 65.1116L25.6011 63.2324" stroke="black" stroke-width="2" stroke-miterlimit="10" stroke-linecap="round" stroke-linejoin="round"/>
<path d="M2.29565 45.3812L4.48372 43.4962" stroke="black" stroke-width="2" stroke-miterlimit="10" stroke-linecap="round" stroke-linejoin="round"/>
<path d="M13.4275 38.1447L15.6097 36.2326" stroke="black" stroke-width="2" stroke-miterlimit="10" stroke-linecap="round" stroke-linejoin="round"/>
</g>
<path d="M70.123 119.999L39.0472 177.96L24.5105 168.875L55.5493 110.877L70.123 119.999Z" stroke="black" stroke-width="0.75" stroke-miterlimit="10" stroke-linecap="round" stroke-linejoin="round"/>
<path d="M70.1231 124.078L42.0139 176.477" stroke="black" stroke-width="0.75" stroke-miterlimit="10" stroke-linecap="round" stroke-linejoin="round"/>
<path d="M58.5532 109.393L70.0861 116.625" stroke="black" stroke-width="0.75" stroke-miterlimit="10" stroke-linecap="round" stroke-linejoin="round"/>
<path d="M39.0474 177.96L42.014 176.477" stroke="black" stroke-width="0.75" stroke-miterlimit="10" stroke-linecap="round" stroke-linejoin="round"/>
<path d="M55.5496 110.877L58.5533 109.393" stroke="black" stroke-width="0.75" stroke-miterlimit="10" stroke-linecap="round" stroke-linejoin="round"/>
<path d="M142.806 91.3337C124.265 91.3337 105.686 91.3337 87.1443 91.3337" stroke="black" stroke-width="0.75" stroke-miterlimit="10" stroke-linecap="round" stroke-linejoin="round"/>
<path d="M156.082 83.917C156.045 86.4016 156.045 88.8491 156.008 91.3337C154.784 91.3337 153.598 91.3337 152.374 91.3337" stroke="black" stroke-width="0.75" stroke-miterlimit="10" stroke-linecap="round" stroke-linejoin="round"/>
<path d="M156.008 65.7462C155.971 67.5262 155.971 69.2691 155.934 71.0491" stroke="black" stroke-width="0.75" stroke-miterlimit="10" stroke-linecap="round" stroke-linejoin="round"/>
<path d="M86.106 89.7762L87.1072 91.3337" stroke="black" stroke-width="0.75" stroke-miterlimit="10" stroke-linecap="round" stroke-linejoin="round"/>
<path d="M155.007 89.7762L156.008 91.3337" stroke="black" stroke-width="0.75" stroke-miterlimit="10" stroke-linecap="round" stroke-linejoin="round"/>
<path d="M155.007 64.1887C155.341 64.7079 155.674 65.2641 156.008 65.7833L155.007 64.1887Z" fill="black"/>
<path d="M155.007 64.1887C155.341 64.7079 155.674 65.2641 156.008 65.7833" stroke="black" stroke-width="0.75" stroke-miterlimit="10" stroke-linecap="round" stroke-linejoin="round"/>
<path d="M147.442 89.7762C127.009 89.7762 106.539 89.7762 86.106 89.7762V64.1887H155.007C155.007 68.305 155.007 72.4583 155.007 76.5746C155.007 77.2421 155.007 77.9096 155.007 78.5771" stroke="black" stroke-width="0.75" stroke-miterlimit="10" stroke-linecap="round" stroke-linejoin="round"/>
<path d="M155.007 81.1357V89.7762H149.741" stroke="black" stroke-width="0.75" stroke-miterlimit="10" stroke-linecap="round" stroke-linejoin="round"/>
<path d="M176.675 176.265C177.12 175.857 177.788 175.301 178.678 174.744C179.938 173.928 180.569 173.521 181.051 173.817C181.57 174.114 181.311 175.004 181.941 176.191C182.349 176.932 182.905 177.414 183.239 177.674C183.35 178.045 183.461 178.564 183.35 179.157C183.053 180.826 181.496 181.123 179.864 182.828C178.381 184.386 178.455 185.424 177.639 186.759C177.194 187.501 176.935 187.761 176.749 187.909C176.267 188.317 175.785 188.465 175.488 188.539C174.413 188.836 173.449 188.613 172.893 188.428C172.633 188.057 172.373 187.612 172.485 187.167C172.596 186.722 173.078 186.574 173.375 186.426C174.265 185.943 174.598 184.868 175.155 182.903C175.526 181.679 175.933 179.788 175.971 177.414" stroke="black" stroke-width="0.75" stroke-miterlimit="10" stroke-linecap="round" stroke-linejoin="round"/>
<path d="M178.307 173.224C177.12 173.261 176.119 172.556 176.082 172.668C176.045 172.742 176.267 172.816 176.453 173.113C176.638 173.409 176.527 173.706 176.601 174.225C176.712 175.004 176.675 175.634 176.675 176.265C176.675 176.673 176.638 177.006 176.601 177.266C176.712 177.34 176.861 177.489 177.083 177.563C177.232 177.637 177.677 177.785 178.604 177.377C179.271 177.081 180.384 176.636 180.606 175.597C180.643 175.449 180.606 175.486 180.606 174.744C180.606 173.076 180.717 172.89 180.532 172.705C180.198 172.371 179.568 173.224 178.307 173.224Z" fill="#3848D8"/>
<path d="M175.971 177.34C176.008 177.192 176.045 176.969 175.971 176.821C175.896 176.71 175.785 176.673 175.637 176.598C175.303 176.413 175.044 176.005 175.118 175.82C175.192 175.56 176.304 175.56 176.601 176.079C176.824 176.487 176.416 176.895 176.601 177.229C176.935 177.822 178.641 177.6 179.716 176.71C179.976 176.487 180.754 175.857 180.717 175.078C180.717 175.078 180.717 175.041 180.717 174.967C180.569 173.928 180.495 173.706 180.458 173.298C180.421 172.742 180.384 172.371 180.606 172.223C180.903 172.037 181.496 172.371 181.533 172.631C181.533 172.816 181.311 172.853 180.94 173.261C180.754 173.446 180.643 173.632 180.569 173.78" stroke="black" stroke-width="0.75" stroke-miterlimit="10" stroke-linecap="round" stroke-linejoin="round"/>
<path d="M176.564 177.006C176.49 178.378 176.49 179.491 176.527 180.233C176.564 181.456 176.675 182.272 176.23 182.643C175.934 182.866 175.526 182.791 175.229 182.717" stroke="black" stroke-width="0.75" stroke-miterlimit="10" stroke-linecap="round" stroke-linejoin="round"/>
<path d="M172.485 187.612C172.448 187.835 172.411 188.391 172.744 188.799C173.078 189.17 173.56 189.17 174.265 189.133C174.895 189.096 175.526 189.096 176.267 188.688C177.157 188.169 177.639 187.427 177.973 186.871C178.27 186.351 178.455 185.981 178.641 185.461C178.9 184.794 178.863 184.497 179.308 183.867C179.976 182.903 182.386 182.124 183.165 180.9C183.499 180.381 183.758 179.454 183.239 177.711" stroke="black" stroke-width="0.75" stroke-miterlimit="10" stroke-linecap="round" stroke-linejoin="round"/>
<path d="M167.701 175.301C168.072 174.893 168.628 174.299 169.407 173.706C170.482 172.816 171.039 172.371 171.484 172.594C172.003 172.816 171.854 173.632 172.522 174.633C172.967 175.264 173.486 175.634 173.857 175.82C173.968 176.116 174.116 176.599 174.079 177.155C173.968 178.712 172.559 179.157 171.261 180.9C170.074 182.458 170.223 183.459 169.592 184.72C169.259 185.424 169.036 185.721 168.888 185.869C168.48 186.277 168.035 186.463 167.775 186.574C166.811 186.982 165.921 186.871 165.402 186.759C165.142 186.463 164.846 186.055 164.92 185.647C164.994 185.239 165.402 185.016 165.661 184.868C166.44 184.349 166.626 183.311 166.959 181.456C167.182 180.307 167.367 178.527 167.182 176.339" stroke="black" stroke-width="0.75" stroke-miterlimit="10" stroke-linecap="round" stroke-linejoin="round"/>
<path d="M170.482 171.11C170.445 171.11 170.482 171.37 170.52 171.629C170.408 171.741 170.186 171.926 169.926 172.074C169.704 172.186 169.11 172.482 168.332 172.297C167.664 172.148 167.219 171.741 167.071 171.555C167.479 172.186 167.627 172.779 167.701 173.15C167.775 173.743 167.701 174.114 167.701 175.301C167.701 175.671 167.738 176.005 167.738 176.191C167.85 176.265 167.998 176.339 168.183 176.413C168.332 176.45 168.74 176.524 169.555 176.079C170.149 175.746 171.113 175.189 171.224 174.225C171.261 174.003 171.224 173.817 171.15 173.446C171.002 172.668 171.002 172.186 170.742 171.703C170.705 171.629 170.52 171.11 170.482 171.11Z" fill="#3848D8"/>
<path d="M167.182 176.339C167.219 176.191 167.219 176.005 167.108 175.894C167.033 175.783 166.922 175.783 166.774 175.746C166.44 175.634 166.181 175.264 166.218 175.078C166.292 174.856 167.256 174.707 167.59 175.152C167.849 175.486 167.478 175.894 167.701 176.191C168.072 176.673 169.592 176.302 170.482 175.375C170.705 175.152 171.372 174.448 171.224 173.78C171.224 173.78 171.224 173.743 171.187 173.669C170.927 172.742 170.853 172.556 170.779 172.186C170.705 171.704 170.631 171.333 170.816 171.184C171.076 170.962 171.669 171.221 171.669 171.481C171.706 171.629 171.483 171.704 171.187 172.149C171.038 172.334 170.964 172.519 170.89 172.668" stroke="black" stroke-width="0.75" stroke-miterlimit="10" stroke-linecap="round" stroke-linejoin="round"/>
<path d="M167.664 175.968C167.701 177.229 167.812 178.23 167.924 178.935C168.072 180.047 168.257 180.789 167.887 181.16C167.627 181.382 167.256 181.382 166.997 181.308" stroke="black" stroke-width="0.75" stroke-miterlimit="10" stroke-linecap="round" stroke-linejoin="round"/>
<path d="M164.957 186.092C164.957 186.314 164.994 186.834 165.328 187.13C165.661 187.427 166.106 187.39 166.737 187.279C167.293 187.204 167.886 187.093 168.517 186.648C169.296 186.092 169.629 185.35 169.889 184.794C170.111 184.312 170.26 183.941 170.371 183.422C170.519 182.792 170.482 182.495 170.816 181.902C171.335 180.974 173.449 179.973 174.042 178.749C174.302 178.23 174.45 177.377 173.82 175.857" stroke="black" stroke-width="0.75" stroke-miterlimit="10" stroke-linecap="round" stroke-linejoin="round"/>
<path d="M86.1059 65.7462H77.688V94.8566H145.143V91.9641" stroke="black" stroke-width="0.75" stroke-miterlimit="10" stroke-linecap="round" stroke-linejoin="round" stroke-dasharray="12 12"/>
<path d="M158.011 82.6934C157.788 81.4326 158.159 80.9876 158.048 79.6155C158.011 79.0592 157.899 78.2805 157.566 77.3534C157.38 78.6884 157.343 78.9851 157.306 78.9851C157.306 78.9851 157.566 77.6871 157.492 76.0555C157.417 74.6463 157.121 73.163 156.898 73.163C156.75 73.163 156.602 74.0901 156.602 78.1692C156.194 72.3842 156.008 71.0863 155.897 71.0863C155.786 71.0863 155.637 73.4596 155.526 75.7217C155.489 77.2421 155.452 78.4659 154.97 78.6513C154.747 78.7255 154.562 78.5401 153.857 78.2063C153.783 78.1692 152.189 77.4276 152.003 77.6871C151.818 78.0209 154.191 79.0963 155.081 81.6921C155.452 82.7305 155.341 83.3609 156.008 83.9913C156.75 84.733 158.011 84.9926 158.307 84.5476C158.604 84.2138 158.196 83.8059 158.011 82.6934Z" stroke="black" stroke-width="0.75" stroke-miterlimit="10" stroke-linecap="round" stroke-linejoin="round"/>
<path d="M150.891 93.0025C149.815 92.7058 149.407 93.0025 148.184 92.817C147.702 92.7429 147.034 92.5945 146.218 92.1495C147.405 92.0383 147.665 92.0383 147.665 92.0012C147.665 92.0012 146.515 92.1495 145.106 91.9641C143.882 91.8158 142.584 91.3708 142.621 91.1854C142.658 91.037 143.437 90.9629 146.997 91.2225C141.991 90.3695 140.841 90.0729 140.878 89.9987C140.878 89.8875 142.955 89.8875 144.957 89.9616C146.292 89.9987 147.331 90.11 147.553 89.5908C147.665 89.3683 147.479 89.1829 147.257 88.4041C147.22 88.33 146.7 86.6241 146.96 86.5129C147.257 86.3275 148.035 88.8491 150.223 89.9616C151.076 90.4066 151.67 90.3695 152.152 91.037C152.745 91.8529 152.893 93.1508 152.485 93.4475C152.152 93.707 151.855 93.262 150.891 93.0025Z" stroke="black" stroke-width="0.75" stroke-miterlimit="10" stroke-linecap="round" stroke-linejoin="round"/>
<path d="M165.353 129.567C164.982 134.721 164.797 140.543 165.057 146.885C165.39 154.932 166.317 162.089 167.467 168.208C166.911 168.467 166.317 168.727 165.761 168.986C166.28 169.246 166.762 169.468 167.282 169.728C166.985 170.136 166.688 170.544 166.429 170.989C166.688 171.286 166.985 171.582 167.244 171.842C167.393 171.99 167.986 172.509 168.95 172.509C169.84 172.472 170.434 171.953 170.582 171.805C170.619 171.434 170.619 171.063 170.656 170.692C171.138 170.692 171.657 170.692 172.139 170.692C171.769 170.099 171.398 169.468 171.064 168.875C170.804 163.795 170.767 158.381 171.027 152.633C171.138 150.333 171.249 148.108 171.435 145.921" stroke="black" stroke-width="0.75" stroke-miterlimit="10" stroke-linecap="round" stroke-linejoin="round"/>
<path d="M169.173 129.047C169.692 134.758 170.471 140.951 171.657 147.515C173.104 155.71 174.921 163.164 176.849 169.765C176.293 170.136 175.7 170.507 175.143 170.877C175.7 171.063 176.293 171.248 176.849 171.434C176.59 171.916 176.367 172.398 176.107 172.88C176.515 173.102 177.331 173.436 178.332 173.436C179.371 173.436 180.15 173.14 180.595 172.917C180.446 172.509 180.261 172.064 180.112 171.656C180.706 171.026 181.299 170.395 181.892 169.765C181.336 169.617 180.78 169.505 180.224 169.357C178.74 159.975 177.739 149.443 177.665 137.947C177.628 134.276 177.702 130.753 177.85 127.305C174.958 127.898 172.065 128.491 169.173 129.047Z" stroke="black" stroke-width="0.75" stroke-miterlimit="10" stroke-linecap="round" stroke-linejoin="round"/>
<path d="M156.453 84.0283C156.49 83.7687 156.601 83.1383 157.084 82.582C157.677 81.8774 158.456 81.7291 158.641 81.692C161.051 86.2162 163.425 90.7404 165.835 95.2645C165.613 96.5254 165.316 97.8233 164.945 99.1583C164.871 99.4179 164.797 99.7145 164.723 99.9741C164.982 100.345 165.427 100.901 166.169 101.383C166.836 101.791 167.467 101.94 167.838 102.014C167.838 102.125 167.838 102.236 167.801 102.347C167.912 102.644 168.171 103.052 168.579 103.312C169.358 103.794 170.508 103.497 171.361 102.607C171.657 102.83 172.065 103.163 172.51 103.682C174.401 105.945 174.068 108.577 174.809 112.063C174.884 112.323 175.625 114.4 177.109 118.479C178.555 122.447 179.222 124.635 178.666 127.305C178.555 127.787 178.369 128.232 178.073 128.751C175.329 133.275 166.132 133.683 163.87 130.197C163.091 129.01 163.202 127.675 163.351 126.118C163.721 121.927 164.278 116.402 165.168 109.875C163.202 109.097 159.605 107.317 156.305 103.571C153.264 100.122 151.781 96.5624 151.113 94.4487C150.928 93.7812 151.113 93.0766 151.558 92.6316C152.003 92.2237 152.485 92.2237 152.634 92.2237C154.599 95.0791 157.64 98.6391 162.016 101.606C163.462 102.57 164.871 103.386 166.169 104.016C166.28 103.794 166.391 103.571 166.503 103.312C165.056 101.643 163.499 99.6404 161.979 97.2299C159.012 92.2979 157.38 87.5883 156.453 84.0283Z" fill="black"/>
<path d="M167.875 102.236C167.875 102.422 167.875 102.57 167.875 102.756C167.986 103.015 168.171 103.386 168.505 103.608C169.358 104.202 170.619 103.942 171.138 103.201C171.175 103.126 171.212 103.052 171.212 103.052C171.435 102.644 171.472 102.236 171.472 101.977" stroke="black" stroke-width="0.75" stroke-miterlimit="10" stroke-linecap="round" stroke-linejoin="round"/>
<path d="M169.729 102.088C168.95 102.162 168.32 102.051 167.875 101.977C165.798 101.532 164.76 100.197 164.76 99.937C164.76 99.7887 164.797 99.7145 164.908 99.3808C165.02 99.01 165.242 97.8604 165.39 97.0445C165.465 96.5995 165.613 96.0062 165.835 95.2645C165.539 94.7454 165.205 94.115 165.39 93.8554C165.539 93.707 165.761 93.8554 166.095 93.8554C167.467 93.8183 167.801 90.3325 169.803 89.665C169.989 89.5908 170.174 89.5908 170.248 89.5537" stroke="black" stroke-width="0.75" stroke-miterlimit="10" stroke-linecap="round" stroke-linejoin="round"/>
<path d="M166.874 94.5601C167.282 93.8926 167.727 93.2251 168.135 92.5576C168.728 92.4464 169.321 92.3351 169.915 92.2239C169.395 93.188 168.913 94.1522 168.431 95.1535C167.912 94.931 167.393 94.7455 166.874 94.5601Z" stroke="black" stroke-width="0.75" stroke-miterlimit="10" stroke-linecap="round" stroke-linejoin="round"/>
<path d="M168.505 93.4846C168.172 94.2634 167.541 94.7084 167.467 94.5971C167.319 94.4488 168.542 92.5205 168.691 92.6317C168.802 92.7059 168.617 93.188 168.505 93.4846Z" fill="black"/>
<path d="M166.095 98.4537C166.392 98.4537 166.948 98.4166 167.43 98.0087C167.541 97.9346 167.615 97.8233 167.69 97.7491" stroke="black" stroke-width="0.75" stroke-miterlimit="10" stroke-linecap="round" stroke-linejoin="round"/>
<path d="M170.508 96.9334C170.73 96.9704 171.472 97.0446 172.102 96.4884C172.584 96.0063 173.029 95.0792 172.733 94.5971C172.473 94.1521 171.694 94.3375 171.583 94.3746" stroke="black" stroke-width="0.75" stroke-miterlimit="10" stroke-linecap="round" stroke-linejoin="round"/>
<path d="M171.212 96.9334C171.769 98.4167 171.732 99.3809 171.509 100.011C171.398 100.308 171.175 100.901 171.212 101.717C171.212 102.125 171.287 102.496 171.361 102.718C171.509 102.755 171.695 102.83 171.843 102.867C171.769 102.607 171.769 102.385 171.769 102.236C171.769 102.199 171.806 102.014 171.843 101.865C172.065 101.383 172.622 101.569 173.141 101.05C173.4 100.79 173.289 100.716 173.586 100.419C173.92 100.085 174.253 99.9742 174.587 99.8259C174.587 99.8259 175.255 99.5663 176.07 99.1584C177.257 98.565 177.999 97.5638 178.37 97.0446C178.74 96.5255 179.074 96.0805 179.26 95.3759C179.705 93.8925 179.222 92.5575 179.074 92.1125C178.481 90.4067 177.294 89.5538 174.884 87.8479C172.51 86.1421 171.287 85.8454 171.101 86.1421C171.027 86.2534 171.101 86.5129 170.953 86.6242C170.767 86.7725 170.508 86.4388 170.285 86.55C170.1 86.6242 170.174 86.8096 170.026 86.958C169.618 87.3288 168.58 86.4017 168.468 86.5871C168.431 86.6984 168.839 86.995 168.802 87.3288C168.765 87.6625 168.172 87.6625 168.135 87.9963C168.097 88.2559 168.431 88.4042 168.431 88.7379C168.468 89.1459 168.06 89.2942 168.135 89.4796C168.209 89.7021 168.802 89.4796 169.395 89.5909C170.434 89.8134 171.101 91.0371 171.175 91.1854C171.991 92.7059 171.546 94.3005 171.472 94.4488C171.583 94.4117 171.769 94.3375 172.028 94.4117C172.14 94.4488 172.436 94.4859 172.585 94.7084C172.918 95.1534 172.436 96.3771 171.583 96.8592C171.509 96.8592 171.324 96.8963 171.212 96.9334Z" fill="black"/>
<path d="M168.728 91.5934C168.913 91.5192 169.284 91.3709 169.766 91.445C170.026 91.4821 170.248 91.5563 170.397 91.6675" stroke="black" stroke-width="0.75" stroke-miterlimit="10" stroke-linecap="round" stroke-linejoin="round"/>
<path d="M167.133 92.78C167.393 92.8171 167.652 92.8913 167.912 92.9284" stroke="black" stroke-width="0.75" stroke-miterlimit="10" stroke-linecap="round" stroke-linejoin="round"/>
<path d="M169.915 92.2239C170.545 92.8914 171.212 93.5589 171.843 94.1893" stroke="black" stroke-width="0.75" stroke-miterlimit="10" stroke-linecap="round" stroke-linejoin="round"/>
<path d="M174.327 130.753C174.364 131.495 174.439 132.496 174.772 133.609C174.995 134.387 175.292 135.055 175.551 135.574C175.551 135.722 175.477 135.945 175.329 136.019C174.847 136.279 173.623 135.203 172.992 134.313C172.028 132.978 171.954 131.421 172.028 130.271" stroke="black" stroke-width="0.75" stroke-miterlimit="10" stroke-linecap="round" stroke-linejoin="round"/>
<path d="M168.357 127.861C168.06 127.49 165.984 124.968 166.836 122.632C166.948 122.373 167.059 122.113 167.281 121.816" stroke="black" stroke-width="0.75" stroke-miterlimit="10" stroke-linecap="round" stroke-linejoin="round"/>
<path d="M101.755 179.963H81.9897C75.4259 179.963 70.0859 174.623 70.0859 168.059V21.8026C70.0859 15.2388 75.4259 9.8988 81.9897 9.8988H141.879C148.443 9.8988 153.783 15.2388 153.783 21.8026V64.1517" stroke="black" stroke-width="0.75"/>
<path d="M153.746 91.5192V168.059C153.746 174.623 148.406 179.963 141.842 179.963H126.453" stroke="black" stroke-width="0.75"/>
<path d="M101.978 177.923H82.5832C76.6499 177.923 71.792 173.103 71.792 167.132V22.5442C71.792 16.6108 76.6128 11.7529 82.5832 11.7529H140.99C146.923 11.7529 151.781 16.5738 151.781 22.5442V64.1888" stroke="black" stroke-width="0.75"/>
<path d="M151.744 95.6354V167.132C151.744 173.065 146.923 177.923 140.953 177.923H126.601" stroke="black" stroke-width="0.75"/>
<path d="M102.275 175.068H82.3979C78.3187 175.068 74.9812 171.73 74.9812 167.651V22.1363C74.9812 18.0571 78.3187 14.7196 82.3979 14.7196H89.9258C90.5933 14.7196 91.1125 15.2759 91.1866 15.9063C91.372 17.6121 92.225 20.5417 95.822 20.6159C100.94 20.7271 123.709 20.6159 128.196 20.6159C131.422 20.6159 132.201 17.575 132.386 15.8692C132.46 15.2388 132.98 14.7196 133.61 14.7196H141.323C145.402 14.7196 148.74 18.0571 148.74 22.1363V64.1888" stroke="black" stroke-width="0.75"/>
<path d="M148.74 92.8912V167.651C148.74 171.73 145.402 175.068 141.323 175.068H126.823" stroke="black" stroke-width="0.75"/>
<path d="M69.4556 60.8884C69.4556 60.6288 69.641 60.4434 69.9006 60.4434H69.9747V72.9034H69.9006C69.641 72.9034 69.4556 72.7179 69.4556 72.4584V60.8884Z" fill="black"/>
<path d="M69.4556 45.2762C69.4556 45.0166 69.641 44.8312 69.9006 44.8312H69.9747V57.2912H69.9006C69.641 57.2912 69.4556 57.1058 69.4556 56.8462V45.2762Z" fill="black"/>
<path d="M69.4556 33.0759C69.4556 32.8163 69.641 32.6309 69.9006 32.6309H69.9747V39.1946H69.9006C69.641 39.1946 69.4556 39.0092 69.4556 38.7496V33.0759Z" fill="black"/>
<path d="M153.82 64.1888V48.9846H153.894C154.154 48.9846 154.339 49.17 154.339 49.4296V64.1888" fill="black"/>
<path d="M107.466 16.0546H115.773C116.107 16.0546 116.366 16.3141 116.366 16.6479C116.366 16.9816 116.107 17.2412 115.773 17.2412H107.466C107.132 17.2412 106.873 16.9816 106.873 16.6479C106.873 16.3141 107.169 16.0546 107.466 16.0546Z" stroke="black" stroke-width="0.75"/>
<path d="M120.89 17.983C121.632 17.983 122.225 17.3897 122.225 16.648C122.225 15.9063 121.632 15.313 120.89 15.313C120.149 15.313 119.555 15.9063 119.555 16.648C119.555 17.3897 120.149 17.983 120.89 17.983Z" stroke="black" stroke-width="0.75"/>
<path opacity="0.35" d="M141.62 18.0571H144.957C145.217 18.0571 145.439 18.2796 145.439 18.5392V19.6888C145.439 19.9484 145.217 20.1709 144.957 20.1709H141.62C141.36 20.1709 141.138 19.9484 141.138 19.6888V18.5392C141.138 18.2796 141.36 18.0571 141.62 18.0571Z" stroke="black"/>
<path fill-rule="evenodd" clip-rule="evenodd" d="M141.731 18.3539C141.583 18.3539 141.435 18.5022 141.435 18.6505V19.5776C141.435 19.726 141.583 19.8743 141.731 19.8743H144.846C144.995 19.8743 145.143 19.726 145.143 19.5776V18.6505C145.143 18.5022 144.995 18.3539 144.846 18.3539H141.731ZM145.773 19.5035V18.6876C145.922 18.7618 146.033 18.9101 146.033 19.0955C146.033 19.281 145.922 19.4664 145.773 19.5035Z" fill="black"/>
<path fill-rule="evenodd" clip-rule="evenodd" d="M138.653 18.3908C139.098 18.3908 139.506 18.5391 139.803 18.8358C139.84 18.8729 139.877 18.8729 139.877 18.8358L140.099 18.6133V18.5762C140.099 18.5762 140.099 18.5391 140.062 18.5391C139.247 17.7604 137.949 17.7604 137.133 18.5391C137.133 18.5391 137.133 18.5762 137.096 18.5762V18.6133L137.318 18.8358C137.355 18.8729 137.392 18.8729 137.392 18.8358C137.8 18.5391 138.208 18.3908 138.653 18.3908ZM138.653 19.1325C138.876 19.1325 139.135 19.2066 139.284 19.3921C139.321 19.4291 139.358 19.4291 139.358 19.3921L139.58 19.1696C139.58 19.1696 139.617 19.1325 139.58 19.1325C139.543 19.1325 139.58 19.0954 139.543 19.0954C139.024 18.6133 138.171 18.6133 137.652 19.0954L137.615 19.1325V19.1696L137.837 19.3921C137.874 19.4291 137.912 19.4291 137.912 19.3921C138.171 19.2066 138.431 19.1325 138.653 19.1325ZM139.098 19.6146V19.6516L138.727 20.0596H138.69H138.653L138.282 19.6516C138.282 19.6516 138.245 19.6146 138.282 19.6146C138.282 19.6146 138.282 19.5775 138.319 19.5775C138.579 19.355 138.913 19.355 139.172 19.5775C139.098 19.5775 139.098 19.6146 139.098 19.6146Z" fill="black"/>
<path fill-rule="evenodd" clip-rule="evenodd" d="M136.057 18.02H135.872C135.76 18.02 135.686 18.0942 135.686 18.2054V19.9113C135.686 20.0225 135.76 20.0967 135.872 20.0967H136.057C136.168 20.0967 136.243 20.0225 136.243 19.9113V18.2054C136.28 18.1313 136.168 18.02 136.057 18.02ZM134.945 18.5021H135.13C135.241 18.5021 135.315 18.5763 135.315 18.6875V19.9484C135.315 20.0596 135.241 20.1338 135.13 20.1338H134.945C134.833 20.1338 134.759 20.0596 134.759 19.9484V18.6875C134.759 18.5763 134.833 18.5021 134.945 18.5021ZM134.24 18.9471H134.055C133.943 18.9471 133.869 19.0213 133.869 19.1325V19.9113C133.869 20.0225 133.943 20.0967 134.055 20.0967H134.24C134.351 20.0967 134.425 20.0225 134.425 19.9113V19.1325C134.425 19.0213 134.351 18.9471 134.24 18.9471ZM133.313 19.355H133.128C133.016 19.355 132.942 19.4292 132.942 19.5404V19.9484C132.942 20.0596 133.016 20.1338 133.128 20.1338H133.313C133.424 20.1338 133.498 20.0596 133.498 19.9484V19.5404C133.498 19.4292 133.424 19.355 133.313 19.355Z" fill="black"/>
<path d="M104.759 152.336L100.198 194.129L123.709 196.391L127.009 152.336H104.759Z" stroke="black" stroke-width="0.75" stroke-miterlimit="10" stroke-linecap="round" stroke-linejoin="round"/>
<path d="M101.496 196.984L125.006 199.246L128.307 155.191" stroke="black" stroke-width="0.75" stroke-miterlimit="10" stroke-linecap="round" stroke-linejoin="round"/>
<path d="M100.198 194.129L101.496 196.984" stroke="black" stroke-width="0.75" stroke-miterlimit="10" stroke-linecap="round" stroke-linejoin="round"/>
<path d="M123.708 196.391L125.006 199.246" stroke="black" stroke-width="0.75" stroke-miterlimit="10" stroke-linecap="round" stroke-linejoin="round"/>
<path d="M127.009 152.336L128.307 155.191" stroke="black" stroke-width="0.75" stroke-miterlimit="10" stroke-linecap="round" stroke-linejoin="round"/>
<path d="M93.189 75.5734L90.8157 77.3534L93.189 78.6513" stroke="#193EFF" stroke-width="0.75" stroke-miterlimit="10" stroke-linecap="round" stroke-linejoin="round"/>
<path d="M100.754 75.5734L103.127 77.3534L100.754 78.6513" stroke="#193EFF" stroke-width="0.75" stroke-miterlimit="10" stroke-linecap="round" stroke-linejoin="round"/>
<path d="M108.43 80.0603C109.135 78.1691 109.877 76.2778 110.581 74.3866" stroke="#193EFF" stroke-width="0.75" stroke-miterlimit="10" stroke-linecap="round" stroke-linejoin="round"/>
<path d="M107.429 75.5734L105.056 77.3534L107.429 78.6513" stroke="#193EFF" stroke-width="0.75" stroke-miterlimit="10" stroke-linecap="round" stroke-linejoin="round"/>
<path d="M116.515 75.5734L118.851 77.3534L116.515 78.6513" stroke="#193EFF" stroke-width="0.75" stroke-miterlimit="10" stroke-linecap="round" stroke-linejoin="round"/>
</svg>
