<svg width="884" height="585" viewBox="0 0 884 585" fill="none" xmlns="http://www.w3.org/2000/svg">
<path d="M283.866 583.916L243.526 404.722H497.307L538.211 569.027H734.225V583.916H541.918H283.866Z" fill="black"/>
<path d="M541.918 583.916H283.866L243.526 404.722H497.307L541.918 583.916ZM541.918 583.916H734.225V569.027H538.211" stroke="black" stroke-width="2" stroke-linecap="round" stroke-linejoin="round"/>
<path d="M407.406 486.264C412.827 500.066 408.013 514.479 397.197 518.727C386.382 522.975 373.045 515.692 367.624 501.89C362.202 488.088 367.017 473.676 377.833 469.427C388.648 465.179 401.985 472.462 407.406 486.264Z" fill="white" stroke="black" stroke-width="2"/>
<path d="M678.529 164.98C687.772 161.236 685.778 145.069 671.776 145.444C669.363 145.567 664.255 147.374 663.119 153.61C661.983 159.847 672.919 163.788 678.529 164.98Z" fill="black"/>
<path d="M613.84 161.983C623.083 158.24 621.088 142.072 607.086 142.447C604.674 142.571 599.565 144.377 598.429 150.614C597.293 156.85 608.23 160.792 613.84 161.983Z" fill="black"/>
<path d="M655.885 133.996V127.808M676.004 209.28C669.835 211.45 654.727 214.88 643.642 211.239M616.136 134.413C616.525 136.897 616.795 139.011 616.973 140.852M734.41 196.826C754.585 210.478 795.918 152.828 752.245 151.187M734.41 196.826C734.223 198.526 733.981 200.146 733.685 201.693M734.41 196.826C734.065 197.534 733.829 199.256 733.685 201.693M752.245 151.187C749.027 151.565 745.156 152.434 740.55 153.883C729.485 145.452 710.033 128.194 720.747 126.619C734.141 124.649 735.062 90.889 718.376 88.574C701.69 86.2591 658.642 100.606 652.758 92.899C646.873 85.1923 641.779 76.0313 632.197 90.3652C625.718 100.058 619.258 107.862 616.701 117.933M752.245 151.187C754.523 139.487 757.851 113.349 752.944 102.402L757.914 81.2936L746.15 85.5324L748.547 68.7618L732.968 78.2192C732.59 71.1048 728.074 56.2574 713.028 53.7827C694.222 50.6892 652.949 60.3417 649.653 52.1782C647.016 45.6473 643.234 54.1454 641.673 59.2107C637.619 55.6944 629.466 50.1558 629.281 56.132C629.049 63.6023 608.688 93.1567 616.701 117.933M616.701 117.933C616.037 120.547 615.636 123.313 615.565 126.304M651.03 145.953C644.278 156.757 632.2 179.317 637.905 183.123C643.61 186.929 648.393 186.309 655.885 185.939M736.59 181.58C742.768 178.721 753.509 172.184 747.055 168.906C738.988 164.809 755.048 155.928 761.195 163.667M733.685 201.693C732.92 205.689 731.79 209.199 730.285 212.349C723.627 226.286 709.638 233.2 687.486 244.052C674.458 250.435 661.631 252.281 651.03 250.838M733.685 201.693C732.921 214.642 734.755 247.785 736.59 256.403M651.03 250.838C648.423 250.483 645.95 249.929 643.642 249.194C641.119 248.391 638.793 247.373 636.703 246.163C631.119 242.929 627.222 238.329 625.765 232.825C621.237 215.718 617.161 193.495 616.577 172.22C616.252 168.018 616.152 164.757 616.179 162.089M651.03 250.838C651.881 258.58 653.625 271.581 655.645 280.515M659.127 290.015L651.03 312.694M659.127 290.015C660.282 290.901 666.985 289.476 676.004 286.738M659.127 290.015C657.951 289.113 656.756 285.429 655.645 280.515M736.59 256.403C737.009 258.373 734.554 260.947 730.285 263.796M736.59 256.403L757.914 258.361M736.397 249.881C742.603 252.245 749.95 255.129 757.914 258.361M857.615 581.485C907.328 581.485 867.846 325.801 857.615 310.416C849.38 298.032 799.277 275.282 761.195 259.698M653.003 265.266C649.442 266.435 645.385 267.816 640.982 269.375M513.358 467.753C518.161 423.717 532.974 334.63 547.816 316.436C560.827 300.486 609.674 280.457 640.982 269.375M767.558 366.77C773.382 411.308 780.167 502.522 760.714 511.084C741.367 517.205 646.6 515.624 573.958 513.106M615.565 126.304C622.417 126.332 630.489 127.906 630.489 129.691C630.489 132.868 607.614 135.042 606.173 129.691C605.621 127.2 610.222 126.282 615.565 126.304ZM523.776 511.084C530.259 511.386 537.407 511.7 545.057 512.014M584.549 344.644C580.208 388.307 572.013 483.129 573.958 513.106M573.958 513.106C563.803 512.754 554.08 512.384 545.057 512.014M640.982 269.375C640.392 273.937 639.978 280.284 640.252 286.738M651.03 312.694C655.043 314.139 664.374 312.927 676.004 309.863M651.03 312.694C643.382 309.942 640.738 298.173 640.252 286.738M761.195 259.698C759.763 265.745 754.154 272.027 746.15 278.071M761.195 259.698C760.091 259.246 758.997 258.8 757.914 258.361M676.004 286.738V309.863M676.004 286.738C681.485 285.074 687.821 282.925 694.288 280.515M676.004 309.863C684.321 307.671 693.814 304.531 703.379 300.737M694.288 280.515L703.379 300.737M694.288 280.515C700.638 278.149 707.113 275.532 713.028 272.875M703.379 300.737C711.378 297.564 719.426 293.933 726.879 290.015M713.028 272.875L726.879 290.015M713.028 272.875C719.892 269.792 726.001 266.655 730.285 263.796M726.879 290.015C734.045 286.248 740.661 282.215 746.15 278.071M730.285 263.796L746.15 278.071M655.645 280.515L640.252 286.738M545.057 512.014C545.627 514.002 546.149 515.913 546.621 517.76M546.621 567.768C546.621 567.768 548.102 558.575 548.916 553.613M549.98 540.854H531.59M549.98 540.854C549.967 536.825 549.61 532.795 548.916 528.526M549.98 540.854C549.995 545.021 549.642 549.187 548.916 553.613M548.916 528.526H528.638M548.916 528.526C548.364 525.128 547.598 521.579 546.621 517.76M546.621 517.76H525.513M548.916 553.613H535.41M703.379 157.366C701.466 172.118 662.647 165.478 663.916 152.957C665.185 140.435 705.27 142.776 703.379 157.366ZM637.816 154.022C635.904 168.774 597.085 162.134 598.354 149.612C599.623 137.09 639.708 139.432 637.816 154.022ZM707.759 136.337C706.318 141.688 683.443 139.514 683.443 136.337C683.443 133.16 709.02 130.651 707.759 136.337Z" stroke="black" stroke-width="2" stroke-linecap="round" stroke-linejoin="round"/>
<circle cx="469.844" cy="164.998" r="2.07349" transform="rotate(20.7275 469.844 164.998)" fill="black"/>
<circle cx="509.78" cy="84.0826" r="2.07349" transform="rotate(20.7275 509.78 84.0826)" fill="black"/>
<circle cx="429.213" cy="40.6731" r="2.07349" transform="rotate(20.7275 429.213 40.6731)" fill="black"/>
<circle cx="372.615" cy="82.3543" r="2.07349" transform="rotate(7.74477 372.615 82.3543)" fill="black"/>
<path d="M442.915 106.024L444.245 98.0603C445.423 91.0136 452.09 86.2557 459.136 87.433C466.183 88.6104 472.85 83.8524 474.027 76.8058L475.186 69.8696C476.814 60.1273 470.236 50.9099 460.494 49.2821C450.751 47.6543 441.534 54.2325 439.906 63.9748L439.591 65.8587M440.254 121.952L439.08 128.973" stroke="black" stroke-width="2" stroke-linecap="round" stroke-linejoin="round"/>
<path d="M396.545 142.51L394.042 139.373C391.826 136.598 392.28 132.553 395.055 130.337C397.831 128.122 398.285 124.076 396.069 121.301L393.889 118.569C390.826 114.733 385.233 114.105 381.396 117.168C377.559 120.231 376.931 125.824 379.994 129.661L380.586 130.403M401.553 148.782L403.76 151.548" stroke="black" stroke-width="2" stroke-linecap="round" stroke-linejoin="round"/>
<path d="M407.226 47.2307C407.181 46.6803 406.699 46.2704 406.148 46.3153C405.598 46.3601 405.188 46.8427 405.233 47.3932L407.226 47.2307ZM406.255 59.9308C406.3 60.4813 406.782 60.8911 407.333 60.8463C407.883 60.8014 408.293 60.3188 408.248 59.7683L406.255 59.9308ZM409.169 71.066C409.124 70.5155 408.642 70.1056 408.091 70.1505C407.541 70.1954 407.131 70.678 407.176 71.2284L409.169 71.066ZM408.198 83.766C408.243 84.3165 408.725 84.7264 409.276 84.6815C409.826 84.6366 410.236 84.154 410.191 83.6035L408.198 83.766ZM419.769 65.3802C420.319 65.3353 420.729 64.8527 420.684 64.3022C420.639 63.7518 420.157 63.3419 419.606 63.3868L419.769 65.3802ZM412.106 63.9982C411.556 64.0431 411.146 64.5257 411.191 65.0761C411.235 65.6266 411.718 66.0364 412.269 65.9916L412.106 63.9982ZM403.296 66.723C403.846 66.6781 404.256 66.1955 404.211 65.6451C404.166 65.0946 403.684 64.6847 403.133 64.7296L403.296 66.723ZM395.633 65.341C395.083 65.3859 394.673 65.8685 394.718 66.4189C394.763 66.9694 395.245 67.3793 395.796 67.3344L395.633 65.341ZM405.233 47.3932L406.255 59.9308L408.248 59.7683L407.226 47.2307L405.233 47.3932ZM407.176 71.2284L408.198 83.766L410.191 83.6035L409.169 71.066L407.176 71.2284ZM419.606 63.3868L412.106 63.9982L412.269 65.9916L419.769 65.3802L419.606 63.3868ZM403.133 64.7296L395.633 65.341L395.796 67.3344L403.296 66.723L403.133 64.7296Z" fill="black"/>
<path d="M483.573 114.791C483.814 114.294 483.605 113.696 483.108 113.455C482.611 113.215 482.013 113.424 481.772 113.921L483.573 114.791ZM476.301 125.248C476.06 125.745 476.269 126.343 476.766 126.583C477.263 126.823 477.861 126.615 478.101 126.118L476.301 125.248ZM473.171 136.324C473.411 135.827 473.203 135.229 472.705 134.989C472.208 134.748 471.61 134.957 471.37 135.454L473.171 136.324ZM465.898 146.781C465.658 147.278 465.866 147.876 466.363 148.116C466.861 148.356 467.459 148.148 467.699 147.651L465.898 146.781ZM485.19 136.793C485.687 137.033 486.285 136.825 486.525 136.328C486.765 135.83 486.557 135.233 486.06 134.992L485.19 136.793ZM479.284 131.719C478.787 131.479 478.189 131.687 477.948 132.184C477.708 132.682 477.917 133.28 478.414 133.52L479.284 131.719ZM470.308 129.604C470.805 129.844 471.403 129.636 471.643 129.138C471.883 128.641 471.675 128.043 471.178 127.803L470.308 129.604ZM464.402 124.53C463.905 124.289 463.307 124.498 463.067 124.995C462.826 125.492 463.035 126.09 463.532 126.33L464.402 124.53ZM481.772 113.921L476.301 125.248L478.101 126.118L483.573 114.791L481.772 113.921ZM471.37 135.454L465.898 146.781L467.699 147.651L473.171 136.324L471.37 135.454ZM486.06 134.992L479.284 131.719L478.414 133.52L485.19 136.793L486.06 134.992ZM471.178 127.803L464.402 124.53L463.532 126.33L470.308 129.604L471.178 127.803Z" fill="black"/>
<path d="M448.765 181.598C471.048 200.293 528.708 237.683 581.077 237.683" stroke="black" stroke-width="2" stroke-linecap="round" stroke-linejoin="round"/>
<path d="M627.959 60.7462C627.091 70.2963 614.762 95.4737 615.631 114.574C622.402 103.924 636.883 82.6245 640.634 82.6245C645.322 82.6245 647.753 88.7018 655.74 94.4318C663.728 100.162 697.761 88.7018 706.095 88.7018C714.43 88.7018 724.327 88.3545 728.495 94.4318C732.662 100.509 728.321 114.574 728.495 119.436C728.668 124.297 718.944 126.555 716.34 128.812C714.256 130.618 731.794 146.002 740.823 153.469L753.325 150.169C755.686 138.779 754.309 113.243 753.325 101.898L756.45 82.6245L745.858 85.4027L748.463 68.5598L733.009 76.8944C733.009 69.9489 726.932 60.7462 718.944 55.3635C710.957 49.9807 665.985 55.3635 658.692 55.3635C651.4 55.3635 650.879 50.8489 647.753 49.8071C645.253 48.9736 641.965 56.7526 640.634 60.7462L635.946 55.3635C633.573 53.9744 628.653 53.1062 627.959 60.7462Z" fill="black"/>
<path d="M606.08 126.728C606.254 132.979 627.959 138.536 627.959 130.722C627.959 124.471 613.373 125.455 606.08 126.728Z" fill="black"/>
<path d="M685.259 135.758C684.912 144.787 708.006 138.536 707.311 135.758C706.755 133.535 692.378 134.832 685.259 135.758Z" fill="black"/>
<path d="M375 291.033C341.658 307.013 263.564 325.147 217.904 269.845" stroke="black" stroke-width="2" stroke-linecap="round" stroke-linejoin="round"/>
<path d="M219.731 101.855C222.007 112.63 217.843 143.606 220.935 153.931C233.643 132.816 230.416 84.2152 224.4 76.8877C218.385 69.5602 195.995 70.1782 185.852 72.9345L194.885 84.6688C209.912 84.6246 217.455 91.08 219.731 101.855Z" fill="black"/>
<path d="M168.719 95.4166L170.53 93.7051L168.719 95.4166ZM168.623 98.7633L170.343 100.566L168.623 98.7633ZM155.401 111.378L157.121 113.18L155.401 111.378ZM155.787 121.457L154.363 123.501L155.787 121.457ZM161.733 125.598L163.157 123.553L161.733 125.598ZM165.042 125.496L166.593 127.445L165.042 125.496ZM174.342 118.097L175.894 120.047L174.342 118.097ZM194.644 109.754L196.868 110.877L194.644 109.754ZM199.949 102.369C200.313 101.042 199.532 99.6715 198.205 99.3077C196.878 98.9438 195.507 99.7245 195.143 101.052L199.949 102.369ZM179.468 138.277L178.208 136.128C178.136 136.17 178.067 136.216 178 136.265L179.468 138.277ZM171.007 159.006L168.893 160.325C169.354 161.064 170.167 161.508 171.038 161.497L171.007 159.006ZM223.954 158.334L223.985 160.826C224.941 160.813 225.805 160.257 226.21 159.392C226.615 158.527 226.49 157.507 225.889 156.765L223.954 158.334ZM193.626 84.5149L193.257 86.979L193.394 86.9996L193.533 87.0047L193.626 84.5149ZM180.113 84.6864L179.777 82.2175L180.113 84.6864ZM185.827 72.9369L183.76 74.3291L185.827 72.9369ZM168.576 91.1985L170.1 93.1695L168.576 91.1985ZM176.39 117.512L176.154 119.992L176.39 117.512ZM187.801 116.55L186.868 114.24L187.801 116.55ZM141.439 73.5002L142.994 71.5531C142.001 70.7603 140.571 70.8417 139.674 71.7418C138.777 72.6419 138.702 74.0726 139.498 75.0625L141.439 73.5002ZM181.979 117.694L181.861 115.205L181.979 117.694ZM166.405 96.5958L166.909 97.1281L170.53 93.7051L170.026 93.1729L166.405 96.5958ZM152.156 113.161L152.237 119.549L157.22 119.486L157.139 113.098L152.156 113.161ZM154.363 123.501L160.309 127.642L163.157 123.553L157.21 119.412L154.363 123.501ZM166.593 127.445L175.894 120.047L172.791 116.147L163.491 123.546L166.593 127.445ZM196.868 110.877C198.075 108.487 199.051 105.643 199.949 102.369L195.143 101.052C194.285 104.18 193.412 106.665 192.42 108.631L196.868 110.877ZM178 136.265C170.174 141.972 167.578 147.777 167.238 152.484C167.072 154.782 167.455 156.69 167.889 158.038C168.106 158.713 168.337 159.252 168.523 159.637C168.616 159.83 168.698 159.985 168.762 160.1C168.794 160.158 168.821 160.206 168.843 160.243C168.854 160.262 168.864 160.278 168.873 160.292C168.877 160.298 168.88 160.305 168.884 160.31C168.885 160.313 168.887 160.316 168.889 160.318C168.889 160.319 168.89 160.321 168.891 160.322C168.892 160.323 168.893 160.325 171.007 159.006C173.12 157.687 173.121 157.689 173.122 157.69C173.122 157.69 173.123 157.692 173.124 157.693C173.125 157.695 173.126 157.696 173.127 157.698C173.129 157.701 173.13 157.703 173.131 157.705C173.134 157.709 173.135 157.711 173.135 157.71C173.134 157.709 173.128 157.7 173.118 157.681C173.098 157.645 173.06 157.575 173.011 157.473C172.913 157.269 172.771 156.943 172.633 156.513C172.355 155.65 172.097 154.387 172.208 152.843C172.423 149.868 174.058 145.308 180.936 140.29L178 136.265ZM171.038 161.497L223.985 160.826L223.922 155.843L170.975 156.515L171.038 161.497ZM225.889 156.765C222.997 153.2 222.122 147.369 222.151 139.763C222.166 136.038 222.39 132.076 222.604 127.964C222.816 123.881 223.018 119.665 222.972 115.554C222.878 107.411 221.816 99.2175 217.511 92.9265C213.081 86.4518 205.567 82.4683 193.719 82.0252L193.533 87.0047C204.274 87.4063 210.096 90.914 213.399 95.7406C216.828 100.751 217.898 107.669 217.989 115.611C218.034 119.544 217.841 123.614 217.628 127.705C217.416 131.768 217.184 135.87 217.168 139.743C217.139 147.333 217.908 154.835 222.019 159.904L225.889 156.765ZM193.996 82.0511C191.176 81.6286 188.049 81.5162 184.587 81.7329L184.898 86.706C188.071 86.5075 190.841 86.6169 193.257 86.979L193.996 82.0511ZM184.587 81.7329C183.052 81.8291 181.45 81.9897 179.777 82.2175L180.449 87.1549C182.011 86.9422 183.493 86.7941 184.898 86.706L184.587 81.7329ZM183.76 74.3291L191.56 85.9068L195.693 83.1231L187.893 71.545L183.76 74.3291ZM182.112 73.3048L182.251 84.251L187.233 84.1879L187.095 73.2416L182.112 73.3048ZM170.1 93.1695C171.957 91.7334 173.613 90.3679 175.386 89.2362C177.128 88.1248 178.776 87.3827 180.449 87.1549L179.777 82.2175C177.108 82.581 174.761 83.7245 172.706 85.0357C170.682 86.327 168.74 87.922 167.052 89.2278L170.1 93.1695ZM188.734 118.86C192.447 117.36 194.967 114.642 196.868 110.877L192.42 108.631C190.915 111.612 189.19 113.302 186.868 114.24L188.734 118.86ZM175.894 120.047C175.919 120.026 176.01 119.979 176.154 119.992L176.625 115.032C175.29 114.905 173.896 115.268 172.791 116.147L175.894 120.047ZM160.309 127.642C162.201 128.96 164.785 128.884 166.593 127.445L163.491 123.546C163.465 123.567 163.41 123.594 163.329 123.597C163.248 123.599 163.188 123.575 163.157 123.553L160.309 127.642ZM152.237 119.549C152.258 121.162 153.083 122.61 154.363 123.501L157.21 119.412C157.192 119.4 157.194 119.395 157.201 119.408C157.209 119.423 157.219 119.45 157.22 119.486L152.237 119.549ZM187.893 71.545C187.012 70.2369 185.517 69.9699 184.419 70.2716C183.314 70.5754 182.091 71.6196 182.112 73.3048L187.095 73.2416C187.108 74.3041 186.319 74.9173 185.739 75.0767C185.166 75.2339 184.287 75.1104 183.76 74.3291L187.893 71.545ZM153.681 109.575C152.711 110.5 152.138 111.786 152.156 113.161L157.139 113.098C157.139 113.128 157.132 113.153 157.125 113.169C157.119 113.185 157.114 113.187 157.121 113.18L153.681 109.575ZM166.909 97.1281C166.914 97.1335 166.906 97.126 166.897 97.1048C166.89 97.0845 166.885 97.0602 166.886 97.0349C166.887 97.0096 166.892 96.988 166.9 96.9718C166.907 96.9543 166.913 96.9515 166.904 96.9607L170.343 100.566C172.293 98.7056 172.394 95.6771 170.53 93.7051L166.909 97.1281ZM170.026 93.1729C170.022 93.1681 170.023 93.1681 170.026 93.1739C170.029 93.1789 170.033 93.1864 170.036 93.1955C170.043 93.2144 170.043 93.2292 170.042 93.2356C170.041 93.2414 170.041 93.2377 170.047 93.2269C170.052 93.2171 170.066 93.1958 170.1 93.1695L167.052 89.2278C164.788 90.9784 164.286 94.3538 166.405 96.5958L170.026 93.1729ZM169.771 92.9373L142.994 71.5531L139.884 75.4469L166.661 96.8311L169.771 92.9373ZM166.904 96.9607L163.03 100.656L166.47 104.261L170.343 100.566L166.904 96.9607ZM163.03 100.656L153.681 109.575L157.121 113.18L166.47 104.261L163.03 100.656ZM139.498 75.0625L162.809 104.021L166.691 100.896L143.38 71.9379L139.498 75.0625ZM176.154 119.992C178.309 120.197 180.284 120.269 182.097 120.183L181.861 115.205C180.343 115.278 178.612 115.22 176.625 115.032L176.154 119.992ZM182.097 120.183C184.556 120.066 186.762 119.657 188.734 118.86L186.868 114.24C185.544 114.774 183.92 115.108 181.861 115.205L182.097 120.183ZM180.728 140.427C183.782 138.637 185.899 136.506 187.194 134.135C188.493 131.759 188.884 129.29 188.716 126.967C188.388 122.421 185.929 118.382 183.839 116.037L180.119 119.352C181.758 121.191 183.523 124.233 183.747 127.326C183.855 128.822 183.604 130.314 182.822 131.745C182.036 133.182 180.634 134.706 178.208 136.128L180.728 140.427Z" fill="black"/>
<path d="M175.81 98.234C175.831 99.8693 177.173 101.178 178.809 101.157C180.444 101.137 181.753 99.7942 181.732 98.1589C181.711 96.5236 180.369 95.2148 178.734 95.2356C177.098 95.2563 175.79 96.5988 175.81 98.234Z" fill="black"/>
<path d="M107.619 305.949C106.632 304.77 106.788 303.015 107.966 302.028C109.145 301.041 110.9 301.197 111.887 302.376C112.874 303.554 112.719 305.309 111.54 306.296C110.361 307.283 108.606 307.128 107.619 305.949Z" fill="black"/>
<path d="M114.021 300.588C113.034 299.409 113.19 297.654 114.368 296.667C115.547 295.68 117.302 295.836 118.289 297.014C119.276 298.193 119.12 299.948 117.942 300.935C116.763 301.922 115.008 301.767 114.021 300.588Z" fill="black"/>
<path d="M120.423 295.228C119.436 294.049 119.592 292.294 120.771 291.307C121.949 290.32 123.704 290.476 124.691 291.654C125.678 292.833 125.523 294.588 124.344 295.575C123.165 296.562 121.41 296.407 120.423 295.228Z" fill="black"/>
<path d="M121.514 323.357C120.527 322.178 120.682 320.422 121.861 319.435L169.61 279.455C170.789 278.468 172.544 278.623 173.531 279.802C174.518 280.98 174.363 282.736 173.184 283.723L125.435 323.704C124.256 324.69 122.501 324.535 121.514 323.357Z" fill="black"/>
<path d="M128.661 331.893C127.674 330.714 127.83 328.959 129.008 327.972L176.758 287.991C177.936 287.004 179.692 287.16 180.678 288.338C181.665 289.517 181.51 291.272 180.331 292.259L132.582 332.24C131.403 333.227 129.648 333.071 128.661 331.893Z" fill="black"/>
<path d="M135.808 340.429C134.822 339.251 134.977 337.496 136.156 336.507L183.905 296.527C185.084 295.54 186.839 295.696 187.826 296.874C188.813 298.053 188.657 299.808 187.479 300.795L139.73 340.776C138.551 341.762 136.795 341.607 135.808 340.429Z" fill="black"/>
<path d="M142.956 348.964C141.969 347.786 142.124 346.031 143.303 345.043L191.053 305.063C192.231 304.077 193.987 304.232 194.973 305.411C195.96 306.589 195.805 308.345 194.626 309.331L146.877 349.312C145.698 350.301 143.943 350.142 142.956 348.964Z" fill="black"/>
<path d="M101.456 303.469L157.475 256.564C158.63 255.597 160.35 255.749 161.317 256.904L208.222 312.923C209.189 314.078 209.036 315.798 207.881 316.765L151.863 363.669C150.708 364.638 148.988 364.486 148.021 363.328L101.116 307.311C100.149 306.156 100.301 304.436 101.456 303.469Z" stroke="black" stroke-width="2" stroke-linecap="round" stroke-linejoin="round"/>
<path d="M90.1121 139.465C86.1472 116.84 64.5917 101.713 41.9665 105.678C19.3413 109.643 4.21417 131.198 8.17904 153.823C12.1439 176.449 33.6994 191.576 56.3246 187.611C78.9498 183.646 94.077 162.091 90.1121 139.465Z" stroke="black" stroke-width="2" stroke-linecap="round" stroke-linejoin="round"/>
<path d="M86.7248 120.142L4.79175 134.5L11.5644 173.148L93.4975 158.79L86.7248 120.142Z" stroke="black" stroke-width="2" stroke-linecap="round" stroke-linejoin="round"/>
<path d="M75.6473 184.225L61.2892 102.292L22.6414 109.064L36.9995 190.997L75.6473 184.225Z" stroke="black" stroke-width="2" stroke-linecap="round" stroke-linejoin="round"/>
<path d="M92.5322 153.125L28.2982 108.047L5.75914 140.164L69.9931 185.242L92.5322 153.125Z" stroke="black" stroke-width="2" stroke-linecap="round" stroke-linejoin="round"/>
<path d="M10.5471 167.493L55.6251 103.259L87.7423 125.798L42.6642 190.032L10.5471 167.493Z" stroke="black" stroke-width="2" stroke-linecap="round" stroke-linejoin="round"/>
<path d="M97.2909 180.432L15.3581 194.79M1 112.857L82.9329 98.499L1 112.857ZM1 112.857L15.3581 194.79L1 112.857ZM1 112.857L97.2909 180.432L1 112.857ZM82.9329 98.499L97.2909 180.432L82.9329 98.499ZM82.9329 98.499L15.3581 194.79L82.9329 98.499Z" stroke="black" stroke-width="2" stroke-linecap="round" stroke-linejoin="round"/>
<path d="M255.619 164.8C254.908 163.271 253.093 162.608 251.564 163.319C250.036 164.03 249.373 165.845 250.084 167.374L255.619 164.8ZM252.986 173.614C253.696 175.143 255.512 175.806 257.04 175.095C258.569 174.384 259.231 172.569 258.521 171.04L252.986 173.614ZM263.166 181.029C262.455 179.501 260.64 178.838 259.111 179.549C257.583 180.259 256.92 182.075 257.631 183.603L263.166 181.029ZM260.533 189.844C261.244 191.372 263.059 192.035 264.587 191.324C266.116 190.613 266.779 188.798 266.068 187.269L260.533 189.844ZM267.482 176.166C269.01 175.455 269.673 173.639 268.962 172.111C268.252 170.583 266.436 169.92 264.908 170.631L267.482 176.166ZM260.699 172.588C259.17 173.299 258.508 175.114 259.218 176.642C259.929 178.171 261.744 178.834 263.273 178.123L260.699 172.588ZM255.339 181.812C256.868 181.101 257.531 179.286 256.82 177.757C256.109 176.229 254.294 175.566 252.766 176.277L255.339 181.812ZM248.557 178.234C247.028 178.945 246.365 180.76 247.076 182.289C247.787 183.817 249.602 184.48 251.13 183.769L248.557 178.234ZM250.084 167.374L252.986 173.614L258.521 171.04L255.619 164.8L250.084 167.374ZM257.631 183.603L260.533 189.844L266.068 187.269L263.166 181.029L257.631 183.603ZM264.908 170.631L260.699 172.588L263.273 178.123L267.482 176.166L264.908 170.631ZM252.766 176.277L248.557 178.234L251.13 183.769L255.339 181.812L252.766 176.277Z" fill="black"/>
<path d="M47.2004 221.62C46.4896 220.092 44.6742 219.429 43.1456 220.139C41.6174 220.85 40.9546 222.665 41.6654 224.194L47.2004 221.62ZM44.5672 230.434C45.278 231.963 47.0931 232.625 48.6216 231.915C50.1502 231.204 50.813 229.389 50.1022 227.86L44.5672 230.434ZM54.7473 237.849C54.0365 236.321 52.2214 235.658 50.6929 236.369C49.1643 237.079 48.5015 238.895 49.2123 240.423L54.7473 237.849ZM52.1144 246.663C52.8252 248.192 54.6403 248.855 56.1689 248.144C57.6971 247.433 58.3599 245.618 57.6492 244.09L52.1144 246.663ZM59.0633 232.986C60.5915 232.275 61.2544 230.46 60.5436 228.931C59.8328 227.403 58.0177 226.74 56.4891 227.45L59.0633 232.986ZM52.2802 229.408C50.7519 230.118 50.0891 231.934 50.7999 233.462C51.5106 234.991 53.3257 235.653 54.8543 234.943L52.2802 229.408ZM46.9209 238.632C48.4495 237.921 49.1124 236.106 48.4016 234.578C47.6908 233.049 45.8754 232.386 44.3472 233.097L46.9209 238.632ZM40.1382 235.054C38.6096 235.765 37.9467 237.58 38.6575 239.109C39.3683 240.637 41.1834 241.3 42.712 240.589L40.1382 235.054ZM41.6654 224.194L44.5672 230.434L50.1022 227.86L47.2004 221.62L41.6654 224.194ZM49.2123 240.423L52.1144 246.663L57.6492 244.09L54.7473 237.849L49.2123 240.423ZM56.4891 227.45L52.2802 229.408L54.8543 234.943L59.0633 232.986L56.4891 227.45ZM44.3472 233.097L40.1382 235.054L42.712 240.589L46.9209 238.632L44.3472 233.097Z" fill="black"/>
<path d="M101.537 57.4503C100.826 55.9217 99.0109 55.2589 97.4823 55.9697C95.9541 56.6804 95.2913 58.4959 96.002 60.0241L101.537 57.4503ZM98.9039 66.2645C99.6147 67.7931 101.43 68.4559 102.958 67.7451C104.487 67.0344 105.15 65.2193 104.439 63.6907L98.9039 66.2645ZM109.084 73.6794C108.373 72.1512 106.558 71.4884 105.03 72.1992C103.501 72.9099 102.838 74.725 103.549 76.2536L109.084 73.6794ZM106.451 82.494C107.162 84.0226 108.977 84.6854 110.506 83.9746C112.034 83.2639 112.697 81.4484 111.986 79.9202L106.451 82.494ZM113.4 68.816C114.928 68.1052 115.591 66.2898 114.881 64.7616C114.17 63.2331 112.354 62.5702 110.826 63.281L113.4 68.816ZM106.617 65.2382C105.089 65.9489 104.426 67.7644 105.137 69.2926C105.847 70.8211 107.662 71.484 109.191 70.7732L106.617 65.2382ZM101.258 74.4625C102.786 73.7517 103.449 71.9362 102.738 70.408C102.027 68.8795 100.212 68.2166 98.6838 68.9274L101.258 74.4625ZM94.4748 70.8846C92.9463 71.5954 92.2834 73.4108 92.9942 74.939C93.705 76.4676 95.5201 77.1304 97.0486 76.4196L94.4748 70.8846ZM96.002 60.0241L98.9039 66.2645L104.439 63.6907L101.537 57.4503L96.002 60.0241ZM103.549 76.2536L106.451 82.494L111.986 79.9202L109.084 73.6794L103.549 76.2536ZM110.826 63.281L106.617 65.2382L109.191 70.7732L113.4 68.816L110.826 63.281ZM98.6838 68.9274L94.4748 70.8846L97.0486 76.4196L101.258 74.4625L98.6838 68.9274Z" fill="black"/>
<path d="M75.609 3.73461C74.8982 2.20616 73.0828 1.54331 71.5545 2.25409C70.026 2.96484 69.3631 4.7801 70.0739 6.30854L75.609 3.73461ZM75.2289 17.3938C75.9397 18.9222 77.7548 19.5851 79.2834 18.8743C80.8119 18.1636 81.4748 16.3483 80.764 14.8199L75.2289 17.3938ZM85.409 24.8088C84.6982 23.2803 82.8828 22.6175 81.3546 23.3282C79.8261 24.039 79.1632 25.8543 79.874 27.3827L85.409 24.8088ZM85.029 38.4679C85.7398 39.9964 87.5549 40.6593 89.0834 39.9485C90.612 39.2377 91.2748 37.4223 90.5641 35.8941L85.029 38.4679ZM92.1473 18.8186C93.6758 18.1078 94.3387 16.2926 93.6279 14.7642C92.9171 13.2357 91.1017 12.5728 89.5731 13.2836L92.1473 18.8186ZM82.9419 16.3674C81.4137 17.0781 80.7505 18.8934 81.4613 20.4218C82.172 21.9503 83.9875 22.6131 85.516 21.9024L82.9419 16.3674ZM77.5827 25.5916C79.1112 24.8808 79.7741 23.0655 79.0633 21.5371C78.3525 20.0086 76.5371 19.3458 75.0085 20.0566L77.5827 25.5916ZM68.3773 23.1403C66.8487 23.8511 66.1859 25.6663 66.8967 27.1948C67.6074 28.7232 69.4229 29.3861 70.9514 28.6753L68.3773 23.1403ZM70.0739 6.30854L75.2289 17.3938L80.764 14.8199L75.609 3.73461L70.0739 6.30854ZM79.874 27.3827L85.029 38.4679L90.5641 35.8941L85.409 24.8088L79.874 27.3827ZM89.5731 13.2836L82.9419 16.3674L85.516 21.9024L92.1473 18.8186L89.5731 13.2836ZM75.0085 20.0566L68.3773 23.1403L70.9514 28.6753L77.5827 25.5916L75.0085 20.0566Z" fill="black"/>
<path d="M98.1728 216.956C97.462 215.428 95.647 214.765 94.1184 215.476C92.5902 216.187 91.9273 218.002 92.6378 219.53L98.1728 216.956ZM97.7928 230.615C98.5036 232.144 100.319 232.807 101.847 232.096C103.376 231.385 104.039 229.57 103.328 228.042L97.7928 230.615ZM107.973 238.03C107.262 236.502 105.447 235.839 103.918 236.55C102.39 237.261 101.727 239.076 102.438 240.604L107.973 238.03ZM107.593 251.689C108.304 253.218 110.119 253.881 111.647 253.17C113.176 252.459 113.839 250.644 113.128 249.116L107.593 251.689ZM114.711 232.04C116.24 231.33 116.903 229.514 116.192 227.986C115.481 226.457 113.666 225.795 112.137 226.505L114.711 232.04ZM105.506 229.589C103.978 230.3 103.315 232.115 104.025 233.644C104.736 235.172 106.551 235.835 108.08 235.124L105.506 229.589ZM100.147 238.813C101.675 238.102 102.338 236.287 101.627 234.759C100.916 233.23 99.1013 232.568 97.5728 233.278L100.147 238.813ZM90.9415 236.362C89.4129 237.073 88.7501 238.888 89.4609 240.417C90.1717 241.945 91.9867 242.608 93.5153 241.897L90.9415 236.362ZM92.6378 219.53L97.7928 230.615L103.328 228.042L98.1728 216.956L92.6378 219.53ZM102.438 240.604L107.593 251.689L113.128 249.116L107.973 238.03L102.438 240.604ZM112.137 226.505L105.506 229.589L108.08 235.124L114.711 232.04L112.137 226.505ZM97.5728 233.278L90.9415 236.362L93.5153 241.897L100.147 238.813L97.5728 233.278Z" fill="black"/>
<path d="M232.231 206.541C231.52 205.013 229.705 204.35 228.177 205.06C226.649 205.771 225.986 207.586 226.696 209.115L232.231 206.541ZM231.851 220.2C232.562 221.729 234.377 222.392 235.906 221.681C237.434 220.97 238.097 219.155 237.386 217.626L231.851 220.2ZM242.031 227.615C241.32 226.087 239.505 225.424 237.977 226.135C236.449 226.845 235.786 228.661 236.496 230.189L242.031 227.615ZM241.651 241.274C242.362 242.803 244.177 243.466 245.706 242.755C247.234 242.044 247.897 240.229 247.186 238.7L241.651 241.274ZM248.769 221.625C250.298 220.914 250.961 219.099 250.25 217.571C249.539 216.042 247.724 215.379 246.196 216.09L248.769 221.625ZM239.564 219.174C238.036 219.885 237.373 221.7 238.084 223.228C238.795 224.757 240.61 225.42 242.138 224.709L239.564 219.174ZM234.205 228.398C235.733 227.687 236.396 225.872 235.686 224.343C234.975 222.815 233.16 222.152 231.631 222.863L234.205 228.398ZM225 225.947C223.471 226.658 222.808 228.473 223.519 230.001C224.23 231.529 226.045 232.192 227.574 231.482L225 225.947ZM226.696 209.115L231.851 220.2L237.386 217.626L232.231 206.541L226.696 209.115ZM236.496 230.189L241.651 241.274L247.186 238.7L242.031 227.615L236.496 230.189ZM246.196 216.09L239.564 219.174L242.138 224.709L248.769 221.625L246.196 216.09ZM231.631 222.863L225 225.947L227.574 231.482L234.205 228.398L231.631 222.863Z" fill="black"/>
<path d="M203.698 196.76C204.707 196.291 205.145 195.092 204.676 194.083C204.206 193.074 203.008 192.636 201.999 193.106C200.989 193.575 200.552 194.773 201.021 195.783C201.49 196.792 202.689 197.229 203.698 196.76Z" fill="black"/>
<path d="M261.944 149.124C262.953 148.655 263.391 147.456 262.921 146.447C262.452 145.438 261.254 145 260.244 145.469C259.235 145.939 258.798 147.137 259.267 148.146C259.736 149.155 260.935 149.593 261.944 149.124Z" fill="black"/>
<path d="M188.997 247.966C190.006 247.497 190.444 246.298 189.975 245.289C189.505 244.28 188.307 243.842 187.298 244.312C186.288 244.781 185.851 245.979 186.32 246.989C186.789 247.998 187.988 248.435 188.997 247.966Z" fill="black"/>
<path d="M135.614 180.624C136.623 180.154 137.06 178.956 136.591 177.947C136.122 176.938 134.923 176.5 133.914 176.969C132.905 177.438 132.467 178.637 132.937 179.646C133.406 180.655 134.604 181.093 135.614 180.624Z" fill="black"/>
<path d="M81.1663 268.254C82.1755 267.785 82.6131 266.586 82.1438 265.577C81.6746 264.568 80.476 264.13 79.4669 264.6C78.4577 265.069 78.0201 266.267 78.4894 267.276C78.9586 268.286 80.1572 268.723 81.1663 268.254Z" fill="black"/>
<path d="M47.222 4.50423C48.2311 4.03494 48.6688 2.83643 48.1995 1.82727C47.7302 0.818115 46.5317 0.380464 45.5225 0.849749C44.5134 1.31903 44.0757 2.51755 44.545 3.5267C45.0143 4.53586 46.2128 4.97351 47.222 4.50423Z" fill="black"/>
<path d="M153.537 37.7139C154.546 37.2447 154.984 36.0461 154.514 35.037C154.045 34.0278 152.846 33.5902 151.837 34.0595C150.828 34.5287 150.39 35.7273 150.86 36.7364C151.329 37.7456 152.528 38.1832 153.537 37.7139Z" fill="black"/>
<path d="M106.495 118.007C107.504 117.537 107.942 116.339 107.472 115.33C107.003 114.321 105.805 113.883 104.796 114.352C103.786 114.821 103.349 116.02 103.818 117.029C104.287 118.038 105.486 118.476 106.495 118.007Z" fill="black"/>
</svg>
