<svg width="594" height="556" viewBox="0 0 594 556" fill="none" xmlns="http://www.w3.org/2000/svg">
<g opacity="0.2">
<path d="M459.114 28.806C460.979 30.3513 571.624 89.7718 571.624 89.7718L538.046 163.348L459.114 28.806Z" stroke="white" stroke-width="2" stroke-miterlimit="10" stroke-linecap="round" stroke-linejoin="round"/>
<path d="M514.944 184.015L435.924 49.5527" stroke="white" stroke-width="2" stroke-miterlimit="10" stroke-linecap="round" stroke-linejoin="round"/>
<path d="M459.115 28.8057L435.923 49.5524" stroke="white" stroke-width="2" stroke-miterlimit="10" stroke-linecap="round" stroke-linejoin="round"/>
<path d="M538.046 163.348L514.944 184.015" stroke="white" stroke-width="2" stroke-miterlimit="10" stroke-linecap="round" stroke-linejoin="round"/>
</g>
<g opacity="0.3">
<path d="M359.001 531.475C359.767 513.605 402.419 495.863 415.636 507.989C416.083 508.436 419.594 511.69 419.467 516.477C419.084 533.581 373.622 551.642 361.938 539.644C358.873 536.517 359.001 532.305 359.001 531.475Z" stroke="white" stroke-miterlimit="10" stroke-linecap="round" stroke-linejoin="round"/>
<path d="M423.681 525.348C423.872 526.177 424 527.071 424 527.964C423.617 545.068 378.156 563.13 366.471 551.131C365.067 549.664 364.3 548.004 363.917 546.536" stroke="white" stroke-miterlimit="10" stroke-linecap="round" stroke-linejoin="round"/>
<path d="M364.684 530.071C365.833 517.498 399.162 503.776 408.932 511.882C409.251 512.137 411.869 514.371 411.613 517.753C410.847 529.815 375.346 543.856 366.663 535.751C364.428 533.645 364.62 530.645 364.684 530.071Z" stroke="white" stroke-miterlimit="10" stroke-linecap="round" stroke-linejoin="round"/>
<path d="M369.728 537.41C375.091 526.688 400.248 516.541 410.911 521.199" stroke="white" stroke-miterlimit="10" stroke-linecap="round" stroke-linejoin="round"/>
<path d="M359.576 535.623L364.556 548.579" stroke="white" stroke-miterlimit="10" stroke-linecap="round" stroke-linejoin="round"/>
<path d="M419.403 514.052L423.745 525.922" stroke="white" stroke-miterlimit="10" stroke-linecap="round" stroke-linejoin="round"/>
</g>
<g opacity="0.2">
<path d="M60.5116 170.189L3.49379 116.983L33.5123 97.4688L60.5116 170.189Z" stroke="white" stroke-width="2" stroke-miterlimit="10" stroke-linecap="round" stroke-linejoin="round"/>
<path d="M9.39406 111.899L39.3969 92.3126L66.3392 165.121" stroke="white" stroke-width="2" stroke-miterlimit="10" stroke-linecap="round" stroke-linejoin="round"/>
<path d="M60.5116 170.188L66.3393 165.121" stroke="white" stroke-width="2" stroke-miterlimit="10" stroke-linecap="round" stroke-linejoin="round"/>
<path d="M3.49377 116.983L9.39419 111.9" stroke="white" stroke-width="2" stroke-miterlimit="10" stroke-linecap="round" stroke-linejoin="round"/>
<path d="M33.5123 97.4688L39.397 92.3128" stroke="white" stroke-width="2" stroke-miterlimit="10" stroke-linecap="round" stroke-linejoin="round"/>
</g>
<path d="M186.4 318.2L102.6 474.5L63.4 450L147.1 293.6L186.4 318.2Z" stroke="white" stroke-width="0.75" stroke-miterlimit="10" stroke-linecap="round" stroke-linejoin="round"/>
<path d="M186.4 329.2L110.6 470.5" stroke="white" stroke-width="0.75" stroke-miterlimit="10" stroke-linecap="round" stroke-linejoin="round"/>
<path d="M155.2 289.6L186.3 309.1" stroke="white" stroke-width="0.75" stroke-miterlimit="10" stroke-linecap="round" stroke-linejoin="round"/>
<path d="M102.6 474.5L110.6 470.5" stroke="white" stroke-width="0.75" stroke-miterlimit="10" stroke-linecap="round" stroke-linejoin="round"/>
<path d="M147.1 293.6L155.2 289.6" stroke="white" stroke-width="0.75" stroke-miterlimit="10" stroke-linecap="round" stroke-linejoin="round"/>
<path d="M382.4 240.9C332.4 240.9 282.3 240.9 232.3 240.9" stroke="white" stroke-width="0.75" stroke-miterlimit="10" stroke-linecap="round" stroke-linejoin="round"/>
<path d="M418.2 220.9C418.1 227.6 418.1 234.2 418 240.9C414.7 240.9 411.5 240.9 408.2 240.9" stroke="white" stroke-width="0.75" stroke-miterlimit="10" stroke-linecap="round" stroke-linejoin="round"/>
<path d="M418 171.9C417.9 176.7 417.9 181.4 417.8 186.2" stroke="white" stroke-width="0.75" stroke-miterlimit="10" stroke-linecap="round" stroke-linejoin="round"/>
<path d="M229.5 236.7L232.2 240.9" stroke="white" stroke-width="0.75" stroke-miterlimit="10" stroke-linecap="round" stroke-linejoin="round"/>
<path d="M415.3 236.7L418 240.9" stroke="white" stroke-width="0.75" stroke-miterlimit="10" stroke-linecap="round" stroke-linejoin="round"/>
<path d="M415.3 167.7C416.2 169.1 417.1 170.6 418 172L415.3 167.7Z" fill="white"/>
<path d="M415.3 167.7C416.2 169.1 417.1 170.6 418 172" stroke="white" stroke-width="0.75" stroke-miterlimit="10" stroke-linecap="round" stroke-linejoin="round"/>
<path d="M394.9 236.7C339.8 236.7 284.6 236.7 229.5 236.7V167.7H415.3C415.3 178.8 415.3 190 415.3 201.1C415.3 202.9 415.3 204.7 415.3 206.5" stroke="white" stroke-width="0.75" stroke-miterlimit="10" stroke-linecap="round" stroke-linejoin="round"/>
<path d="M415.3 213.4V236.7H401.1" stroke="white" stroke-width="0.75" stroke-miterlimit="10" stroke-linecap="round" stroke-linejoin="round"/>
<path d="M473.731 469.928C474.931 468.828 476.731 467.328 479.131 465.828C482.531 463.628 484.231 462.528 485.531 463.328C486.931 464.128 486.231 466.528 487.931 469.728C489.031 471.728 490.531 473.028 491.431 473.728C491.731 474.728 492.031 476.128 491.731 477.728C490.931 482.228 486.731 483.028 482.331 487.628C478.331 491.828 478.531 494.628 476.331 498.228C475.131 500.228 474.431 500.928 473.931 501.328C472.631 502.428 471.331 502.828 470.531 503.028C467.631 503.828 465.031 503.228 463.531 502.728C462.831 501.728 462.131 500.528 462.431 499.328C462.731 498.128 464.031 497.728 464.831 497.328C467.231 496.028 468.131 493.128 469.631 487.828C470.631 484.528 471.731 479.428 471.831 473.028" stroke="white" stroke-width="0.75" stroke-miterlimit="10" stroke-linecap="round" stroke-linejoin="round"/>
<path d="M478.131 461.728C474.931 461.828 472.231 459.928 472.131 460.228C472.031 460.428 472.631 460.628 473.131 461.428C473.631 462.228 473.331 463.028 473.531 464.428C473.831 466.528 473.731 468.228 473.731 469.928C473.731 471.028 473.631 471.928 473.531 472.628C473.831 472.828 474.231 473.228 474.831 473.428C475.231 473.628 476.431 474.028 478.931 472.928C480.731 472.128 483.731 470.928 484.331 468.128C484.431 467.728 484.331 467.828 484.331 465.828C484.331 461.328 484.631 460.828 484.131 460.328C483.231 459.428 481.531 461.728 478.131 461.728Z" fill="#3848D8"/>
<path d="M471.831 472.828C471.931 472.428 472.031 471.828 471.831 471.428C471.631 471.128 471.331 471.028 470.931 470.828C470.031 470.328 469.331 469.228 469.531 468.728C469.731 468.028 472.731 468.028 473.531 469.428C474.131 470.528 473.031 471.628 473.531 472.528C474.431 474.128 479.031 473.528 481.931 471.128C482.631 470.528 484.731 468.828 484.631 466.728C484.631 466.728 484.631 466.628 484.631 466.428C484.231 463.628 484.031 463.028 483.931 461.928C483.831 460.428 483.731 459.428 484.331 459.028C485.131 458.528 486.731 459.428 486.831 460.128C486.831 460.628 486.231 460.728 485.231 461.828C484.731 462.328 484.431 462.828 484.231 463.228" stroke="white" stroke-width="0.75" stroke-miterlimit="10" stroke-linecap="round" stroke-linejoin="round"/>
<path d="M473.431 471.928C473.231 475.628 473.231 478.628 473.331 480.628C473.431 483.928 473.731 486.128 472.531 487.128C471.731 487.728 470.631 487.528 469.831 487.328" stroke="white" stroke-width="0.75" stroke-miterlimit="10" stroke-linecap="round" stroke-linejoin="round"/>
<path d="M462.431 500.528C462.331 501.128 462.231 502.628 463.131 503.728C464.031 504.728 465.331 504.728 467.231 504.628C468.931 504.528 470.631 504.528 472.631 503.428C475.031 502.028 476.331 500.028 477.231 498.528C478.031 497.128 478.531 496.128 479.031 494.728C479.731 492.928 479.631 492.128 480.831 490.428C482.631 487.828 489.131 485.728 491.231 482.428C492.131 481.028 492.831 478.528 491.431 473.828" stroke="white" stroke-width="0.75" stroke-miterlimit="10" stroke-linecap="round" stroke-linejoin="round"/>
<path d="M449.531 467.327C450.531 466.227 452.031 464.627 454.131 463.027C457.031 460.627 458.531 459.427 459.731 460.027C461.131 460.627 460.731 462.827 462.531 465.527C463.731 467.227 465.131 468.227 466.131 468.727C466.431 469.527 466.831 470.827 466.731 472.327C466.431 476.527 462.631 477.727 459.131 482.427C455.931 486.627 456.331 489.327 454.631 492.727C453.731 494.627 453.131 495.427 452.731 495.827C451.631 496.927 450.431 497.427 449.731 497.727C447.131 498.827 444.731 498.527 443.331 498.227C442.631 497.427 441.831 496.327 442.031 495.227C442.231 494.127 443.331 493.527 444.031 493.127C446.131 491.727 446.631 488.927 447.531 483.927C448.131 480.827 448.631 476.027 448.131 470.127" stroke="white" stroke-width="0.75" stroke-miterlimit="10" stroke-linecap="round" stroke-linejoin="round"/>
<path d="M457.031 456.027C456.931 456.027 457.031 456.727 457.131 457.427C456.831 457.727 456.231 458.227 455.531 458.627C454.931 458.927 453.331 459.727 451.231 459.227C449.431 458.827 448.231 457.727 447.831 457.227C448.931 458.927 449.331 460.527 449.531 461.527C449.731 463.127 449.531 464.127 449.531 467.327C449.531 468.327 449.631 469.227 449.631 469.727C449.931 469.927 450.331 470.127 450.831 470.327C451.231 470.427 452.331 470.627 454.531 469.427C456.131 468.527 458.731 467.027 459.031 464.427C459.131 463.827 459.031 463.327 458.831 462.327C458.431 460.227 458.431 458.927 457.731 457.627C457.631 457.427 457.131 456.027 457.031 456.027Z" fill="#3848D8"/>
<path d="M448.131 470.127C448.231 469.727 448.231 469.227 447.931 468.927C447.731 468.627 447.431 468.627 447.031 468.527C446.131 468.227 445.431 467.227 445.531 466.727C445.731 466.127 448.331 465.727 449.231 466.927C449.931 467.827 448.931 468.927 449.531 469.727C450.531 471.027 454.631 470.027 457.031 467.527C457.631 466.927 459.431 465.027 459.031 463.227C459.031 463.227 459.031 463.127 458.931 462.927C458.231 460.427 458.031 459.927 457.831 458.927C457.631 457.627 457.431 456.627 457.931 456.227C458.631 455.627 460.231 456.327 460.231 457.027C460.331 457.427 459.731 457.627 458.931 458.827C458.531 459.327 458.331 459.827 458.131 460.227" stroke="white" stroke-width="0.75" stroke-miterlimit="10" stroke-linecap="round" stroke-linejoin="round"/>
<path d="M449.431 469.127C449.531 472.527 449.831 475.227 450.131 477.127C450.531 480.127 451.031 482.127 450.031 483.127C449.331 483.727 448.331 483.727 447.631 483.527" stroke="white" stroke-width="0.75" stroke-miterlimit="10" stroke-linecap="round" stroke-linejoin="round"/>
<path d="M442.131 496.427C442.131 497.027 442.231 498.427 443.131 499.227C444.031 500.027 445.231 499.927 446.931 499.627C448.431 499.427 450.031 499.127 451.731 497.927C453.831 496.427 454.731 494.427 455.431 492.927C456.031 491.627 456.431 490.627 456.731 489.227C457.131 487.527 457.031 486.727 457.931 485.127C459.331 482.627 465.031 479.927 466.631 476.627C467.331 475.227 467.731 472.927 466.031 468.827" stroke="white" stroke-width="0.75" stroke-miterlimit="10" stroke-linecap="round" stroke-linejoin="round"/>
<path d="M229.5 171.9H206.8V250.4H388.7V242.6" stroke="white" stroke-width="0.75" stroke-miterlimit="10" stroke-linecap="round" stroke-linejoin="round" stroke-dasharray="12 12"/>
<path d="M423.4 217.6C422.8 214.2 423.8 213 423.5 209.3C423.4 207.8 423.1 205.7 422.2 203.2C421.7 206.8 421.6 207.6 421.5 207.6C421.5 207.6 422.2 204.1 422 199.7C421.8 195.9 421 191.9 420.4 191.9C420 191.9 419.6 194.4 419.6 205.4C418.5 189.8 418 186.3 417.7 186.3C417.4 186.3 417 192.7 416.7 198.8C416.6 202.9 416.5 206.2 415.2 206.7C414.6 206.9 414.1 206.4 412.2 205.5C412 205.4 407.7 203.4 407.2 204.1C406.7 205 413.1 207.9 415.5 214.9C416.5 217.7 416.2 219.4 418 221.1C420 223.1 423.4 223.8 424.2 222.6C425 221.7 423.9 220.6 423.4 217.6Z" stroke="white" stroke-width="0.75" stroke-miterlimit="10" stroke-linecap="round" stroke-linejoin="round"/>
<path d="M404.2 245.4C401.3 244.6 400.2 245.4 396.9 244.9C395.6 244.7 393.8 244.3 391.6 243.1C394.8 242.8 395.5 242.8 395.5 242.7C395.5 242.7 392.4 243.1 388.6 242.6C385.3 242.2 381.8 241 381.9 240.5C382 240.1 384.1 239.9 393.7 240.6C380.2 238.3 377.1 237.5 377.2 237.3C377.2 237 382.8 237 388.2 237.2C391.8 237.3 394.6 237.6 395.2 236.2C395.5 235.6 395 235.1 394.4 233C394.3 232.8 392.9 228.2 393.6 227.9C394.4 227.4 396.5 234.2 402.4 237.2C404.7 238.4 406.3 238.3 407.6 240.1C409.2 242.3 409.6 245.8 408.5 246.6C407.6 247.3 406.8 246.1 404.2 245.4Z" stroke="white" stroke-width="0.75" stroke-miterlimit="10" stroke-linecap="round" stroke-linejoin="round"/>
<path d="M443.2 344C442.2 357.9 441.7 373.6 442.4 390.7C443.3 412.4 445.8 431.7 448.9 448.2C447.4 448.9 445.8 449.6 444.3 450.3C445.7 451 447 451.6 448.4 452.3C447.6 453.4 446.8 454.5 446.1 455.7C446.8 456.5 447.6 457.3 448.3 458C448.7 458.4 450.3 459.8 452.9 459.8C455.3 459.7 456.9 458.3 457.3 457.9C457.4 456.9 457.4 455.9 457.5 454.9C458.8 454.9 460.2 454.9 461.5 454.9C460.5 453.3 459.5 451.6 458.6 450C457.9 436.3 457.8 421.7 458.5 406.2C458.8 400 459.1 394 459.6 388.1" stroke="white" stroke-width="0.75" stroke-miterlimit="10" stroke-linecap="round" stroke-linejoin="round"/>
<path d="M453.5 342.6C454.9 358 457 374.7 460.2 392.4C464.1 414.5 469 434.6 474.2 452.4C472.7 453.4 471.1 454.4 469.6 455.4C471.1 455.9 472.7 456.4 474.2 456.9C473.5 458.2 472.9 459.5 472.2 460.8C473.3 461.4 475.5 462.3 478.2 462.3C481 462.3 483.1 461.5 484.3 460.9C483.9 459.8 483.4 458.6 483 457.5C484.6 455.8 486.2 454.1 487.8 452.4C486.3 452 484.8 451.7 483.3 451.3C479.3 426 476.6 397.6 476.4 366.6C476.3 356.7 476.5 347.2 476.9 337.9C469.1 339.5 461.3 341.1 453.5 342.6Z" stroke="white" stroke-width="0.75" stroke-miterlimit="10" stroke-linecap="round" stroke-linejoin="round"/>
<path d="M419.2 221.2C419.3 220.5 419.6 218.8 420.9 217.3C422.5 215.4 424.6 215 425.1 214.9C431.6 227.1 438 239.3 444.5 251.5C443.9 254.9 443.1 258.4 442.1 262C441.9 262.7 441.7 263.5 441.5 264.2C442.2 265.2 443.4 266.7 445.4 268C447.2 269.1 448.9 269.5 449.9 269.7C449.9 270 449.9 270.3 449.8 270.6C450.1 271.4 450.8 272.5 451.9 273.2C454 274.5 457.1 273.7 459.4 271.3C460.2 271.9 461.3 272.8 462.5 274.2C467.6 280.3 466.7 287.4 468.7 296.8C468.9 297.5 470.9 303.1 474.9 314.1C478.8 324.8 480.6 330.7 479.1 337.9C478.8 339.2 478.3 340.4 477.5 341.8C470.1 354 445.3 355.1 439.2 345.7C437.1 342.5 437.4 338.9 437.8 334.7C438.8 323.4 440.3 308.5 442.7 290.9C437.4 288.8 427.7 284 418.8 273.9C410.6 264.6 406.6 255 404.8 249.3C404.3 247.5 404.8 245.6 406 244.4C407.2 243.3 408.5 243.3 408.9 243.3C414.2 251 422.4 260.6 434.2 268.6C438.1 271.2 441.9 273.4 445.4 275.1C445.7 274.5 446 273.9 446.3 273.2C442.4 268.7 438.2 263.3 434.1 256.8C426.1 243.5 421.7 230.8 419.2 221.2Z" fill="white"/>
<path d="M450 270.3C450 270.8 450 271.2 450 271.7C450.3 272.4 450.8 273.4 451.7 274C454 275.6 457.4 274.9 458.8 272.9C458.9 272.7 459 272.5 459 272.5C459.6 271.4 459.7 270.3 459.7 269.6" stroke="white" stroke-width="0.75" stroke-miterlimit="10" stroke-linecap="round" stroke-linejoin="round"/>
<path d="M455 269.9C452.9 270.1 451.2 269.8 450 269.6C444.4 268.4 441.6 264.8 441.6 264.1C441.6 263.7 441.7 263.5 442 262.6C442.3 261.6 442.9 258.5 443.3 256.3C443.5 255.1 443.9 253.5 444.5 251.5C443.7 250.1 442.8 248.4 443.3 247.7C443.7 247.3 444.3 247.7 445.2 247.7C448.9 247.6 449.8 238.2 455.2 236.4C455.7 236.2 456.2 236.2 456.4 236.1" stroke="white" stroke-width="0.75" stroke-miterlimit="10" stroke-linecap="round" stroke-linejoin="round"/>
<path d="M447.3 249.6C448.4 247.8 449.6 246 450.7 244.2C452.3 243.9 453.9 243.6 455.5 243.3C454.1 245.9 452.8 248.5 451.5 251.2C450.1 250.6 448.7 250.1 447.3 249.6Z" stroke="white" stroke-width="0.75" stroke-miterlimit="10" stroke-linecap="round" stroke-linejoin="round"/>
<path d="M451.7 246.7C450.8 248.8 449.1 250 448.9 249.7C448.5 249.3 451.8 244.1 452.2 244.4C452.5 244.6 452 245.9 451.7 246.7Z" fill="white"/>
<path d="M445.2 260.1C446 260.1 447.5 260 448.8 258.9C449.1 258.7 449.3 258.4 449.5 258.2" stroke="white" stroke-width="0.75" stroke-miterlimit="10" stroke-linecap="round" stroke-linejoin="round"/>
<path d="M457.1 256C457.7 256.1 459.7 256.3 461.4 254.8C462.7 253.5 463.9 251 463.1 249.7C462.4 248.5 460.3 249 460 249.1" stroke="white" stroke-width="0.75" stroke-miterlimit="10" stroke-linecap="round" stroke-linejoin="round"/>
<path d="M459 256C460.5 260 460.4 262.6 459.8 264.3C459.5 265.1 458.9 266.7 459 268.9C459 270 459.2 271 459.4 271.6C459.8 271.7 460.3 271.9 460.7 272C460.5 271.3 460.5 270.7 460.5 270.3C460.5 270.2 460.6 269.7 460.7 269.3C461.3 268 462.8 268.5 464.2 267.1C464.9 266.4 464.6 266.2 465.4 265.4C466.3 264.5 467.2 264.2 468.1 263.8C468.1 263.8 469.9 263.1 472.1 262C475.3 260.4 477.3 257.7 478.3 256.3C479.3 254.9 480.2 253.7 480.7 251.8C481.9 247.8 480.6 244.2 480.2 243C478.6 238.4 475.4 236.1 468.9 231.5C462.5 226.9 459.2 226.1 458.7 226.9C458.5 227.2 458.7 227.9 458.3 228.2C457.8 228.6 457.1 227.7 456.5 228C456 228.2 456.2 228.7 455.8 229.1C454.7 230.1 451.9 227.6 451.6 228.1C451.5 228.4 452.6 229.2 452.5 230.1C452.4 231 450.8 231 450.7 231.9C450.6 232.6 451.5 233 451.5 233.9C451.6 235 450.5 235.4 450.7 235.9C450.9 236.5 452.5 235.9 454.1 236.2C456.9 236.8 458.7 240.1 458.9 240.5C461.1 244.6 459.9 248.9 459.7 249.3C460 249.2 460.5 249 461.2 249.2C461.5 249.3 462.3 249.4 462.7 250C463.6 251.2 462.3 254.5 460 255.8C459.8 255.8 459.3 255.9 459 256Z" fill="white"/>
<path d="M452.3 241.6C452.8 241.4 453.8 241 455.1 241.2C455.8 241.3 456.4 241.5 456.8 241.8" stroke="white" stroke-width="0.75" stroke-miterlimit="10" stroke-linecap="round" stroke-linejoin="round"/>
<path d="M448 244.8C448.7 244.9 449.4 245.1 450.1 245.2" stroke="white" stroke-width="0.75" stroke-miterlimit="10" stroke-linecap="round" stroke-linejoin="round"/>
<path d="M455.5 243.3C457.2 245.1 459 246.9 460.7 248.6" stroke="white" stroke-width="0.75" stroke-miterlimit="10" stroke-linecap="round" stroke-linejoin="round"/>
<path d="M467.4 347.2C467.5 349.2 467.7 351.9 468.6 354.9C469.2 357 470 358.8 470.7 360.2C470.7 360.6 470.5 361.2 470.1 361.4C468.8 362.1 465.5 359.2 463.8 356.8C461.2 353.2 461 349 461.2 345.9" stroke="white" stroke-width="0.75" stroke-miterlimit="10" stroke-linecap="round" stroke-linejoin="round"/>
<path d="M451.3 339.4C450.5 338.4 444.9 331.6 447.2 325.3C447.5 324.6 447.8 323.9 448.4 323.1" stroke="white" stroke-width="0.75" stroke-miterlimit="10" stroke-linecap="round" stroke-linejoin="round"/>
<path d="M271.7 479.9H218.4C200.7 479.9 186.3 465.5 186.3 447.8V53.3998C186.3 35.6998 200.7 21.2998 218.4 21.2998H379.9C397.6 21.2998 412 35.6998 412 53.3998V167.6" stroke="white" stroke-width="0.75"/>
<path d="M411.9 241.4V447.8C411.9 465.5 397.5 479.9 379.8 479.9H338.3" stroke="white" stroke-width="0.75"/>
<path d="M272.3 474.4H220C204 474.4 190.9 461.4 190.9 445.3V55.3998C190.9 39.3998 203.9 26.2998 220 26.2998H377.5C393.5 26.2998 406.6 39.2998 406.6 55.3998V167.7" stroke="white" stroke-width="0.75"/>
<path d="M406.5 252.5V445.3C406.5 461.3 393.5 474.4 377.4 474.4H338.7" stroke="white" stroke-width="0.75"/>
<path d="M273.1 466.7H219.5C208.5 466.7 199.5 457.7 199.5 446.7V54.2998C199.5 43.2998 208.5 34.2998 219.5 34.2998H239.8C241.6 34.2998 243 35.7998 243.2 37.4998C243.7 42.0998 246 49.9998 255.7 50.1998C269.5 50.4998 330.9 50.1998 343 50.1998C351.7 50.1998 353.8 41.9998 354.3 37.3998C354.5 35.6998 355.9 34.2998 357.6 34.2998H378.4C389.4 34.2998 398.4 43.2998 398.4 54.2998V167.7" stroke="white" stroke-width="0.75"/>
<path d="M398.4 245.1V446.7C398.4 457.7 389.4 466.7 378.4 466.7H339.3" stroke="white" stroke-width="0.75"/>
<path d="M184.6 158.8C184.6 158.1 185.1 157.6 185.8 157.6H186V191.2H185.8C185.1 191.2 184.6 190.7 184.6 190V158.8Z" fill="white"/>
<path d="M184.6 116.7C184.6 116 185.1 115.5 185.8 115.5H186V149.1H185.8C185.1 149.1 184.6 148.6 184.6 147.9V116.7Z" fill="white"/>
<path d="M184.6 83.8001C184.6 83.1001 185.1 82.6001 185.8 82.6001H186V100.3H185.8C185.1 100.3 184.6 99.8001 184.6 99.1001V83.8001Z" fill="white"/>
<path d="M412.1 167.7V126.7H412.3C413 126.7 413.5 127.2 413.5 127.9V167.7" fill="white"/>
<path d="M287.1 37.8999H309.5C310.4 37.8999 311.1 38.5999 311.1 39.4999C311.1 40.3999 310.4 41.0999 309.5 41.0999H287.1C286.2 41.0999 285.5 40.3999 285.5 39.4999C285.5 38.5999 286.3 37.8999 287.1 37.8999Z" stroke="white" stroke-width="0.75"/>
<path d="M323.3 43.0999C325.3 43.0999 326.9 41.4999 326.9 39.4999C326.9 37.4999 325.3 35.8999 323.3 35.8999C321.3 35.8999 319.7 37.4999 319.7 39.4999C319.7 41.4999 321.3 43.0999 323.3 43.0999Z" stroke="white" stroke-width="0.75"/>
<path opacity="0.35" d="M379.2 43.2998H388.2C388.9 43.2998 389.5 43.8998 389.5 44.5998V47.6998C389.5 48.3998 388.9 48.9998 388.2 48.9998H379.2C378.5 48.9998 377.9 48.3998 377.9 47.6998V44.5998C377.9 43.8998 378.5 43.2998 379.2 43.2998Z" stroke="white"/>
<path fill-rule="evenodd" clip-rule="evenodd" d="M379.5 44.1001C379.1 44.1001 378.7 44.5001 378.7 44.9001V47.4001C378.7 47.8001 379.1 48.2001 379.5 48.2001H387.9C388.3 48.2001 388.7 47.8001 388.7 47.4001V44.9001C388.7 44.5001 388.3 44.1001 387.9 44.1001H379.5ZM390.4 47.2001V45.0001C390.8 45.2001 391.1 45.6001 391.1 46.1001C391.1 46.6001 390.8 47.1001 390.4 47.2001Z" fill="white"/>
<path fill-rule="evenodd" clip-rule="evenodd" d="M371.2 44.1999C372.4 44.1999 373.5 44.5999 374.3 45.3999C374.4 45.4999 374.5 45.4999 374.5 45.3999L375.1 44.7999V44.6999C375.1 44.6999 375.1 44.5999 375 44.5999C372.8 42.4999 369.3 42.4999 367.1 44.5999C367.1 44.5999 367.1 44.6999 367 44.6999V44.7999L367.6 45.3999C367.7 45.4999 367.8 45.4999 367.8 45.3999C368.9 44.5999 370 44.1999 371.2 44.1999ZM371.2 46.1999C371.8 46.1999 372.5 46.3999 372.9 46.8999C373 46.9999 373.1 46.9999 373.1 46.8999L373.7 46.2999C373.7 46.2999 373.8 46.1999 373.7 46.1999C373.6 46.1999 373.7 46.0999 373.6 46.0999C372.2 44.7999 369.9 44.7999 368.5 46.0999L368.4 46.1999V46.2999L369 46.8999C369.1 46.9999 369.2 46.9999 369.2 46.8999C369.9 46.3999 370.6 46.1999 371.2 46.1999ZM372.4 47.4999V47.5999L371.4 48.6999H371.3H371.2L370.2 47.5999C370.2 47.5999 370.1 47.4999 370.2 47.4999C370.2 47.4999 370.2 47.3999 370.3 47.3999C371 46.7999 371.9 46.7999 372.6 47.3999C372.4 47.3999 372.4 47.4999 372.4 47.4999Z" fill="white"/>
<path fill-rule="evenodd" clip-rule="evenodd" d="M364.2 43.2002H363.7C363.4 43.2002 363.2 43.4002 363.2 43.7002V48.3002C363.2 48.6002 363.4 48.8002 363.7 48.8002H364.2C364.5 48.8002 364.7 48.6002 364.7 48.3002V43.7002C364.8 43.5002 364.5 43.2002 364.2 43.2002ZM361.2 44.5002H361.7C362 44.5002 362.2 44.7002 362.2 45.0002V48.4002C362.2 48.7002 362 48.9002 361.7 48.9002H361.2C360.9 48.9002 360.7 48.7002 360.7 48.4002V45.0002C360.7 44.7002 360.9 44.5002 361.2 44.5002ZM359.3 45.7002H358.8C358.5 45.7002 358.3 45.9002 358.3 46.2002V48.3002C358.3 48.6002 358.5 48.8002 358.8 48.8002H359.3C359.6 48.8002 359.8 48.6002 359.8 48.3002V46.2002C359.8 45.9002 359.6 45.7002 359.3 45.7002ZM356.8 46.8002H356.3C356 46.8002 355.8 47.0002 355.8 47.3002V48.4002C355.8 48.7002 356 48.9002 356.3 48.9002H356.8C357.1 48.9002 357.3 48.7002 357.3 48.4002V47.3002C357.3 47.0002 357.1 46.8002 356.8 46.8002Z" fill="white"/>
<path d="M279.8 405.4L267.5 518.1L330.9 524.2L339.8 405.4H279.8Z" stroke="white" stroke-width="0.75" stroke-miterlimit="10" stroke-linecap="round" stroke-linejoin="round"/>
<path d="M271 525.8L334.4 531.9L343.3 413.1" stroke="white" stroke-width="0.75" stroke-miterlimit="10" stroke-linecap="round" stroke-linejoin="round"/>
<path d="M267.5 518.1L271 525.8" stroke="white" stroke-width="0.75" stroke-miterlimit="10" stroke-linecap="round" stroke-linejoin="round"/>
<path d="M330.9 524.2L334.4 531.9" stroke="white" stroke-width="0.75" stroke-miterlimit="10" stroke-linecap="round" stroke-linejoin="round"/>
<path d="M339.8 405.4L343.3 413.1" stroke="white" stroke-width="0.75" stroke-miterlimit="10" stroke-linecap="round" stroke-linejoin="round"/>
<path d="M248.6 198.4L242.2 203.2L248.6 206.7" stroke="white" stroke-width="0.75" stroke-miterlimit="10" stroke-linecap="round" stroke-linejoin="round"/>
<path d="M269 198.4L275.4 203.2L269 206.7" stroke="white" stroke-width="0.75" stroke-miterlimit="10" stroke-linecap="round" stroke-linejoin="round"/>
<path d="M289.7 210.5C291.6 205.4 293.6 200.3 295.5 195.2" stroke="white" stroke-width="0.75" stroke-miterlimit="10" stroke-linecap="round" stroke-linejoin="round"/>
<path d="M287 198.4L280.6 203.2L287 206.7" stroke="white" stroke-width="0.75" stroke-miterlimit="10" stroke-linecap="round" stroke-linejoin="round"/>
<path d="M311.5 198.4L317.8 203.2L311.5 206.7" stroke="white" stroke-width="0.75" stroke-miterlimit="10" stroke-linecap="round" stroke-linejoin="round"/>
</svg>
