<?xml version="1.0" encoding="utf-8"?>
<!-- Generator: Adobe Illustrator 24.0.0, SVG Export Plug-In . SVG Version: 6.00 Build 0)  -->
<svg version="1.1" id="Layer_1" xmlns="http://www.w3.org/2000/svg" xmlns:xlink="http://www.w3.org/1999/xlink" x="0px" y="0px"
	 viewBox="0 0 950 627" style="enable-background:new 0 0 950 627;" xml:space="preserve">
<style type="text/css">
	.st0{fill:#FFFFFF;}
	.st1{filter:url(#Adobe_OpacityMaskFilter);}
	.st2{mask:url(#mask0_1_);}
	.st3{fill:none;stroke:#FFFFFF;stroke-width:2;}
	.st4{fill:none;stroke:#FFFFFF;stroke-width:2;stroke-linecap:round;stroke-linejoin:round;}
	.st5{fill:none;stroke:#000000;stroke-width:2;stroke-linecap:round;stroke-linejoin:round;}
	.st6{fill:none;stroke:#000000;stroke-width:2;}
	.st7{fill:#FFFFFF;stroke:#000000;stroke-width:2;}
	.st8{fill:#FFFFFF;stroke:#000000;stroke-width:2;stroke-linejoin:round;}
	.st9{fill:none;stroke:#000000;stroke-width:2;stroke-linejoin:round;}
</style>
<path class="st0" d="M488.5,387.2l18.5-14.5l32.7,54.6l-31.4,15.5c2.5,3.2,3.1,14-14.4,31.7c-21.8,22.1-64.8,33.6-91.4,43.8
	c-26.5,10.2-83.8,16.5-112.9,19.7c-23.3,2.5-57.3-4.6-71.4-8.5c2.7,14,8.3,44.3,8.8,53.3s-7.5,17.9-11.5,21.2L15.2,623.3
	c1.6-3.2,5.1-16.1,6.8-41.8c2.1-32.1-4.4-93.8-4.4-114.6c0-20.8,0.6-72.7,2.6-99.3c1.6-21.2,8.1-50.5,11.2-62.4l-21.1-22
	c-6.3-8.4-14.1-30.4,4.8-50.6c18.9-20.2,57.1-21.9,73.8-20.2l6.4-17.9v-5.2l-3.9-12.4c-5.8-22.2-4.5-31.3,0-45.8
	c0.1-8.5,2.8-25.9,13.6-27c13.5-1.4,28.2-1.8,30.3-6.4c2.1-4.5,7.1-35.9,6.1-52.4c8-2.2,25.3-5.5,30.2-1.7
	c4.8,3.9,26.1,41.2,36.1,59.3l18.2-4.1l9.8,34.3l-16.2,6.7c1.8,9.7,0.8,44.4,0,60.5c6.3-2.6,21.5-9.4,32.4-15.9
	c10.9-6.5,22.5-6.5,27-5.6l13.2-14.2h7.7l12.4-11.8c1.5-2.8,4.5-9.8,4.5-15.2V102c0.5-6.4,2.7-19.4,8-20c5.3-0.6,8.9,16.4,10,25
	c2.2-6.4,10.1-19.4,24.5-20.5c14.4-1.1,22.5,13.2,24.7,20.5c6.6-4.4,28.3,9.6,23.8,17.8c-4.5,8.2-13.4-5.4-23.8,4
	c-1.6,6.4-6.9,8.5-9.4,8.8c-4.6,10.6-15.8,32.5-23.9,35c-8.1,2.5-19.1,11.4-23.6,15.5l4.7,13L315.2,217
	c6.7,39.6-54.4,64.7-122.1,105.5c9,29.5,13.6,46.4,13.3,83.2c6.2,11.8,33,19.2,50,20.3c17,1.1,62.9-10.9,102.4-26.5
	c39.5-15.6,79.7-26.5,96.8-28.6C469.4,369.1,483.3,381,488.5,387.2z"/>
<path class="st0" d="M559,400.1c-14.1-0.5-17.6,5.8-24.9,9.4l-13.2-25.9c7-4.2,15.9-20,15.9-20s4.9-8,15.5-20.3
	c8.4-9.9,19.3-15,26.2-16.5c2.5,0,7.3,3.5,1.8,8.9c-7,6.8-12,16.3-11.6,21.1c0.3,3.9,12.3-0.4,18.2-3c-1.2-4,1.2-7.2,2.5-8.3
	l1.4-4.5c0.9-1.2,3.8-3.5,8.2-3.5c5.6-0.1,12.1,5.1,15.8,2.3c3.7-2.8,5.6-21,15.1-18.1c7.7,2.3-0.3,21.7-5.3,31
	c4.2,8.4-2.2,16.3-5.8,19.3c3.7,2.4,2.7,14.1-14.8,21C586.5,400,573.1,400.6,559,400.1z"/>
<path class="st0" d="M206.8,149.6l-25.2,12.9l-8.8-58.6L206.8,149.6z"/>
<path class="st0" d="M510.2,443.2l27.9-16.1c-4.3-26.7-11.2-38.4-30.2-54.5l-19.8,14.7L510.2,443.2z"/>
<path class="st0" d="M310.2,227.1l22.9-24.5c-12.9-23.6-15.4-30.2-38.7-39l-19.7,20.8L310.2,227.1z"/>
<path d="M487.7,388.8c14.1,14.6,20.1,41.6,21.4,53.2c-0.3,15.5-17.3,40.8-53.6,59.2c-36.4,18.4-98.8,36.9-139.7,45.2
	c-40.9,8.3-80.8,2.7-95.3-1.8c0,0,7.4,33.1,5.7,43c-1.3,7.9-9,16.5-12.7,19.9l-196.6,7.1c2-9.2,6.1-30.8,6.1-44
	c0-16.5-1.8-67.6-6.1-138c-3.4-56.3,8.8-108.3,15.3-127.2c-2.4-1.2-9.6-6.2-19.1-17c-11.8-13.5-15.1-30.9,0-54.1
	c12.1-18.6,54.4-23,74.1-22.9c-1.3,7.4-13.8,25.6-19.8,33.8l9.2,12.3c6.2-2.5,22.2-7.8,36.5-8.8c14.3-1,30.4,8,36.7,12.6l34.2-33.8
	c6.1-1.6,19.9-5.4,26.2-8c6.3-2.7,8.2-13.5,8.3-18.7c11.2-6.1,37-19,51.2-22.4c14.2-3.4,29.3,10.7,35.1,18.2
	c6.1,6.9,14.5,26.5,0,49.6c-14.5,23.1-80.5,60.4-111.6,76.1c5.1,15.9,11.1,51.5,13.5,67.3c-1.5,2.9-2.3,11.4,6.8,22
	c11.4,13.2,37.1,15.2,51.5,14.9c14.4-0.3,92.3-22.4,117.6-36.1c20.2-10.9,58.4-17.7,75-19.7C461.8,370.6,473.7,374.3,487.7,388.8z"
	/>
<path d="M236.1,133.3l-33.8,10.6l-22.1-33.2l46.2-11.1L236.1,133.3z"/>
<path d="M172.3,112.5l2.3,37.4l-51.8,12.9l-9.7-34.6L172.3,112.5z"/>
<defs>
	<filter id="Adobe_OpacityMaskFilter" filterUnits="userSpaceOnUse" x="99.9" y="92" width="151.4" height="66">
		<feColorMatrix  type="matrix" values="1 0 0 0 0  0 1 0 0 0  0 0 1 0 0  0 0 0 1 0"/>
	</filter>
</defs>
<mask maskUnits="userSpaceOnUse" x="99.9" y="92" width="151.4" height="66" id="mask0_1_">
	<path class="st1" d="M236.1,133.3l-33.8,10.6l-22.1-33.2l46.2-11.1L236.1,133.3z"/>
	<path d="M172.3,112.5l2.3,37.4l-51.8,12.9l-9.7-34.6L172.3,112.5z"/>
</mask>
<g class="st2">
	<path class="st3" d="M250.8,137.4l-73.5-44.6 M184.1,150.4l-73.5-44.6 M240.7,144l-73.5-44.6 M174,157.1l-73.5-44.6"/>
</g>
<path d="M142.3,45.5h-1c0-0.5,0.3-0.9,0.8-1L142.3,45.5z M173.1,45.5l0.5-0.8L173.1,45.5z M213.1,216.9l0.7,0.7L213.1,216.9z
	 M91.4,176.9l0.1-1c0.3,0,0.6,0.2,0.8,0.5L91.4,176.9z M38.7,158l-1,0.3L38.7,158z M91.4,130.9l0.1,1c-0.1,0-0.3,0-0.4,0L91.4,130.9
	z M104.4,104.9L104,104L104.4,104.9z M138.6,88.4l-1-0.2l0,0L138.6,88.4z M177,32.5l-0.4,0.9L177,32.5z M38.7,38.4l0.8,0.6
	L38.7,38.4z M1,192.2l0.4,0.9c-0.4,0.2-0.9,0.1-1.2-0.2c-0.3-0.3-0.3-0.8-0.1-1.2L1,192.2z M15.6,185.4l-0.4-0.9
	c0.5-0.2,1-0.1,1.3,0.4L15.6,185.4z M22.2,196.3L23,197c-0.2,0.3-0.5,0.4-0.8,0.4c-0.3,0-0.6-0.2-0.8-0.5L22.2,196.3z M31,185.4
	l-0.8-0.6c0.2-0.2,0.5-0.4,0.8-0.4c0.3,0,0.6,0.2,0.8,0.4L31,185.4z M41.2,199.2l0.9,0.5c-0.2,0.3-0.5,0.5-0.8,0.5
	c-0.3,0-0.7-0.1-0.9-0.4L41.2,199.2z M49.1,185.4l-0.9-0.5c0.2-0.3,0.5-0.5,0.9-0.5c0.4,0,0.7,0.2,0.9,0.5L49.1,185.4z M56.9,199.2
	l0.8,0.6c-0.2,0.3-0.5,0.4-0.9,0.4c-0.3,0-0.6-0.2-0.8-0.5L56.9,199.2z M65.7,188.5l-0.8-0.6c0.2-0.3,0.5-0.4,0.8-0.4
	s0.6,0.2,0.8,0.5L65.7,188.5z M72.2,199.2l0.7,0.7c-0.2,0.2-0.5,0.3-0.8,0.3c-0.3,0-0.6-0.2-0.7-0.5L72.2,199.2z M81.5,190.1
	l-0.7-0.7c0.2-0.2,0.5-0.3,0.8-0.3c0.3,0,0.5,0.2,0.7,0.4L81.5,190.1z M88.8,199.2l0.7,0.7c-0.2,0.2-0.5,0.3-0.8,0.3
	c-0.3,0-0.6-0.1-0.7-0.4L88.8,199.2z M104.4,212.1l-1,0.3L104.4,212.1z M47.6,133.6c-0.5-0.1-0.9-0.7-0.7-1.2
	c0.1-0.5,0.7-0.9,1.2-0.7L47.6,133.6z M88.8,143.6l0.3-1c0.4,0.1,0.6,0.4,0.7,0.8s-0.1,0.7-0.3,1L88.8,143.6z M77.9,152.5l-0.6,0.8
	c-0.2-0.2-0.4-0.5-0.4-0.8c0-0.3,0.1-0.6,0.4-0.8L77.9,152.5z M88.4,160c0.4,0.4,0.5,1,0.1,1.4c-0.4,0.4-1,0.5-1.4,0.1L88.4,160z
	 M46.9,141.5c0.6,0,1,0.5,0.9,1.1c0,0.6-0.5,1-1.1,0.9L46.9,141.5z M29,142c-0.6,0-1-0.5-0.9-1.1c0-0.6,0.5-1,1.1-0.9L29,142z
	 M72.3,162.5c0.1-0.5,0.6-0.9,1.2-0.8c0.5,0.1,0.9,0.6,0.8,1.2L72.3,162.5z M71.3,181c-0.1,0.5-0.6,0.9-1.2,0.8
	c-0.5-0.1-0.9-0.6-0.8-1.2L71.3,181z M207.2,150.3l0.8-0.6c0.2,0.2,0.2,0.5,0.2,0.8c-0.1,0.3-0.3,0.5-0.5,0.7L207.2,150.3z
	 M183.2,163.3c-0.5,0.2-1.1,0-1.3-0.5c-0.2-0.5,0-1.1,0.4-1.3L183.2,163.3z M122.7,162.4l0.2,1c-0.5,0.1-1.1-0.2-1.2-0.7
	L122.7,162.4z M175.2,150.3l1-0.1c0,0.5-0.3,0.9-0.8,1L175.2,150.3z M227.2,98.4l-0.3-1c0.5-0.1,1.1,0.2,1.2,0.7L227.2,98.4z
	 M236.6,133l1-0.3c0.1,0.5-0.2,1.1-0.7,1.2L236.6,133z M172.3,104c-0.3-0.4-0.2-1.1,0.2-1.4c0.4-0.3,1.1-0.2,1.4,0.2L172.3,104z
	 M207.2,103.7l0.3,1L207.2,103.7z M153.2,104c0.5-0.1,1.1,0.2,1.2,0.7c0.1,0.5-0.2,1.1-0.7,1.2L153.2,104z M136.8,110.5
	c-0.5,0.1-1.1-0.2-1.2-0.7c-0.1-0.5,0.2-1.1,0.7-1.2L136.8,110.5z M185.1,98c-0.5,0.1-1.1-0.2-1.2-0.7c-0.1-0.5,0.2-1.1,0.7-1.2
	L185.1,98z M196.6,93.2c0.5-0.1,1.1,0.2,1.2,0.7c0.1,0.5-0.2,1.1-0.7,1.2L196.6,93.2z M188.7,185.6c0.6,0,1,0.4,1,1c0,0.6-0.4,1-1,1
	V185.6z M180.5,187.6c-0.6,0-1-0.4-1-1c0-0.6,0.4-1,1-1V187.6z M67.4,246.3l-0.7,0.7c-0.3-0.4-0.3-0.9,0-1.3L67.4,246.3z
	 M78.6,257.2c0.4,0.4,0.3,1-0.1,1.4c-0.4,0.4-1,0.3-1.4-0.1L78.6,257.2z M154.2,265c0.4,0.4,0.4,1,0.1,1.4c-0.4,0.4-1,0.4-1.4,0.1
	L154.2,265z M66.3,266.5c-0.4,0.3-1.1,0.2-1.4-0.2c-0.3-0.4-0.2-1.1,0.2-1.4L66.3,266.5z M88.3,212.1l0.9,0.4L88.3,212.1z
	 M29.7,302.1c0.4,0.3,0.5,1,0.2,1.4c-0.3,0.4-1,0.5-1.4,0.2L29.7,302.1z M48.5,283.2c0.5-0.3,1.1-0.1,1.4,0.4
	c0.3,0.5,0.1,1.1-0.4,1.4L48.5,283.2z M15.6,626l0.1,1c-0.3,0-0.6-0.1-0.8-0.3c-0.2-0.2-0.3-0.5-0.2-0.9L15.6,626z M71,307.7
	c-0.4,0.4-1,0.3-1.4-0.1c-0.4-0.4-0.3-1,0.1-1.4L71,307.7z M136.5,307l-0.6,0.8L136.5,307z M264.5,425.9l0.1,1L264.5,425.9z
	 M478.1,378.6l-0.7,0.7L478.1,378.6z M486.7,481.9l0.6,0.8L486.7,481.9z M55.9,360c0-0.6,0.4-1,1-1c0.6,0,1,0.4,1,1H55.9z
	 M533.6,408.8l1-0.3c0,0,0,0,0,0L533.6,408.8z M518.5,382.3l0.7-0.7c0,0,0,0,0.1,0.1L518.5,382.3z M313.1,152.5l1,0.3
	c-0.1,0.2-0.1,0.3-0.3,0.5L313.1,152.5z M324.7,82.7l0,1L324.7,82.7z M334.2,121.5l1,0.1L334.2,121.5z M361.8,87.2l-0.2,1
	L361.8,87.2z M358.3,105.6l-0.4-0.9L358.3,105.6z M352.1,113.5c-0.3,0.5-0.9,0.6-1.4,0.4c-0.5-0.3-0.6-0.9-0.4-1.4L352.1,113.5z
	 M385.4,106.9l-0.9,0.4L385.4,106.9z M371.3,114.5l0.6-0.8L371.3,114.5z M376.8,138.1l-0.1-1l0,0L376.8,138.1z M367.2,122.2
	c-0.4,0.4-1,0.4-1.4,0c-0.4-0.4-0.4-1,0-1.4L367.2,122.2z M345.9,112.3c-0.5-0.2-0.8-0.7-0.6-1.3c0.2-0.5,0.7-0.8,1.3-0.6
	L345.9,112.3z M343.8,151c-0.1,0.5-0.6,0.9-1.2,0.8c-0.5-0.1-0.9-0.6-0.8-1.2L343.8,151z M374.4,137.4l0.6-0.8l0,0L374.4,137.4z
	 M348.6,173.8l0.3,0.9L348.6,173.8z M538.4,427.1l1-0.3c0.1,0.4-0.1,0.9-0.5,1.1L538.4,427.1z M508.2,373.5l-0.5-0.8
	c0.4-0.2,0.8-0.2,1.2,0L508.2,373.5z M502.2,412.1l-0.9,0.4l0,0L502.2,412.1z M514.5,378.6l0.6-0.8l0,0L514.5,378.6z M492.4,395
	l-0.8,0.6L492.4,395z M522,386.4l0.8-0.6c0,0,0,0,0,0L522,386.4z M505.5,421.1l-1,0.3L505.5,421.1z M536,417.9l1-0.3l0,0L536,417.9z
	 M507.9,432.3l-1,0.1L507.9,432.3z M315.6,217.9c-0.4,0.4-1,0.3-1.4-0.1c-0.4-0.4-0.3-1,0.1-1.4L315.6,217.9z M331.8,202.4l1-0.2
	c0.1,0.3-0.1,0.7-0.3,0.9L331.8,202.4z M292.8,163.7l-0.7-0.7c0.2-0.2,0.4-0.3,0.6-0.3L292.8,163.7z M279.8,179.9
	c-0.4,0.4-1,0.5-1.4,0.1c-0.4-0.4-0.4-1-0.1-1.4L279.8,179.9z M160.7,250.7L160,250L160.7,250.7z M149.4,262.3
	c-0.5,0.3-1.1,0.2-1.4-0.2c-0.3-0.5-0.2-1.1,0.2-1.4L149.4,262.3z M198.7,614l0.4,0.9c-0.1,0-0.2,0.1-0.3,0.1L198.7,614z
	 M199.2,344.2l-1,0.2L199.2,344.2z M327.5,189.3c-0.4,0.4-1,0.4-1.4,0c-0.4-0.4-0.4-1,0-1.4L327.5,189.3z M300.3,165.6
	c-0.4,0.4-1,0.3-1.4-0.1c-0.4-0.4-0.3-1,0.1-1.4L300.3,165.6z M312.7,234.4l0.9,0.3L312.7,234.4z M255.7,182.1l0.5,0.9L255.7,182.1z
	 M302.4,192.3l-0.7,0.7L302.4,192.3z M309.2,169.8l0.6-0.8L309.2,169.8z M294.6,185.7l-0.6,0.8L294.6,185.7z M325.1,185.7l0.8-0.5
	L325.1,185.7z M330.1,195.7l0.9-0.3L330.1,195.7z M142.1,44.6c3.8-0.9,9.9-2,15.9-2.3c3-0.2,6-0.1,8.7,0.2c2.7,0.3,5.1,1,6.9,2.2
	l-1.1,1.7c-1.5-0.9-3.6-1.6-6.1-1.9c-2.5-0.3-5.4-0.4-8.3-0.2c-5.9,0.3-11.9,1.4-15.6,2.2L142.1,44.6z M173.6,44.7
	c0.9,0.6,2,1.7,3.2,3c1.2,1.4,2.4,3.1,3.8,5.1c2.7,3.9,5.8,9,8.9,14.3C195.6,77.9,202,90,205.9,98l-1.8,0.9
	c-4-7.9-10.3-20.1-16.5-30.7c-3.1-5.3-6.1-10.3-8.8-14.2c-1.3-1.9-2.6-3.6-3.7-4.9c-1.1-1.3-2-2.2-2.7-2.6L173.6,44.7z M218.5,138.6
	c1.7,10.8,3.4,27.5,3.3,43c-0.1,7.7-0.6,15.2-1.8,21.5c-1.2,6.2-3.1,11.4-6.2,14.5l-1.4-1.4c2.6-2.6,4.5-7.3,5.6-13.5
	c1.2-6.1,1.7-13.4,1.7-21.1c0.1-15.4-1.6-32-3.3-42.7L218.5,138.6z M91.2,177.9c-5.4-0.6-12.6-1.8-19.9-3.4l0.4-2
	c7.3,1.6,14.4,2.7,19.8,3.4L91.2,177.9z M71.3,174.5c-7.6-1.7-15.3-3.8-21.5-6.4c-3.1-1.3-5.8-2.8-7.9-4.4c-2.1-1.6-3.6-3.4-4.2-5.5
	l1.9-0.5c0.4,1.5,1.6,2.9,3.5,4.4c1.9,1.5,4.4,2.8,7.4,4.1c6,2.6,13.6,4.7,21.1,6.3L71.3,174.5z M37.8,158.3
	c-1.3-4.7-2.1-10.7-2.2-16.6l2,0c0.1,5.7,0.9,11.6,2.2,16.1L37.8,158.3z M35.5,141.7c-0.1-5.4,0.3-10.8,1.5-14.8
	c0.6-2,1.4-3.8,2.4-5c1.1-1.3,2.5-2.1,4.1-2.1v2c-1,0-1.8,0.4-2.6,1.4c-0.8,1-1.5,2.4-2,4.3c-1.1,3.8-1.5,8.9-1.4,14.2L35.5,141.7z
	 M43.6,119.7c1.7,0,4.8,0.4,8.5,1.1c3.8,0.7,8.3,1.6,13.1,2.7c9.5,2.1,19.8,4.7,26.4,6.4l-0.5,1.9c-6.6-1.7-16.9-4.2-26.3-6.3
	c-4.7-1.1-9.2-2-13-2.7c-3.8-0.7-6.7-1.1-8.2-1.1V119.7z M90.4,130.9c-0.1-3.5,0.6-9,2.5-14.2c2-5.2,5.4-10.3,11.1-12.7l0.8,1.8
	c-5,2.1-8.1,6.6-10,11.5c-1.9,4.9-2.5,10.2-2.4,13.4L90.4,130.9z M104,104c3.5-1.5,7.2-2,10.8-2.2c3.6-0.3,7-0.3,10.2-0.8
	c3.1-0.5,5.8-1.3,8-3.2c2.1-1.9,3.8-4.8,4.7-9.6l2,0.4c-0.9,5.1-2.8,8.5-5.3,10.7c-2.5,2.2-5.7,3.2-9,3.7c-3.3,0.5-6.9,0.5-10.4,0.8
	c-3.5,0.3-7,0.7-10.2,2.1L104,104z M137.7,88.3c2.9-15.8,3.6-35.1,3.6-42.7h2c0,7.7-0.7,27.1-3.7,43.1L137.7,88.3z M204.1,98.6
	c-1.7-9.8-5.2-24.8-10-38.1c-2.4-6.6-5.1-12.8-8.1-17.6c-3-4.9-6.1-8.2-9.3-9.5l0.7-1.9c3.8,1.5,7.3,5.3,10.3,10.3
	c3.1,5,5.8,11.3,8.3,18c4.8,13.4,8.3,28.5,10.1,38.4L204.1,98.6z M176.6,33.4c-2.1-0.8-5.6-1.5-10.4-2.2c-4.7-0.6-10.5-1.1-17-1.4
	c-13-0.7-28.9-0.8-44.5-0.3c-15.6,0.5-30.9,1.5-42.9,3.1c-6,0.8-11.1,1.8-15,2.9c-2,0.5-3.6,1.1-4.8,1.7c-1.3,0.6-2.1,1.2-2.5,1.7
	L38,37.8c0.7-0.9,1.8-1.6,3.2-2.3c1.4-0.7,3.1-1.3,5.2-1.8c4-1.1,9.3-2.1,15.3-2.9c12.1-1.6,27.5-2.7,43.1-3.1
	c15.6-0.5,31.5-0.4,44.6,0.3c6.5,0.3,12.4,0.8,17.2,1.4c4.8,0.6,8.5,1.4,10.9,2.3L176.6,33.4z M39.5,39.1c-0.5,0.6-1.1,1.6-1.7,3.2
	c-0.6,1.5-1.3,3.4-2,5.7c-1.4,4.5-3,10.5-4.6,17.3c-3.3,13.7-6.8,31.1-10.4,48.6c-3.6,17.5-7.1,35.2-10.4,49.5
	c-1.6,7.1-3.2,13.4-4.6,18.5c-1.4,5-2.7,8.8-3.9,10.9l-1.7-1c1.1-1.8,2.3-5.4,3.8-10.4c1.4-5,2.9-11.2,4.6-18.4
	c3.2-14.3,6.8-31.9,10.4-49.5C22.4,96,26,78.5,29.3,64.8c1.6-6.9,3.2-12.8,4.6-17.5c0.7-2.3,1.4-4.3,2.1-5.9c0.7-1.6,1.3-2.8,2-3.7
	L39.5,39.1z M0.6,191.3l14.6-6.8l0.8,1.8l-14.6,6.8L0.6,191.3z M16.4,184.9l6.7,10.9l-1.7,1l-6.7-10.9L16.4,184.9z M21.4,195.7
	l8.8-10.9l1.6,1.3L23,197L21.4,195.7z M31.8,184.8L42,198.6l-1.6,1.2L30.2,186L31.8,184.8z M40.3,198.7l7.9-13.8l1.7,1L42,199.7
	L40.3,198.7z M49.9,184.9l7.9,13.8l-1.7,1l-7.9-13.8L49.9,184.9z M56.2,198.6l8.8-10.8l1.5,1.3l-8.8,10.8L56.2,198.6z M66.6,187.9
	l6.5,10.8l-1.7,1L64.9,189L66.6,187.9z M71.5,198.5l9.2-9.1l1.4,1.4l-9.2,9.1L71.5,198.5z M82.3,189.5l7.3,9.1l-1.6,1.2l-7.3-9.1
	L82.3,189.5z M103.4,212.4c-2.4-8.7-4.9-16.1-7.2-21.9l1.9-0.7c2.2,5.8,4.8,13.3,7.2,22.1L103.4,212.4z M96.3,190.5
	c-2.5-6.6-4.7-11-5.8-13.1l1.7-1c1.2,2.1,3.4,6.7,5.9,13.3L96.3,190.5z M88,198.5l8.4-9.1l1.5,1.4l-8.4,9.1L88,198.5z M48.1,131.7
	L89,142.6l-0.5,1.9l-40.9-10.9L48.1,131.7z M89.4,144.4l-10.9,8.9l-1.3-1.5l10.9-8.9L89.4,144.4z M78.5,151.8l9.9,8.2l-1.3,1.5
	l-9.9-8.2L78.5,151.8z M46.7,143.5l-10.2-0.9l0.2-2l10.2,0.9L46.7,143.5z M36.5,142.7L29,142l0.2-2l7.5,0.6L36.5,142.7z M74.3,162.9
	l-1.8,10.9l-2-0.3l1.8-10.9L74.3,162.9z M72.5,173.7l-1.2,7.3l-2-0.3l1.2-7.3L72.5,173.7z M207.6,151.2l-24.4,12.1l-0.9-1.8
	l24.4-12.1L207.6,151.2z M114.1,129l-22.6,2.9l-0.3-2l22.6-2.9L114.1,129z M114.9,127.7l8.8,34.4l-1.9,0.5l-8.8-34.4L114.9,127.7z
	 M122.5,161.4l52.5-12.1l0.5,1.9L123,163.4L122.5,161.4z M173.3,113.5L114.2,129l-0.5-1.9l59.1-15.4L173.3,113.5z M174.2,150.3
	l-2.1-37.7l2-0.1l2.1,37.7L174.2,150.3z M228.1,98.2l9.4,34.6l-1.9,0.5l-9.4-34.6L228.1,98.2z M173.9,102.8l5.6,7.7l-1.6,1.2
	l-5.6-7.7L173.9,102.8z M179.5,110.5l23.6,32.3l-1.6,1.2l-23.6-32.3L179.5,110.5z M203,142.9l5,6.8l-1.6,1.2l-5-6.8L203,142.9z
	 M236.9,133.9l-19.1,5.8l-0.6-1.9l19.1-5.8L236.9,133.9z M217.8,139.8l-15.3,4.6l-0.6-1.9l15.3-4.6L217.8,139.8z M227.4,99.4
	l-20,5.2l-0.5-1.9l20-5.2L227.4,99.4z M207.4,104.6l-28.5,7.4l-0.5-1.9l28.5-7.4L207.4,104.6z M178.9,112.1l-5.6,1.5l-0.5-1.9
	l5.6-1.5L178.9,112.1z M206,98.1l2.1,5.2l-1.9,0.8l-2.1-5.2L206,98.1z M153.8,105.9l-17,4.5l-0.5-1.9l17-4.5L153.8,105.9z
	 M184.7,96.1l12-2.9l0.5,1.9l-12,2.9L184.7,96.1z M188.7,187.6h-8.2v-2h8.2V187.6z M68.1,245.7l10.5,11.5l-1.5,1.3L66.7,247
	L68.1,245.7z M213.8,217.6c-2.3,2.3-6.2,4.3-11.1,5.9c-4.9,1.6-11,3-17.6,4l-0.3-2c6.6-1,12.5-2.3,17.3-3.9
	c4.8-1.6,8.4-3.5,10.3-5.4L213.8,217.6z M185,227.6c-15.7,2.4-34.7,2.9-50.5,0.7c-7.9-1.1-15-2.8-20.4-5.4c-5.4-2.6-9.4-6-10.7-10.5
	l1.9-0.5c1,3.7,4.4,6.8,9.6,9.2c5.2,2.4,12.1,4.2,19.9,5.2c15.5,2.1,34.4,1.6,49.9-0.7L185,227.6z M152.8,266.5
	c-11.5-10.3-25.3-16.1-40.2-16.5c-14.8-0.4-30.8,4.7-46.3,16.5l-1.2-1.6c15.9-12,32.2-17.3,47.6-16.9c15.4,0.4,29.7,6.4,41.5,17
	L152.8,266.5z M98.1,190.4c-1.6,4.9-4.6,12.9-8.9,22.1l-1.8-0.9c4.3-9.1,7.3-17.1,8.8-21.9L98.1,190.4z M89.2,212.5
	c-5.2,11.1-12.4,23.8-21,34.5l-1.6-1.3c8.5-10.5,15.6-23,20.8-34L89.2,212.5z M88.2,213.1c-32.8-2.7-62.5,7.7-76.5,24.7
	c-6.9,8.4-9.9,18.5-7.5,29.3c2.4,10.9,10.3,22.9,25.5,35l-1.2,1.6C13,291.4,4.8,279.1,2.3,267.6c-2.5-11.6,0.7-22.2,7.9-31
	c14.5-17.6,44.9-28.2,78.2-25.4L88.2,213.1z M49.6,284.9c-5.6,3.3-10.4,9.2-14.3,17.1c-3.9,7.9-7.1,17.8-9.5,29
	c-4.9,22.5-7,50.3-7.5,78.5c-1.1,56.4,3.8,114.1,5,133.2l-2,0.1c-1.1-19.1-6.1-76.9-5-133.3c0.6-28.2,2.7-56.2,7.6-78.9
	c2.5-11.3,5.6-21.4,9.7-29.5c4-8.1,9-14.3,15.1-17.9L49.6,284.9z M23.2,542.7c1.1,19.2-0.5,40.1-2.5,56.1c-1,8-2,14.9-2.8,19.7
	c-0.4,2.4-0.7,4.3-1,5.6c-0.1,0.7-0.2,1.2-0.3,1.5c0,0.2-0.1,0.3-0.1,0.4c0,0,0,0.1,0,0.1c0,0,0,0,0,0c0,0,0,0,0,0c0,0,0,0,0,0
	c0,0,0,0-1-0.2c-1-0.2-1-0.2-1-0.2s0,0,0,0c0,0,0,0,0,0c0,0,0,0,0,0c0,0,0-0.1,0-0.1c0-0.1,0-0.2,0.1-0.4c0.1-0.3,0.2-0.8,0.3-1.5
	c0.2-1.3,0.6-3.2,1-5.6c0.8-4.8,1.8-11.6,2.8-19.6c1.9-16,3.6-36.7,2.5-55.7L23.2,542.7z M69.6,306.2c10.1-9.3,37.8-22.1,67.5-0.1
	l-1.2,1.6c-28.7-21.3-55.3-8.9-65-0.1L69.6,306.2z M264.4,424.9c38.6-3.5,83.9-22.8,123.8-37.5c19.9-7.3,38.4-13.6,54-16
	c15.5-2.5,28.4-1.3,36.6,6.5l-1.4,1.4c-7.5-7.2-19.5-8.5-34.9-6c-15.3,2.5-33.7,8.6-53.6,15.9c-39.7,14.6-85.4,34-124.3,37.6
	L264.4,424.9z M487.3,482.6c-9.1,7.2-25.4,16.5-46.1,25.8c-20.6,9.3-45.6,18.7-72,26.4c-26.4,7.6-54.2,13.5-80.5,15.6
	c-26.3,2.1-51.2,0.6-71.6-6.6l0.7-1.9c20.1,7.1,44.6,8.7,70.8,6.5c26.1-2.1,53.8-7.9,80.1-15.5c26.3-7.6,51.2-17,71.8-26.3
	c20.6-9.3,36.7-18.4,45.6-25.5L487.3,482.6z M217.1,543.7c-40.7-14.4-81-49.5-111.1-86.3c-15-18.4-27.6-37.3-36.3-54.3
	C61,386.2,55.9,371,55.9,360h2c0,10.5,4.9,25.4,13.6,42.2c8.7,16.8,21.1,35.6,36.1,53.9c30,36.7,70,71.4,110.2,85.7L217.1,543.7z
	 M312.2,152.3c1.4-4.8,4.2-17.2,4.2-28.4h2c0,11.4-2.9,24-4.3,28.9L312.2,152.3z M316.4,123.9c0-6.9-0.8-17.5-0.2-26.1
	c0.3-4.3,0.9-8.3,2.1-11.2c0.6-1.5,1.4-2.7,2.5-3.6c1.1-0.9,2.4-1.4,3.9-1.3l-0.1,2c-1,0-1.9,0.3-2.6,0.9c-0.7,0.6-1.4,1.6-1.9,2.8
	c-1.1,2.6-1.7,6.3-1.9,10.6c-0.5,8.6,0.2,18.8,0.2,25.9H316.4z M324.7,81.7c2.2,0.1,4,1.4,5.3,3.3c1.3,1.9,2.3,4.5,3,7.3
	c1.5,5.7,2.1,12.8,2.4,18.6l-2,0.1c-0.2-5.7-0.8-12.7-2.3-18.1c-0.7-2.7-1.6-5-2.8-6.7c-1.1-1.6-2.3-2.4-3.7-2.4L324.7,81.7z
	 M335.4,110.8c0.2,5.1,0,9.3-0.2,10.8l-2-0.3c0.2-1.3,0.3-5.4,0.1-10.4L335.4,110.8z M333.4,110.5c2-4.6,5.8-11.3,10.7-16.5
	c4.9-5.2,11.1-9.2,17.9-7.7l-0.4,2c-5.7-1.3-11.2,2-16,7.1c-4.7,5-8.4,11.5-10.3,16L333.4,110.5z M358.7,106.5
	c-1.4,0.6-2.8,1.9-4,3.3c-1.2,1.4-2.2,2.8-2.7,3.7l-1.7-1c0.6-1,1.6-2.5,2.9-4c1.3-1.5,2.9-3,4.7-3.8L358.7,106.5z M362,86.2
	c5.4,1.2,10.7,4.2,15,7.9c4.3,3.7,7.7,8.2,9.4,12.4l-1.9,0.7c-1.5-3.8-4.7-8-8.8-11.6c-4.1-3.6-9.1-6.4-14.1-7.5L362,86.2z
	 M386.4,106.6c1.6,4.2,1.6,8.4-1.6,11.1l-1.3-1.5c2.2-1.9,2.5-5,1.1-8.9L386.4,106.6z M384.7,117.7c-2.1,1.8-4.6,2-7,1.4
	c-2.4-0.6-4.8-2.1-7-3.7l1.2-1.6c2.2,1.6,4.3,2.9,6.3,3.4c1.9,0.5,3.7,0.3,5.2-1L384.7,117.7z M370.8,115.3
	c-2.8-2.1-5.6-4.7-7.8-6.4c-1.1-0.9-2.1-1.6-2.9-2c-0.9-0.5-1.2-0.4-1.3-0.4l-0.8-1.8c1-0.5,2.2-0.1,3.1,0.4c1,0.5,2.1,1.3,3.2,2.3
	c2.4,1.9,5,4.3,7.8,6.4L370.8,115.3z M385.1,116.9c0.2,3.7-0.1,9.6-1.3,14.2l-1.9-0.5c1.2-4.4,1.4-10,1.3-13.6L385.1,116.9z
	 M383.8,131.1c-0.6,2.1-1.3,4-2.4,5.4c-1.1,1.5-2.6,2.5-4.5,2.6l-0.1-2c1.2-0.1,2.1-0.7,3-1.8c0.9-1.2,1.6-2.8,2.1-4.7L383.8,131.1z
	 M382.1,130.2c3.3-3.5,5.9-5.3,8.2-5.9c2.4-0.6,4.2,0.1,5.8,1c0.8,0.4,1.5,1,2.2,1.4c0.7,0.4,1.4,0.8,2.1,1.1c1.3,0.5,2.8,0.5,5-0.7
	l1,1.7c-2.6,1.5-4.7,1.5-6.6,0.8c-0.9-0.3-1.7-0.8-2.4-1.3c-0.8-0.5-1.4-0.9-2.1-1.4c-1.4-0.8-2.6-1.2-4.3-0.8
	c-1.7,0.4-4,1.8-7.2,5.3L382.1,130.2z M405.3,127.2c1-0.5,1.5-1.3,1.8-2.1c0.3-0.9,0.2-1.9-0.1-3.1c-0.7-2.5-2.5-5.3-5-7.9
	c-2.5-2.6-5.5-4.8-8.4-6.1c-3-1.2-5.7-1.4-7.7-0.2l-1-1.7c2.8-1.7,6.2-1.3,9.5,0.1c3.3,1.4,6.5,3.8,9.1,6.5c2.6,2.7,4.7,5.9,5.4,8.8
	c0.4,1.5,0.5,2.9,0.1,4.2c-0.4,1.3-1.3,2.5-2.7,3.2L405.3,127.2z M370.1,116.8c0.1-0.9,0.1-1.7,0.2-2.4l2,0.2
	c-0.1,0.7-0.2,1.5-0.2,2.4L370.1,116.8z M371.8,117.6l-4.6,4.5l-1.4-1.4l4.6-4.5L371.8,117.6z M370.1,128.2c-0.4-3.8-0.3-7.9,0-11.3
	l2,0.2c-0.3,3.3-0.4,7.4,0,11L370.1,128.2z M346.5,110.4c5.7,1.9,9.9,3.9,13.8,6.5c3.9,2.6,7.4,5.9,11.5,10.5l-1.5,1.3
	c-4.1-4.5-7.5-7.7-11.2-10.2c-3.7-2.5-7.8-4.4-13.3-6.3L346.5,110.4z M335.2,121.6c-0.2,1.4,0.3,3,1.2,5.1c0.9,2.1,2.2,4.3,3.5,6.9
	c2.5,5,5.1,11,4,17.4l-2-0.3c1-5.8-1.3-11.2-3.8-16.2c-1.2-2.4-2.6-4.8-3.5-7c-0.9-2.1-1.6-4.2-1.3-6.2L335.2,121.6z M376.9,139.1
	c-1.2,0.1-2.2-0.3-3.1-1l1.3-1.6c0.5,0.4,1.1,0.6,1.7,0.6L376.9,139.1z M373.8,138.1c-1.2-0.9-2-2.5-2.5-4.1
	c-0.6-1.7-0.9-3.7-1.1-5.8l2-0.2c0.2,2,0.5,3.9,1,5.4c0.5,1.5,1.1,2.6,1.9,3.2L373.8,138.1z M375.3,137.7
	c-1.9,5.3-5.6,13.4-10.1,20.7c-2.3,3.7-4.8,7.2-7.5,10c-2.7,2.8-5.6,5.1-8.7,6.2l-0.7-1.9c2.6-1,5.3-3,7.9-5.7
	c2.6-2.7,5.1-6.1,7.3-9.7c4.5-7.2,8.1-15.2,10-20.4L375.3,137.7z M509.2,443.7c-1.1,14.2-7.9,27.8-21.8,38.9l-1.2-1.6
	c13.6-10.8,20-23.9,21.1-37.5L509.2,443.7z M478.8,377.9c3.4,3.3,6.6,6.7,9.6,10.2l-1.5,1.3c-2.9-3.5-6.1-6.9-9.4-10.1L478.8,377.9z
	 M538.9,428l-30.3,16.5l-1-1.8l30.3-16.5L538.9,428z M508.2,373.5c0.5,0.8,0.5,0.8,0.5,0.8l0,0c0,0,0,0,0,0c0,0,0,0,0,0c0,0,0,0,0,0
	c0,0,0,0-0.1,0.1c-0.1,0.1-0.2,0.1-0.3,0.2c-0.3,0.2-0.7,0.5-1.3,0.9c-1.1,0.8-2.7,1.9-4.6,3.2c-3.8,2.7-9,6.5-14.1,10.8l-1.3-1.5
	c5.2-4.3,10.4-8.2,14.3-10.9c1.9-1.4,3.5-2.5,4.7-3.2c0.6-0.4,1-0.7,1.3-0.9c0.2-0.1,0.3-0.2,0.3-0.2c0,0,0.1,0,0.1-0.1c0,0,0,0,0,0
	c0,0,0,0,0,0c0,0,0,0,0,0l0,0C507.6,372.7,507.6,372.7,508.2,373.5z M529.3,397.4L502.7,413l-1-1.7l26.5-15.6L529.3,397.4z
	 M517.8,383c-1.2-1.2-2.6-2.4-4-3.6l1.3-1.5c1.4,1.2,2.8,2.5,4.1,3.7L517.8,383z M513.9,379.4c-1.6-1.4-3.2-2.7-4.4-3.6
	c-0.6-0.5-1.1-0.8-1.4-1.1c-0.2-0.1-0.3-0.2-0.4-0.3c0,0-0.1-0.1-0.1-0.1c0,0,0,0,0,0c0,0,0,0,0,0c0,0,0,0,0,0l0,0l0,0
	c0,0,0,0,0.6-0.8s0.6-0.8,0.6-0.8s0,0,0,0v0c0,0,0,0,0,0c0,0,0,0,0,0c0,0,0,0,0,0c0,0,0.1,0,0.1,0.1c0.1,0.1,0.2,0.2,0.4,0.3
	c0.3,0.3,0.8,0.6,1.4,1.1c1.2,0.9,2.8,2.2,4.4,3.7L513.9,379.4z M488.3,388.2c1.7,2,3.3,4.1,4.8,6.3l-1.6,1.2
	c-1.5-2.1-3.1-4.1-4.8-6.2L488.3,388.2z M515.1,379.5L493,395.8l-1.2-1.6l22.2-16.4L515.1,379.5z M527.9,397
	c-1.7-3.4-3.8-6.5-6.6-10l1.6-1.3c2.9,3.6,5,6.8,6.8,10.3L527.9,397z M493.2,394.4c1.9,2.7,3.7,5.4,5.3,8.1l-1.7,1
	c-1.6-2.7-3.3-5.4-5.2-8L493.2,394.4z M498.4,402.5c1.8,3,3.3,6.1,4.7,9.2l-1.8,0.8c-1.3-3-2.9-6-4.6-9L498.4,402.5z M522.6,387.2
	l-24.5,16.6l-1.1-1.7l24.5-16.7L522.6,387.2z M532.6,409.1c-0.2-0.6-0.4-1.1-0.5-1.7l1.9-0.6c0.2,0.5,0.4,1.1,0.5,1.7L532.6,409.1z
	 M532.1,407.5c-1.3-4.1-2.6-7.4-4.2-10.5l1.8-0.9c1.6,3.2,3,6.6,4.3,10.8L532.1,407.5z M503.1,411.7c1.3,3,2.4,6,3.4,9.1l-1.9,0.6
	c-0.9-3-2-5.9-3.3-8.8L503.1,411.7z M533.5,408L506,422l-0.9-1.8l27.5-13.9L533.5,408z M534.5,408.5c0.6,2.3,1.5,5.8,2.4,9.1
	l-1.9,0.5c-0.9-3.3-1.8-6.8-2.4-9.1L534.5,408.5z M536.9,417.6c0.6,2.4,1.2,4.7,1.7,6.4c0.2,0.9,0.4,1.6,0.5,2.1
	c0.1,0.2,0.1,0.4,0.1,0.6c0,0.1,0,0.1,0,0.2c0,0,0,0,0,0c0,0,0,0,0,0c0,0,0,0,0,0c0,0,0,0,0,0c0,0,0,0,0,0s0,0-1,0.3
	c-1,0.3-1,0.3-1,0.3l0,0c0,0,0,0,0,0c0,0,0,0,0,0c0,0,0,0,0,0c0,0,0,0,0,0c0,0,0-0.1,0-0.1c0-0.1-0.1-0.3-0.1-0.6
	c-0.1-0.5-0.3-1.2-0.5-2.1c-0.4-1.7-1.1-4-1.7-6.4L536.9,417.6z M506.5,420.8c1.1,3.8,2,7.6,2.4,11.4l-2,0.2
	c-0.4-3.7-1.2-7.4-2.3-11L506.5,420.8z M508.9,432.2c0.5,3.9,0.6,7.7,0.3,11.6l-2-0.2c0.3-3.7,0.2-7.4-0.3-11.2L508.9,432.2z
	 M536.4,418.8l-28.1,14.4l-0.9-1.8l28.1-14.4L536.4,418.8z M314.3,216.3l16.8-14.7l1.3,1.5l-16.8,14.7L314.3,216.3z M293.6,164.4
	l-13.8,15.5l-1.5-1.3l13.8-15.5L293.6,164.4z M185.6,227.3c-5.9,6.1-16,16.3-24.2,24.2L160,250c8.2-7.9,18.2-18,24.1-24.1
	L185.6,227.3z M161.4,251.5c-5.3,5.1-9.9,9.3-12,10.9l-1.2-1.6c2-1.4,6.5-5.5,11.8-10.7L161.4,251.5z M137.1,306.2
	c6.4,4.7,12,11.6,17.4,19.5c5.4,8,10.5,17.1,15.8,26.6c10.6,19,22,39,37.5,53.3l-1.4,1.5c-15.8-14.6-27.3-34.9-37.9-53.8
	c-5.3-9.5-10.4-18.6-15.7-26.5c-5.3-7.9-10.8-14.5-16.9-19L137.1,306.2z M207.8,405.6c14.4,13.3,32.3,21.5,56.5,19.3l0.2,2
	c-24.9,2.3-43.4-6.3-58.1-19.8L207.8,405.6z M218.4,542.5c3.2,10.1,9.7,21.8,9.7,38.9h-2c0-16.8-6.4-27.8-9.7-38.3L218.4,542.5z
	 M228.2,581.4c0,8.9-5,16.3-11,22c-6,5.7-13.3,9.6-18.1,11.5l-0.7-1.9c4.7-1.9,11.7-5.7,17.5-11.1c5.8-5.5,10.4-12.4,10.4-20.5
	H228.2z M161.6,250.2c10.7,17.8,28.4,53.9,38.6,93.8l-1.9,0.5c-10.2-39.6-27.7-75.6-38.4-93.2L161.6,250.2z M200.2,344
	c5.3,20.4,8.6,41.9,8,62.4l-2-0.1c0.6-20.2-2.7-41.5-7.9-61.8L200.2,344z M349,174.7c-9.2,3.3-17.1,10-21.4,14.5l-1.5-1.4
	c4.4-4.6,12.5-11.6,22.1-15L349,174.7z M327.6,189.2C327.6,189.2,327.5,189.3,327.6,189.2l-1.5-1.3c0,0,0,0,0.1-0.1L327.6,189.2z
	 M313.8,153.3l-13.5,12.4l-1.4-1.5l13.5-12.4L313.8,153.3z M194,322.4c-0.5-0.9-0.5-0.9-0.5-0.9c0,0,0,0,0,0c0,0,0,0,0,0
	c0,0,0,0,0.1,0c0.1,0,0.1-0.1,0.2-0.1c0.2-0.1,0.5-0.3,0.9-0.5c0.8-0.4,1.9-1,3.4-1.8c3-1.6,7.2-3.8,12.3-6.6
	c10.2-5.6,24-13.5,38.1-22.4c14.1-8.9,28.6-18.8,40.2-28.6c5.8-4.9,10.9-9.7,14.8-14.4c4-4.7,6.8-9.1,8.1-13.1l1.9,0.6
	c-1.5,4.4-4.5,9-8.5,13.8c-4.1,4.8-9.2,9.7-15.1,14.6c-11.7,9.9-26.2,19.9-40.4,28.8c-14.2,8.9-28,16.8-38.2,22.4
	c-5.1,2.8-9.4,5.1-12.3,6.6c-1.5,0.8-2.6,1.4-3.4,1.8c-0.4,0.2-0.7,0.4-0.9,0.5c-0.1,0.1-0.2,0.1-0.2,0.1c0,0,0,0-0.1,0c0,0,0,0,0,0
	c0,0,0,0,0,0C194.4,323.3,194.4,323.3,194,322.4z M256.1,183c-15.3,7.7-24.4,12.8-29.7,16c-2.6,1.6-4.3,2.7-5.3,3.4
	c-0.5,0.3-0.8,0.6-1.1,0.8c-0.1,0.1-0.2,0.1-0.2,0.2c0,0,0,0,0,0c0,0,0,0,0,0c0,0,0,0,0,0c0,0,0,0,0,0s0,0,0,0c0,0,0,0-0.6-0.8
	c-0.6-0.8-0.6-0.8-0.6-0.8c0,0,0,0,0,0c0,0,0,0,0,0c0,0,0,0,0,0c0,0,0,0,0,0c0,0,0,0,0.1-0.1c0.1,0,0.1-0.1,0.3-0.2
	c0.2-0.2,0.6-0.4,1.1-0.8c1.1-0.7,2.8-1.8,5.4-3.4c5.3-3.2,14.5-8.3,29.8-16.1L256.1,183z M198.7,615L15.6,627l-0.1-2l183.1-12
	L198.7,615z M318.1,177l-15,15.9l-1.5-1.4l15-15.9L318.1,177z M300.8,166.4c-3.3-1.3-6-1.9-7.9-1.7l-0.2-2c2.3-0.2,5.4,0.5,8.8,1.8
	L300.8,166.4z M286.3,182.3c-9.5-3.9-20.2-4.3-30.1,0.7l-0.9-1.8c10.5-5.3,21.9-4.9,31.8-0.8L286.3,182.3z M301.9,166.1L287.4,182
	l-1.5-1.3l14.5-15.9L301.9,166.1z M316.7,177.1c-2.6-2.5-5.3-4.7-8-6.5l1.1-1.7c2.8,1.9,5.6,4.1,8.3,6.7L316.7,177.1z M308.6,170.6
	c-2.7-1.8-5.4-3.2-7.9-4.2l0.8-1.9c2.6,1.1,5.4,2.5,8.2,4.4L308.6,170.6z M301.6,193c-2.3-2.4-4.8-4.6-7.6-6.5l1.1-1.7
	c2.9,1.9,5.5,4.2,7.9,6.7L301.6,193z M294.1,186.5c-2.5-1.7-5.1-3.1-7.8-4.2l0.8-1.8c2.9,1.2,5.6,2.7,8.2,4.4L294.1,186.5z
	 M309.9,170.5l-14.6,15.9l-1.5-1.3l14.6-15.9L309.9,170.5z M326,189c-0.5-1-1.1-1.9-1.7-2.8l1.7-1.1c0.6,0.9,1.2,1.9,1.8,2.9
	L326,189z M324.3,186.2c-2.2-3.4-4.8-6.5-7.6-9.1l1.4-1.4c2.9,2.8,5.6,5.9,7.9,9.5L324.3,186.2z M308.3,202c-1.8-3.3-4.1-6.3-6.7-9
	l1.5-1.4c2.7,2.8,5,6,7,9.4L308.3,202z M325.8,186.4l-15.9,15.8l-1.4-1.4l15.9-15.8L325.8,186.4z M330.8,202.6
	c-0.4-2.2-0.9-4.4-1.7-6.5l1.9-0.7c0.8,2.2,1.3,4.5,1.7,6.8L330.8,202.6z M329.1,196.1c-0.9-2.5-1.9-4.8-3.2-7l1.7-1
	c1.3,2.3,2.4,4.8,3.3,7.4L329.1,196.1z M311.7,234.1c2.6-7.8,2.5-15.7,0.4-22.9l1.9-0.6c2.2,7.6,2.3,15.8-0.5,24.1L311.7,234.1z
	 M312.2,211.2c-0.9-3.2-2.2-6.3-3.9-9.2l1.7-1c1.7,3,3.1,6.2,4,9.6L312.2,211.2z M330.8,196.5l-16.9,15.2l-1.3-1.5l16.9-15.2
	L330.8,196.5z M519.3,381.6l3.5,4.1l-1.5,1.3l-3.5-4.1L519.3,381.6z"/>
<path d="M619.4,373.3c-0.2-0.5,0.1-1.1,0.6-1.3c0.5-0.2,1.1,0.1,1.3,0.6L619.4,373.3z M595.6,385.1c-0.5,0.1-1.1-0.2-1.2-0.7
	c-0.1-0.5,0.2-1.1,0.7-1.2L595.6,385.1z M624.2,353.7c-0.2-0.5,0-1.1,0.5-1.3c0.5-0.2,1.1,0,1.3,0.5L624.2,353.7z M594,370.5
	c-0.5,0.1-1.1-0.2-1.2-0.7c-0.1-0.5,0.2-1.1,0.7-1.2L594,370.5z M626,349.6l0.9,0.4L626,349.6z M539.9,359.6l0.9,0.4l0,0l0,0
	L539.9,359.6z M522.2,384.2c-0.4,0.4-1,0.4-1.4,0c-0.4-0.4-0.4-1,0-1.4L522.2,384.2z M612.3,341.5l0.8,0.6L612.3,341.5z
	 M608.3,345.3l0.6,0.8l0,0L608.3,345.3z M534.3,410.9c-0.4,0.4-1,0.3-1.4-0.1c-0.4-0.4-0.3-1,0.1-1.4L534.3,410.9z M564.7,399.5
	c9.2,0.5,24.6-1.8,36.9-6.6c6.1-2.4,11.4-5.3,14.7-8.6c3.3-3.3,4.6-7,3.1-11l1.9-0.7c1.8,4.9,0.1,9.4-3.6,13.1
	c-3.6,3.6-9.2,6.7-15.4,9.1c-12.5,4.8-28.2,7.2-37.7,6.7L564.7,399.5z M595.1,383.2c6.4-1.8,15.6-5.5,22.2-10.6
	c3.3-2.6,5.9-5.5,7.2-8.6c1.3-3.1,1.4-6.5-0.3-10.3l1.8-0.8c2,4.3,1.9,8.3,0.4,11.9c-1.5,3.6-4.4,6.7-7.8,9.4
	c-6.9,5.4-16.3,9.1-22.9,11L595.1,383.2z M593.5,368.6c4.3-1.2,11-3.6,17.2-7c6.3-3.4,12-7.7,14.4-12.5l1.8,0.9
	c-2.7,5.4-8.8,9.9-15.2,13.4c-6.4,3.5-13.3,5.9-17.7,7.1L593.5,368.6z M625.1,349.1c3.1-6.3,5.2-12.8,5.6-17.9
	c0.2-2.5-0.1-4.6-0.7-6.2c-0.6-1.5-1.7-2.4-3.2-2.8l0.5-1.9c2.2,0.5,3.7,2,4.5,3.9c0.8,1.9,1.1,4.4,0.9,7.1
	c-0.4,5.4-2.6,12.2-5.8,18.7L625.1,349.1z M567,358.4c-0.3-1.2-0.1-2.4,0.2-3.7c0.4-1.3,1-2.6,1.7-4c1.5-2.8,3.6-5.8,5.7-8.6
	c2.1-2.9,4-5.6,5.3-8c0.6-1.2,1.1-2.2,1.2-3c0.2-0.8,0.1-1.4-0.1-1.7l1.7-1c0.6,1,0.6,2.1,0.3,3.2c-0.2,1.1-0.8,2.3-1.4,3.5
	c-1.3,2.5-3.4,5.3-5.4,8.2c-2.1,2.9-4.1,5.8-5.5,8.4c-0.7,1.3-1.3,2.5-1.6,3.6c-0.3,1.1-0.4,2-0.2,2.7L567,358.4z M581,329.3
	c-0.1-0.2-0.4-0.5-1.5-0.4c-1,0-2.4,0.3-4.1,1c-3.4,1.2-7.7,3.5-12.2,6.6c-9.1,6.1-18.6,15-22.5,23.5l-1.8-0.8
	c4.1-9,14-18.2,23.2-24.4c4.6-3.1,9.1-5.5,12.6-6.8c1.8-0.6,3.4-1,4.7-1.1c1.3,0,2.6,0.3,3.3,1.4L581,329.3z M626.8,322.3
	c-1.1-0.3-2.1,0.1-3,1c-1,1-1.9,2.7-3,4.7c-2,4.1-4.1,9.7-7.7,14l-1.6-1.3c3.3-4.1,5.4-9.4,7.4-13.7c1-2.1,2.1-4,3.3-5.3
	c1.3-1.3,2.9-2.1,4.9-1.6L626.8,322.3z M613.1,342.1c-1.2,1.5-2.6,2.9-4.2,4l-1.2-1.6c1.4-1,2.7-2.3,3.8-3.7L613.1,342.1z
	 M608.9,346.1c-3.2,2.3-8,5-13.2,7.6l-0.9-1.8c5.1-2.5,9.8-5.2,12.9-7.4L608.9,346.1z M612,342.4c-7.5-2.6-13.4-3.1-17.1-2.2
	c-1.8,0.4-3,1.2-3.6,2.1c-0.6,0.8-0.8,1.9-0.2,3.4l-1.9,0.6c-0.7-1.9-0.5-3.7,0.5-5.2c1-1.4,2.7-2.4,4.8-2.9
	c4.2-1,10.6-0.4,18.2,2.2L612,342.4z M591,345.7c0.6,1.8,2.1,3.9,4.9,6.4l-1.3,1.5c-2.9-2.6-4.7-5-5.5-7.2L591,345.7z M595.7,353.7
	c-2.5,1.3-5.2,2.5-7.8,3.5l-0.8-1.8c2.5-1.1,5.1-2.2,7.6-3.5L595.7,353.7z M588,357.2c-4.8,2-9.6,3.6-13.3,4.1
	c-1.8,0.3-3.5,0.3-4.9-0.1c-1.4-0.4-2.5-1.3-2.8-2.8l1.9-0.5c0.1,0.6,0.5,1,1.4,1.3c0.9,0.3,2.3,0.3,4,0.1c3.5-0.5,8-2,12.8-3.9
	L588,357.2z M590.8,346.7c-1.8,2.1-2.9,3.5-3.3,4.8c-0.4,1.2-0.2,2.5,1,4.3l-1.7,1.1c-1.4-2.1-1.8-4-1.2-5.9c0.6-1.8,2-3.6,3.8-5.6
	L590.8,346.7z M564.6,401.5c-9.2-0.5-16.8,1.8-22,4.3c-2.6,1.2-4.7,2.5-6.1,3.5c-0.7,0.5-1.2,0.9-1.6,1.2c-0.2,0.1-0.3,0.2-0.4,0.3
	c0,0-0.1,0.1-0.1,0.1c0,0,0,0,0,0c0,0,0,0,0,0c0,0,0,0,0,0l0,0c0,0,0,0-0.7-0.8c-0.7-0.8-0.7-0.8-0.7-0.8c0,0,0,0,0,0c0,0,0,0,0,0
	c0,0,0,0,0,0c0,0,0,0,0,0c0,0,0.1-0.1,0.1-0.1c0.1-0.1,0.2-0.2,0.4-0.4c0.4-0.3,1-0.7,1.7-1.2c1.5-1,3.6-2.3,6.4-3.6
	c5.5-2.6,13.4-5.1,23-4.5L564.6,401.5z M540.7,360.1c-2.8,4.8-10.5,16.4-18.5,24.1l-1.4-1.4c7.8-7.5,15.4-18.9,18.1-23.7
	L540.7,360.1z"/>
<path class="st4" d="M70.3,307c9.9-9,37-21.7,66.3,0"/>
<path class="st5" d="M405,43.1l-7.9-38.9 M394.9,48.9l-25.7-31.7 M382.9,58.3l-37.5-17"/>
<path class="st5" d="M670.1,244.9l39.6-3 M667.3,256.3l37.5,16.1 M661.6,270.3l26.5,31.5"/>
<path d="M247.8,12.1c0-0.6,0.4-1,1-1s1,0.4,1,1H247.8z M249.8,22.5c0,0.6-0.4,1-1,1s-1-0.4-1-1H249.8z M247.8,31.8c0-0.6,0.4-1,1-1
	s1,0.4,1,1H247.8z M249.8,42.2c0,0.6-0.4,1-1,1s-1-0.4-1-1H249.8z M238.9,28c-0.6,0-1-0.4-1-1s0.4-1,1-1V28z M245.1,26
	c0.6,0,1,0.4,1,1s-0.4,1-1,1V26z M252.5,28c-0.6,0-1-0.4-1-1s0.4-1,1-1V28z M258.7,26c0.6,0,1,0.4,1,1s-0.4,1-1,1V26z M232,59.3
	c0-0.6,0.4-1,1-1c0.6,0,1,0.4,1,1H232z M234,65.1c0,0.6-0.4,1-1,1c-0.6,0-1-0.4-1-1H234z M232,74.5c0-0.6,0.4-1,1-1c0.6,0,1,0.4,1,1
	H232z M234,80.3c0,0.6-0.4,1-1,1c-0.6,0-1-0.4-1-1H234z M225.4,70.7c-0.6,0-1-0.4-1-1s0.4-1,1-1V70.7z M229.3,68.7c0.6,0,1,0.4,1,1
	s-0.4,1-1,1V68.7z M236.8,70.7c-0.6,0-1-0.4-1-1s0.4-1,1-1V70.7z M240.7,68.7c0.6,0,1,0.4,1,1s-0.4,1-1,1V68.7z M249.8,12.1v10.4h-2
	V12.1H249.8z M249.8,31.8v10.4h-2V31.8H249.8z M238.9,26h6.2v2h-6.2V26z M252.5,26h6.2v2h-6.2V26z M234,59.3v5.8h-2v-5.8H234z
	 M234,74.5v5.8h-2v-5.8H234z M225.4,68.7h3.9v2h-3.9V68.7z M236.8,68.7h3.9v2h-3.9V68.7z"/>
<circle cx="281.8" cy="63.6" r="1.7"/>
<circle cx="220" cy="47.8" r="1.7"/>
<path d="M605.6,48.2c-0.2-0.5,0.1-1.1,0.7-1.3c0.5-0.2,1.1,0.1,1.3,0.7L605.6,48.2z M610.6,57.5c0.2,0.5-0.1,1.1-0.7,1.3
	c-0.5,0.2-1.1-0.1-1.3-0.7L610.6,57.5z M611.4,67.1c-0.2-0.5,0.1-1.1,0.7-1.3c0.5-0.2,1.1,0.1,1.3,0.7L611.4,67.1z M616.4,76.4
	c0.2,0.5-0.1,1.1-0.7,1.3c-0.5,0.2-1.1-0.1-1.3-0.7L616.4,76.4z M601.8,66.1c-0.5,0.2-1.1-0.1-1.3-0.7c-0.2-0.5,0.1-1.1,0.7-1.3
	L601.8,66.1z M607.1,62.3c0.5-0.2,1.1,0.1,1.3,0.7c0.2,0.5-0.1,1.1-0.7,1.3L607.1,62.3z M614.8,62c-0.5,0.2-1.1-0.1-1.3-0.7
	c-0.2-0.5,0.1-1.1,0.7-1.3L614.8,62z M620.1,58.3c0.5-0.2,1.1,0.1,1.3,0.7c0.2,0.5-0.1,1.1-0.7,1.3L620.1,58.3z M607.5,47.6l3.1,9.9
	l-1.9,0.6l-3.1-9.9L607.5,47.6z M613.3,66.5l3.1,9.9l-1.9,0.6l-3.1-9.9L613.3,66.5z M601.2,64.2l5.9-1.8l0.6,1.9l-5.9,1.8
	L601.2,64.2z M614.2,60.1l5.9-1.8l0.6,1.9l-5.9,1.8L614.2,60.1z"/>
<path d="M360.3,263.8c-0.2-0.5,0.1-1.1,0.7-1.3c0.5-0.2,1.1,0.1,1.3,0.7L360.3,263.8z M365.3,273.1c0.2,0.5-0.1,1.1-0.7,1.3
	c-0.5,0.2-1.1-0.1-1.3-0.7L365.3,273.1z M366.2,282.6c-0.2-0.5,0.1-1.1,0.7-1.3c0.5-0.2,1.1,0.1,1.3,0.7L366.2,282.6z M371.2,291.9
	c0.2,0.5-0.1,1.1-0.7,1.3c-0.5,0.2-1.1-0.1-1.3-0.7L371.2,291.9z M356.5,281.6c-0.5,0.2-1.1-0.1-1.3-0.7c-0.2-0.5,0.1-1.1,0.7-1.3
	L356.5,281.6z M361.9,277.9c0.5-0.2,1.1,0.1,1.3,0.7c0.2,0.5-0.1,1.1-0.7,1.3L361.9,277.9z M369.6,277.6c-0.5,0.2-1.1-0.1-1.3-0.7
	c-0.2-0.5,0.1-1.1,0.7-1.3L369.6,277.6z M374.9,273.8c0.5-0.2,1.1,0.1,1.3,0.7c0.2,0.5-0.1,1.1-0.7,1.3L374.9,273.8z M362.2,263.2
	l3.1,9.9l-1.9,0.6l-3.1-9.9L362.2,263.2z M368.1,282l3.1,9.9l-1.9,0.6l-3.1-9.9L368.1,282z M355.9,279.7l5.9-1.8l0.6,1.9l-5.9,1.8
	L355.9,279.7z M369,275.7l5.9-1.8l0.6,1.9l-5.9,1.8L369,275.7z"/>
<ellipse cx="589.7" cy="53.1" rx="1.7" ry="1.7"/>
<ellipse cx="579.1" cy="30.3" rx="1.7" ry="1.7"/>
<ellipse cx="547.2" cy="41.9" rx="1.7" ry="1.7"/>
<ellipse cx="394.3" cy="301" rx="1.7" ry="1.7"/>
<ellipse cx="403.5" cy="325.5" rx="1.7" ry="1.7"/>
<ellipse cx="428.6" cy="324.6" rx="1.7" ry="1.7"/>
<path class="st0" d="M901,542.1l47.4-159H723.4l-47.4,145.8H501.6v13.2h170.6H901z"/>
<path class="st6" d="M672.1,542.1H901l47.4-159H723.4l-47.4,145.8 M672.1,542.1l3.8-13.2 M672.1,542.1H501.6v-13.2h174.3"/>
<path class="st7" d="M800.1,451.6c-4.8,12.2-0.5,24.9,9,28.7c9.5,3.7,21.3-2.7,26.1-14.9c4.8-12.2,0.5-24.9-9-28.7
	C816.7,433,804.9,439.4,800.1,451.6z"/>
<path d="M425.5,165.9c-3.4-0.7-6.2,2.7-7.2,4.5l29.1,20.2l1.8-10.6C442.6,175.6,428.8,166.6,425.5,165.9z"/>
<path d="M510.5,293.8c-0.9,3.4,2.5,6.3,4.2,7.4l21.3-28.3l-10.5-2.2C520.9,277.1,511.4,290.5,510.5,293.8z"/>
<path d="M566.9,267.2l-0.9,11.4l6,3.8c0.9,0.2,2.9-0.4,4.2-4.5C577.5,273.9,570.6,269.1,566.9,267.2z"/>
<path d="M572.6,82.6l7.1,23.9l-8.5,4.3c-2.4-4.8-7.1-15.6-6.4-20.5C565.3,85.4,570.2,83.2,572.6,82.6z"/>
<g id="shouldAnimate">
	<path class="st0" d="M400.7,147.7c0.3-3.8,3.7-6.7,7.6-6.3l5.8,0.5l35.8,3.3l3.9,0.4c3.9,0.4,6.7,3.8,6.4,7.6l-8.6,96.1
		c-0.3,3.8-3.7,6.7-7.6,6.3l-45.5-4.2c-3.9-0.4-6.7-3.8-6.4-7.6L400.7,147.7z"/>
	<path class="st5" d="M393.3,192.3l-0.8,9.1 M414,141.9l-5.8-0.5c-3.9-0.4-7.3,2.5-7.6,6.3l-8.6,96.1c-0.3,3.8,2.5,7.2,6.4,7.6
		l45.5,4.2c3.9,0.4,7.3-2.5,7.6-6.3l8.6-96.1c0.3-3.8-2.5-7.2-6.4-7.6l-3.9-0.4L414,141.9z M414,141.9l-0.3,3
		c-0.3,3.8,2.5,7.2,6.4,7.6l21.9,2c3.9,0.4,7.3-2.5,7.6-6.3l0.3-3L414,141.9z M414,141.9l35.8,3.3L414,141.9z M405,242.3l35.8,3.3
		L405,242.3z M463.4,156.5l-2.5,27.8L463.4,156.5z"/>
	<path class="st0" d="M561.6,73c3.7-1.2,7.6,0.8,8.8,4.5l1.8,5.5l11,34.1l1.2,3.8c1.2,3.7-0.8,7.6-4.5,8.8l-91.9,29.7
		c-3.7,1.2-7.6-0.8-8.8-4.5l-14-43.3c-1.2-3.7,0.8-7.6,4.5-8.8L561.6,73z"/>
	<path class="st5" d="M517.7,83.7l-8.7,2.8 M572.2,82.9l-1.8-5.5c-1.2-3.7-5.1-5.7-8.8-4.5l-91.9,29.7c-3.7,1.2-5.7,5.1-4.5,8.8
		l14,43.3c1.2,3.7,5.1,5.7,8.8,4.5l91.9-29.7c3.7-1.2,5.7-5.1,4.5-8.8l-1.2-3.8L572.2,82.9z M572.2,82.9l-2.9,0.9
		c-3.7,1.2-5.7,5.1-4.5,8.8l6.7,20.8c1.2,3.7,5.1,5.7,8.8,4.5l2.9-0.9L572.2,82.9z M572.2,82.9l11,34.1L572.2,82.9z M476.3,114
		l11,34.1L476.3,114z M578.1,133.8l-26.6,8.6L578.1,133.8z"/>
	<path class="st0" d="M461.3,193c-2.2,3.2-6.6,3.9-9.7,1.7l-4.7-3.3l-29.3-20.6l-3.2-2.3c-3.2-2.2-3.9-6.6-1.7-9.7l55.6-78.9
		c2.2-3.2,6.6-3.9,9.7-1.7l37.2,26.2c3.2,2.2,3.9,6.6,1.7,9.7L461.3,193z"/>
	<path class="st5" d="M490,158l5.2-7.4 M446.8,191.3l4.7,3.3c3.2,2.2,7.5,1.5,9.7-1.7l55.6-78.9c2.2-3.2,1.5-7.5-1.7-9.7L478,78.1
		c-3.2-2.2-7.5-1.5-9.7,1.7l-55.6,78.9c-2.2,3.2-1.5,7.5,1.7,9.7l3.2,2.3L446.8,191.3z M446.8,191.3l1.7-2.5
		c2.2-3.2,1.5-7.5-1.7-9.7L429,166.5c-3.2-2.2-7.5-1.5-9.7,1.7l-1.8,2.5L446.8,191.3z M446.8,191.3l-29.3-20.6L446.8,191.3z
		 M504.9,108.9l-29.3-20.6L504.9,108.9z M411.5,154.2l16.1-22.8L411.5,154.2z"/>
	<path class="st0" d="M588,285.3c-2.2,3.2-6.6,3.9-9.7,1.7l-4.7-3.3L544.3,263l-3.2-2.3c-3.2-2.2-3.9-6.6-1.7-9.7l55.6-78.9
		c2.2-3.2,6.6-3.9,9.7-1.7l37.2,26.2c3.1,2.2,3.9,6.6,1.7,9.7L588,285.3z"/>
	<path class="st5" d="M616.7,250.3l5.2-7.4 M573.6,283.6l4.7,3.3c3.2,2.2,7.5,1.5,9.7-1.7l55.6-78.9c2.2-3.2,1.5-7.5-1.7-9.7
		l-37.2-26.2c-3.2-2.2-7.5-1.5-9.7,1.7L539.4,251c-2.2,3.2-1.5,7.5,1.7,9.7l3.2,2.3L573.6,283.6z M573.6,283.6l1.8-2.5
		c2.2-3.2,1.5-7.5-1.7-9.7l-17.9-12.6c-3.2-2.2-7.5-1.5-9.7,1.7l-1.7,2.5L573.6,283.6z M573.6,283.6L544.3,263L573.6,283.6z
		 M631.6,201.2l-29.3-20.6L631.6,201.2z M538.3,246.5l16.1-22.8L538.3,246.5z"/>
	<path class="st0" d="M511,222.4c0.3-3.8,3.7-6.7,7.6-6.3l5.8,0.5l35.7,3.2l3.9,0.4c3.8,0.3,6.7,3.7,6.3,7.6l-8.8,96.3
		c-0.3,3.8-3.7,6.7-7.6,6.3l-45.4-4.1c-3.8-0.3-6.7-3.7-6.3-7.6L511,222.4z"/>
	<path class="st5" d="M518.6,256.5l36.1,3.5l-2.9,33.8l-36-3.8 M524.3,216.6l-5.8-0.5c-3.8-0.3-7.2,2.5-7.6,6.3l-8.8,96.3
		c-0.4,3.8,2.5,7.2,6.3,7.6l45.4,4.1c3.8,0.3,7.2-2.5,7.6-6.3l8.8-96.3c0.3-3.8-2.5-7.2-6.3-7.6l-3.9-0.4L524.3,216.6z M524.3,216.6
		l-0.3,3c-0.3,3.8,2.5,7.2,6.3,7.6l21.8,2c3.8,0.3,7.2-2.5,7.6-6.3l0.3-3L524.3,216.6z M524.3,216.6l35.7,3.2L524.3,216.6z
		 M515.2,317.2l35.7,3.2L515.2,317.2z M573.5,231.1l-2.5,27.9L573.5,231.1z M503.5,267.1l-0.8,9.1L503.5,267.1z M516.6,300.4
		l35.7,3.2L516.6,300.4z M520.8,240.7l35.7,3.2L520.8,240.7z"/>
	<path class="st0" d="M641,192.6c1.6,3.5,0.1,7.7-3.4,9.3l-5.2,2.4l-32.5,15l-3.6,1.7c-3.5,1.6-7.7,0.1-9.3-3.4L546.5,130
		c-1.6-3.5-0.1-7.7,3.4-9.3l41.3-19.1c3.5-1.6,7.7-0.1,9.3,3.4L641,192.6z"/>
	<path class="st5" d="M625.1,150.3l-3.8-8.3 M632.4,204.3l5.2-2.4c3.5-1.6,5-5.8,3.4-9.3L600.5,105c-1.6-3.5-5.8-5-9.3-3.4
		l-41.3,19.1c-3.5,1.6-5,5.8-3.4,9.3l40.5,87.6c1.6,3.5,5.8,5,9.3,3.4l3.6-1.7L632.4,204.3z M632.4,204.3l-1.3-2.8
		c-1.6-3.5-5.8-5-9.3-3.4l-19.8,9.2c-3.5,1.6-5,5.8-3.4,9.3l1.3,2.8L632.4,204.3z M632.4,204.3l-32.5,15L632.4,204.3z M590.1,112.8
		l-32.5,15L590.1,112.8z M582.6,216.3L570.8,191L582.6,216.3z"/>
	<path class="st0" d="M536.7,259.6c3.2,2.2,3.9,6.6,1.7,9.7l-3.3,4.7l-20.6,29.3l-2.3,3.2c-2.2,3.2-6.6,3.9-9.7,1.7l-78.9-55.6
		c-3.2-2.2-3.9-6.6-1.7-9.7l26.2-37.2c2.2-3.2,6.6-3.9,9.7-1.7L536.7,259.6z"/>
	<path class="st5" d="M535.1,274l3.3-4.7c2.2-3.2,1.5-7.5-1.7-9.7l-78.9-55.6c-3.2-2.2-7.5-1.5-9.7,1.7l-26.2,37.2
		c-2.2,3.2-1.5,7.5,1.7,9.7l78.9,55.6c3.2,2.2,7.5,1.5,9.7-1.7l2.3-3.2L535.1,274z M535.1,274l-2.5-1.8c-3.2-2.2-7.5-1.5-9.7,1.7
		l-12.6,17.9c-2.2,3.2-1.5,7.5,1.7,9.7l2.5,1.7L535.1,274z M535.1,274l-20.6,29.3L535.1,274z M497.9,309.3l-22.8-16.1L497.9,309.3z
		 M501.8,230.9l-7.4-5.2L501.8,230.9z M454,216l-20.6,29.3l39.5,27.8l20.6-29.3L454,216z"/>
	<path d="M555.2,228.4c3.3-1.1,4.5-7.3,4.5-9.4l-35.3-3.1c0,0,0,7.9,3.7,10.1C531.9,228.2,551.9,229.5,555.2,228.4z"/>
	<path d="M599,209.1c-2.3,2.6-0.2,8.6,0.8,10.4l32-15.1c0,0-4-6.8-8.3-6.8C619.3,197.6,601.3,206.5,599,209.1z"/>
	<path class="st8" d="M578.8,128.6L578.8,128.6c-10.9,4.9-15.8,17.7-11,28.6l0,0c4.9,10.9,17.7,15.8,28.6,11l0,0
		c10.9-4.9,15.8-17.7,11-28.6l0,0C602.6,128.6,589.8,123.7,578.8,128.6z"/>
	<path class="st0" d="M435.3,155.8c-2.1-1.5-2.7-4.4-1.2-6.6l16.3-23.5l16.3-23.5c1.5-2.1,4.4-2.7,6.6-1.2l22,15.2
		c2.1,1.5,2.7,4.4,1.2,6.6l-16.3,23.5l-16.3,23.5c-1.5,2.1-4.4,2.7-6.6,1.2L435.3,155.8z"/>
	<path class="st9" d="M450.4,125.7l29.8,20.6 M450.4,125.7l-16.3,23.5c-1.5,2.1-0.9,5.1,1.2,6.6l22,15.2c2.1,1.5,5.1,0.9,6.6-1.2
		l16.3-23.5L450.4,125.7z M450.4,125.7l16.3-23.5c1.5-2.1,4.4-2.7,6.6-1.2l22,15.2c2.1,1.5,2.7,4.4,1.2,6.6l-16.3,23.5L450.4,125.7z
		"/>
</g>
<path d="M423.9,71.2c0.4-1.2-0.3-2.5-1.5-2.9c-1.2-0.4-2.5,0.3-2.9,1.5L423.9,71.2z M416.8,78.6c-0.4,1.2,0.3,2.5,1.5,2.9
	c1.2,0.4,2.5-0.3,2.9-1.5L416.8,78.6z M418.7,87.9c0.4-1.2-0.3-2.5-1.5-2.9c-1.2-0.4-2.5,0.3-2.9,1.5L418.7,87.9z M411.5,95.4
	c-0.4,1.2,0.3,2.5,1.5,2.9c1.2,0.4,2.5-0.3,2.9-1.5L411.5,95.4z M425.5,88c1.2,0.4,2.5-0.3,2.9-1.5c0.4-1.2-0.3-2.5-1.5-2.9
	L425.5,88z M421.6,82c-1.2-0.4-2.5,0.3-2.9,1.5c-0.4,1.2,0.3,2.5,1.5,2.9L421.6,82z M413.9,84.4c1.2,0.4,2.5-0.3,2.9-1.5
	c0.4-1.2-0.3-2.5-1.5-2.9L413.9,84.4z M410,78.4c-1.2-0.4-2.5,0.3-2.9,1.5c-0.4,1.2,0.3,2.5,1.5,2.9L410,78.4z M419.5,69.9l-2.7,8.8
	l4.4,1.4l2.7-8.8L419.5,69.9z M414.3,86.6l-2.7,8.8l4.4,1.4l2.7-8.8L414.3,86.6z M426.8,83.6l-5.3-1.6l-1.4,4.4l5.3,1.6L426.8,83.6z
	 M415.3,80l-5.3-1.6l-1.4,4.4l5.3,1.6L415.3,80z"/>
<path d="M436.2,76.5c0.8,0.2,1.7-0.2,1.9-1c0.2-0.8-0.2-1.7-1-1.9c-0.8-0.2-1.7,0.2-1.9,1C434.9,75.4,435.4,76.3,436.2,76.5z"/>
<path d="M445.5,56.4c0.8,0.2,1.7-0.2,1.9-1c0.2-0.8-0.2-1.7-1-1.9c-0.8-0.2-1.7,0.2-1.9,1C444.3,55.2,444.7,56.1,445.5,56.4z"/>
<path d="M473.9,66.6c0.8,0.2,1.7-0.2,1.9-1c0.2-0.8-0.2-1.7-1-1.9c-0.8-0.2-1.7,0.2-1.9,1C472.7,65.5,473.1,66.4,473.9,66.6z"/>
</svg>
