<svg width="539" height="516" viewBox="0 0 539 516" fill="none" xmlns="http://www.w3.org/2000/svg">
<g opacity="0.3">
<path d="M84.0009 417.815C84.9439 395.822 137.438 373.985 153.706 388.909C154.256 389.459 158.578 393.465 158.421 399.356C157.949 420.407 101.997 442.637 87.6158 427.87C83.8437 424.021 84.0009 418.837 84.0009 417.815Z" stroke="white" stroke-width="2" stroke-miterlimit="10" stroke-linecap="round" stroke-linejoin="round"/>
<path d="M163.607 410.274C163.843 411.295 164 412.395 164 413.494C163.529 434.546 107.576 456.775 93.1953 442.008C91.4664 440.201 90.5234 438.159 90.0519 436.352" stroke="white" stroke-width="2" stroke-miterlimit="10" stroke-linecap="round" stroke-linejoin="round"/>
<path d="M90.9949 416.087C92.4094 400.613 133.431 383.725 145.454 393.701C145.847 394.015 149.069 396.764 148.755 400.927C147.812 415.773 104.119 433.054 93.431 423.078C90.6806 420.486 90.9163 416.794 90.9949 416.087Z" stroke="white" stroke-width="2" stroke-miterlimit="10" stroke-linecap="round" stroke-linejoin="round"/>
<path d="M97.203 425.12C103.804 411.924 134.766 399.434 147.89 405.168" stroke="white" stroke-width="2" stroke-miterlimit="10" stroke-linecap="round" stroke-linejoin="round"/>
<path d="M84.7082 422.92L90.8378 438.866" stroke="white" stroke-width="2" stroke-miterlimit="10" stroke-linecap="round" stroke-linejoin="round"/>
<path d="M158.342 396.371L163.686 410.981" stroke="white" stroke-width="2" stroke-miterlimit="10" stroke-linecap="round" stroke-linejoin="round"/>
</g>
<path d="M39.0488 228.337C41.0932 227.769 43.2512 227.087 45.6364 226.406" stroke="white" stroke-width="0.75" stroke-miterlimit="10"/>
<path d="M58.8115 221.407C72.2137 215.385 86.7517 205.842 97.5417 190.277C122.529 154.263 106.174 117.453 131.842 97.1162C149.901 82.8012 162.736 92.231 198.854 77.0071C217.48 69.1679 232.246 58.8293 243.376 49.1724" stroke="white" stroke-width="0.75" stroke-miterlimit="10" stroke-dasharray="12.41 12.41"/>
<path d="M248.601 44.5143C250.304 42.9238 252.008 41.3332 253.485 39.7427" stroke="white" stroke-width="0.75" stroke-miterlimit="10"/>
<path d="M74.9399 226.633C116.396 219.475 139.907 203.115 154.218 187.55C176.933 162.67 191.471 123.36 229.861 114.158C239.742 111.772 248.26 112.113 253.599 112.681" stroke="white" stroke-width="4" stroke-miterlimit="10"/>
<path d="M71.4189 227.201C72.214 227.087 72.8955 226.973 73.6905 226.86" stroke="white" stroke-width="4" stroke-miterlimit="10"/>
<path d="M67.3301 227.769C68.1251 227.655 68.8066 227.541 69.6016 227.428" stroke="white" stroke-width="4" stroke-miterlimit="10"/>
<path d="M31.4395 230.268C42.9109 229.473 54.3823 228.791 65.8537 227.996" stroke="white" stroke-width="4" stroke-miterlimit="10"/>
<path d="M91.9764 248.105C92.3171 247.083 88.4555 246.288 86.1839 242.993C83.0037 238.335 85.1617 231.973 84.2531 231.859C84.1395 231.859 83.9123 232.313 82.7766 234.813C81.9815 236.631 81.7544 236.858 81.5272 236.971C80.2778 237.312 77.8927 233.336 77.2112 232.2C74.2582 226.974 73.9175 222.884 73.5767 222.997C73.1224 223.111 73.0088 227.769 74.8261 232.541C75.6211 234.699 76.4162 235.949 76.3026 235.949C76.0754 236.063 72.5545 232.427 71.1916 227.201C70.3965 224.361 70.5101 222.088 70.1694 222.088C69.8286 222.088 69.0336 224.701 69.2607 227.542C69.715 233.109 73.5767 236.744 73.236 237.085C73.0088 237.312 71.078 235.949 69.4879 233.563C66.4213 229.019 66.6484 224.02 66.1941 224.02C65.8534 224.02 65.3991 226.178 65.6262 228.791C66.3077 234.472 70.5101 237.994 70.1694 238.335C69.9422 238.562 67.4435 236.744 65.2855 233.904C63.4682 231.404 62.9003 229.359 62.6732 229.359C62.446 229.473 62.7868 232.768 64.4904 235.949C65.1719 237.085 65.8534 238.108 70.3965 242.198C76.6433 247.878 77.8927 248.333 79.0285 248.673C79.7099 248.901 81.6408 248.901 85.5024 248.901C91.2949 248.787 91.8628 248.446 91.9764 248.105Z" stroke="white" stroke-width="0.75" stroke-miterlimit="10"/>
<path d="M342.303 165.851C342.189 167.1 342.189 167.782 342.417 167.782C342.871 167.896 343.78 166.078 345.37 162.329C344.461 162.215 343.78 161.988 343.666 161.761C343.552 160.965 347.528 159.375 348.323 160.284C348.55 160.511 348.55 160.965 347.868 163.01C346.96 165.737 346.278 167.214 346.392 167.328C346.505 167.441 348.777 163.692 351.616 158.125C353.434 154.49 354.229 152.445 354.57 152.558C354.91 152.672 354.115 155.739 353.547 157.898C351.73 163.919 349.458 167.896 349.686 168.009C349.913 168.123 351.503 165.737 353.093 162.783C355.251 158.58 356.046 155.398 356.5 155.512C356.841 155.626 356.614 157.443 356.387 159.148C355.365 164.828 352.752 168.464 353.093 168.691C353.32 168.805 355.478 166.305 357.182 163.578C358.09 162.102 358.545 161.193 358.658 161.306C358.885 161.42 357.977 164.487 356.614 167.328C355.932 168.691 355.024 170.054 353.32 172.554C353.32 172.554 349.345 178.348 346.278 180.052C346.051 180.166 345.938 180.166 345.824 180.279C344.007 181.075 343.78 180.393 339.464 181.529C336.17 182.324 334.693 183.12 334.353 182.552C333.785 181.87 336.397 179.484 338.214 175.848C339.918 172.213 340.145 168.691 340.032 166.305" stroke="white" stroke-width="0.75" stroke-miterlimit="10"/>
<path d="M343.893 165.624L288.24 174.258L277.109 126.882L335.488 117.793L345.483 160.284" stroke="white" stroke-width="0.75" stroke-miterlimit="10"/>
<path d="M54.7227 37.0156V252.99" stroke="white" stroke-width="0.75" stroke-miterlimit="10" stroke-linecap="round" stroke-linejoin="round"/>
<path d="M97.6553 37.0156V252.99" stroke="white" stroke-width="0.75" stroke-miterlimit="10" stroke-linecap="round" stroke-linejoin="round"/>
<path d="M140.588 37.0156V252.99" stroke="white" stroke-width="0.75" stroke-miterlimit="10" stroke-linecap="round" stroke-linejoin="round"/>
<path d="M183.521 37.0156V252.99" stroke="white" stroke-width="0.75" stroke-miterlimit="10" stroke-linecap="round" stroke-linejoin="round"/>
<path d="M226.794 37.0156V171.304" stroke="white" stroke-width="0.75" stroke-miterlimit="10" stroke-linecap="round" stroke-linejoin="round"/>
<path d="M255.643 58.0342H28.5996" stroke="white" stroke-width="0.75" stroke-miterlimit="10" stroke-linecap="round" stroke-linejoin="round"/>
<path d="M255.643 100.979H28.5996" stroke="white" stroke-width="0.75" stroke-miterlimit="10" stroke-linecap="round" stroke-linejoin="round"/>
<path d="M255.643 143.924H28.5996" stroke="white" stroke-width="0.75" stroke-miterlimit="10" stroke-linecap="round" stroke-linejoin="round"/>
<path d="M211.006 186.982H28.5996" stroke="white" stroke-width="0.75" stroke-miterlimit="10" stroke-linecap="round" stroke-linejoin="round"/>
<path d="M66.0805 229.813H28.5996" stroke="white" stroke-width="0.75" stroke-miterlimit="10" stroke-linecap="round" stroke-linejoin="round"/>
<path d="M69.9424 229.813H67.8979" stroke="white" stroke-width="0.75" stroke-miterlimit="10" stroke-linecap="round" stroke-linejoin="round"/>
<path d="M74.1449 229.813H72.3276" stroke="white" stroke-width="0.75" stroke-miterlimit="10" stroke-linecap="round" stroke-linejoin="round"/>
<path d="M255.643 229.813H76.189" stroke="white" stroke-width="0.75" stroke-miterlimit="10" stroke-linecap="round" stroke-linejoin="round"/>
<path d="M226.68 219.248C223.841 219.134 222.819 220.27 221.797 219.475C220.774 218.794 221.569 217.544 220.547 216.408C219.525 215.385 218.389 216.18 216.345 215.385C214.187 214.59 214.641 213.34 212.256 212.204C210.098 211.068 209.076 211.863 207.599 210.841C207.145 210.5 206.463 209.818 205.328 206.524C204.078 202.888 203.397 201.07 203.397 198.684C203.283 194.935 204.646 194.822 204.305 191.981C203.851 188.573 201.92 188.346 201.58 184.937C201.466 183.688 201.807 182.211 202.488 179.257C203.17 176.189 203.51 174.599 204.078 173.69C206.009 170.85 208.281 171.645 210.325 168.805C211.915 166.532 211.007 165.51 212.483 164.147C214.3 162.442 216.231 163.692 220.661 163.011C225.885 162.102 226.68 159.716 229.861 160.17C232.7 160.511 232.473 163.124 235.994 164.374C239.288 165.51 240.651 163.919 242.695 165.396C244.739 166.76 243.717 168.464 246.216 171.872C248.374 174.826 250.305 175.053 250.873 177.553C251.213 179.03 250.759 179.484 250.532 181.529C250.191 187.323 254.053 189.141 253.031 193.004C252.463 195.049 251.44 194.594 249.623 198.23C248.147 201.297 248.828 201.752 247.579 203.797C245.875 206.637 244.512 205.842 240.991 209.818C239.628 211.409 239.174 212.204 237.243 214.135C236.221 215.158 235.54 215.726 234.404 216.635C231.224 219.362 230.315 219.475 229.974 219.589C228.725 219.93 228.725 219.362 226.68 219.248Z" fill="white"/>
<path d="M463.145 342.975L470.073 359.675L472.345 357.971C474.049 360.13 475.866 362.288 477.569 364.447C478.365 363.879 479.16 363.197 479.841 362.629C478.137 360.584 476.434 358.539 474.73 356.494C475.525 355.926 476.207 355.472 477.002 354.904L463.145 342.975Z" fill="white"/>
<path d="M341.049 285.488H523.342" stroke="white" stroke-width="0.75" stroke-miterlimit="10" stroke-linecap="round" stroke-linejoin="round"/>
<path d="M402.267 293.554H349.794V393.191H402.267V293.554Z" stroke="white" stroke-width="0.75" stroke-miterlimit="10" stroke-linecap="round" stroke-linejoin="round"/>
<path d="M515.278 293.554H411.467V329.228H515.278V293.554Z" stroke="white" stroke-width="0.75" stroke-miterlimit="10" stroke-linecap="round" stroke-linejoin="round"/>
<path d="M459.625 336.727H411.467V393.191H459.625V336.727Z" stroke="white" stroke-width="0.75" stroke-miterlimit="10" stroke-linecap="round" stroke-linejoin="round"/>
<path d="M515.278 336.727H468.029V393.191H515.278V336.727Z" stroke="white" stroke-width="0.75" stroke-miterlimit="10" stroke-linecap="round" stroke-linejoin="round"/>
<path d="M455.763 298.099H415.556V301.734H455.763V298.099Z" stroke="white" stroke-width="0.75" stroke-miterlimit="10" stroke-linecap="round" stroke-linejoin="round"/>
<path d="M455.763 306.847H415.556V308.664H455.763V306.847Z" stroke="white" stroke-width="0.75" stroke-miterlimit="10" stroke-linecap="round" stroke-linejoin="round"/>
<path d="M455.763 311.391H415.556V313.209H455.763V311.391Z" stroke="white" stroke-width="0.75" stroke-miterlimit="10" stroke-linecap="round" stroke-linejoin="round"/>
<path d="M455.763 315.936H415.556V317.753H455.763V315.936Z" stroke="white" stroke-width="0.75" stroke-miterlimit="10" stroke-linecap="round" stroke-linejoin="round"/>
<path d="M455.763 320.48H415.556V322.298H455.763V320.48Z" stroke="white" stroke-width="0.75" stroke-miterlimit="10" stroke-linecap="round" stroke-linejoin="round"/>
<path d="M511.757 306.847H471.55V308.664H511.757V306.847Z" stroke="white" stroke-width="0.75" stroke-miterlimit="10" stroke-linecap="round" stroke-linejoin="round"/>
<path d="M511.757 311.391H471.55V313.209H511.757V311.391Z" stroke="white" stroke-width="0.75" stroke-miterlimit="10" stroke-linecap="round" stroke-linejoin="round"/>
<path d="M511.757 315.936H471.55V317.753H511.757V315.936Z" stroke="white" stroke-width="0.75" stroke-miterlimit="10" stroke-linecap="round" stroke-linejoin="round"/>
<path d="M511.757 320.48H471.55V322.298H511.757V320.48Z" stroke="white" stroke-width="0.75" stroke-miterlimit="10" stroke-linecap="round" stroke-linejoin="round"/>
<path d="M396.134 303.098H355.927V304.915H396.134V303.098Z" stroke="white" stroke-width="0.75" stroke-miterlimit="10" stroke-linecap="round" stroke-linejoin="round"/>
<path d="M396.134 307.642H355.927V309.459H396.134V307.642Z" stroke="white" stroke-width="0.75" stroke-miterlimit="10" stroke-linecap="round" stroke-linejoin="round"/>
<path d="M396.134 312.073H355.927V313.891H396.134V312.073Z" stroke="white" stroke-width="0.75" stroke-miterlimit="10" stroke-linecap="round" stroke-linejoin="round"/>
<path d="M396.134 316.617H355.927V318.435H396.134V316.617Z" stroke="white" stroke-width="0.75" stroke-miterlimit="10" stroke-linecap="round" stroke-linejoin="round"/>
<path d="M396.134 321.162H355.927V322.979H396.134V321.162Z" stroke="white" stroke-width="0.75" stroke-miterlimit="10" stroke-linecap="round" stroke-linejoin="round"/>
<path d="M396.134 325.706H355.927V327.524H396.134V325.706Z" stroke="white" stroke-width="0.75" stroke-miterlimit="10" stroke-linecap="round" stroke-linejoin="round"/>
<path d="M396.134 330.137H355.927V331.954H396.134V330.137Z" stroke="white" stroke-width="0.75" stroke-miterlimit="10" stroke-linecap="round" stroke-linejoin="round"/>
<path d="M396.134 334.682H355.927V336.499H396.134V334.682Z" stroke="white" stroke-width="0.75" stroke-miterlimit="10" stroke-linecap="round" stroke-linejoin="round"/>
<path d="M396.134 339.226H355.927V341.043H396.134V339.226Z" stroke="white" stroke-width="0.75" stroke-miterlimit="10" stroke-linecap="round" stroke-linejoin="round"/>
<path d="M396.134 343.771H355.927V345.588H396.134V343.771Z" stroke="white" stroke-width="0.75" stroke-miterlimit="10" stroke-linecap="round" stroke-linejoin="round"/>
<path d="M396.134 348.201H355.927V350.019H396.134V348.201Z" stroke="white" stroke-width="0.75" stroke-miterlimit="10" stroke-linecap="round" stroke-linejoin="round"/>
<path d="M396.134 352.745H355.927V354.563H396.134V352.745Z" stroke="white" stroke-width="0.75" stroke-miterlimit="10" stroke-linecap="round" stroke-linejoin="round"/>
<path d="M396.134 357.29H355.927V359.108H396.134V357.29Z" stroke="white" stroke-width="0.75" stroke-miterlimit="10" stroke-linecap="round" stroke-linejoin="round"/>
<path d="M396.134 361.834H355.927V363.652H396.134V361.834Z" stroke="white" stroke-width="0.75" stroke-miterlimit="10" stroke-linecap="round" stroke-linejoin="round"/>
<path d="M485.975 253.563H385.344V267.992H485.975V253.563Z" stroke="white" stroke-width="0.75" stroke-miterlimit="10"/>
<path d="M395.566 370.241H355.927V379.444H395.566V370.241Z" stroke="white" stroke-width="0.75" stroke-miterlimit="10" stroke-linecap="round" stroke-linejoin="round"/>
<path d="M523.228 233.34H341.049V393.191H523.228V233.34Z" stroke="white" stroke-width="0.75" stroke-miterlimit="10" stroke-linecap="round" stroke-linejoin="round"/>
<path d="M280.062 139.379C280.062 187.891 280.062 236.517 280.062 285.029H1V6H279.948C279.948 46.1047 279.948 86.323 279.948 126.428" stroke="white" stroke-width="0.75" stroke-miterlimit="10" stroke-linecap="round" stroke-linejoin="round"/>
<path d="M275.519 10.5444H5.54346V280.598H275.519V10.5444Z" stroke="white" stroke-width="0.75" stroke-miterlimit="10" stroke-linecap="round" stroke-linejoin="round"/>
<path d="M312.886 161.533C324.554 161.533 334.012 154.819 334.012 146.537C334.012 138.254 324.554 131.54 312.886 131.54C301.219 131.54 291.761 138.254 291.761 146.537C291.761 154.819 301.219 161.533 312.886 161.533Z" stroke="white" stroke-width="0.75" stroke-miterlimit="10" stroke-linecap="round" stroke-linejoin="round"/>
<path d="M291.761 130.518L297.44 136.198" stroke="white" stroke-width="0.75" stroke-miterlimit="10" stroke-linecap="round" stroke-linejoin="round"/>
<path d="M299.143 127.678C299.257 127.905 302.778 133.358 302.778 133.358" stroke="white" stroke-width="0.75" stroke-miterlimit="10" stroke-linecap="round" stroke-linejoin="round"/>
<path d="M308.116 125.974C308.116 126.314 308.797 131.881 308.797 131.881" stroke="white" stroke-width="0.75" stroke-miterlimit="10" stroke-linecap="round" stroke-linejoin="round"/>
<path d="M315.158 126.428C315.044 126.655 314.477 131.54 314.477 131.54" stroke="white" stroke-width="0.75" stroke-miterlimit="10" stroke-linecap="round" stroke-linejoin="round"/>
<path d="M319.133 132.222L322.654 127.337" stroke="white" stroke-width="0.75" stroke-miterlimit="10" stroke-linecap="round" stroke-linejoin="round"/>
<path d="M324.812 134.153L328.901 129.723" stroke="white" stroke-width="0.75" stroke-miterlimit="10" stroke-linecap="round" stroke-linejoin="round"/>
<path d="M328.901 136.767L334.012 133.699" stroke="white" stroke-width="0.75" stroke-miterlimit="10" stroke-linecap="round" stroke-linejoin="round"/>
<path d="M294.6 138.584L288.581 136.198" stroke="white" stroke-width="0.75" stroke-miterlimit="10" stroke-linecap="round" stroke-linejoin="round"/>
<path d="M293.578 156.648L295.623 155.171" stroke="white" stroke-width="0.75" stroke-miterlimit="10" stroke-linecap="round" stroke-linejoin="round"/>
<path d="M295.168 158.239L297.326 156.648" stroke="white" stroke-width="0.75" stroke-miterlimit="10" stroke-linecap="round" stroke-linejoin="round"/>
<path d="M297.326 159.602L299.143 158.239" stroke="white" stroke-width="0.75" stroke-miterlimit="10" stroke-linecap="round" stroke-linejoin="round"/>
<path d="M299.938 160.966L300.961 158.921" stroke="white" stroke-width="0.75" stroke-miterlimit="10" stroke-linecap="round" stroke-linejoin="round"/>
<path d="M302.664 161.875V159.943" stroke="white" stroke-width="0.75" stroke-miterlimit="10" stroke-linecap="round" stroke-linejoin="round"/>
<path d="M304.936 162.443L305.617 160.625" stroke="white" stroke-width="0.75" stroke-miterlimit="10" stroke-linecap="round" stroke-linejoin="round"/>
<path d="M307.321 162.443L307.434 160.966" stroke="white" stroke-width="0.75" stroke-miterlimit="10" stroke-linecap="round" stroke-linejoin="round"/>
<path d="M309.706 163.238V161.534" stroke="white" stroke-width="0.75" stroke-miterlimit="10" stroke-linecap="round" stroke-linejoin="round"/>
<path d="M220.774 481.462C221.115 482.258 221.342 483.166 221.569 484.303C222.024 486.802 221.683 488.847 221.342 490.097C221.797 490.551 223.16 491.914 225.545 492.255C228.725 492.596 230.769 490.551 231.11 490.21C230.996 489.756 230.996 489.188 230.883 488.733C230.542 485.893 230.315 483.053 230.088 480.326C229.406 480.894 228.043 481.803 226.113 482.144C223.614 482.712 221.569 481.803 220.774 481.462Z" fill="#FF3D00"/>
<path d="M261.322 478.963C261.095 480.44 260.981 482.258 261.094 484.189C261.094 486.575 261.435 488.62 261.776 490.324C261.322 490.778 259.959 492.255 257.574 492.71C254.393 493.278 252.008 491.346 251.667 491.119C251.895 490.21 252.008 489.188 252.122 488.165C252.576 484.643 252.463 481.462 252.122 478.622C253.144 478.963 254.507 479.19 255.983 479.304C258.141 479.417 259.959 479.19 261.322 478.963Z" fill="#FF3D00"/>
<path d="M312.886 163.238L312.318 161.534" stroke="white" stroke-width="0.75" stroke-miterlimit="10" stroke-linecap="round" stroke-linejoin="round"/>
<path d="M315.612 163.238L315.158 161.42" stroke="white" stroke-width="0.75" stroke-miterlimit="10" stroke-linecap="round" stroke-linejoin="round"/>
<path d="M318.679 162.329L318.111 161.079" stroke="white" stroke-width="0.75" stroke-miterlimit="10" stroke-linecap="round" stroke-linejoin="round"/>
<path d="M321.404 161.648L320.609 160.625" stroke="white" stroke-width="0.75" stroke-miterlimit="10" stroke-linecap="round" stroke-linejoin="round"/>
<path d="M324.13 161.42L322.2 159.943" stroke="white" stroke-width="0.75" stroke-miterlimit="10" stroke-linecap="round" stroke-linejoin="round"/>
<path d="M325.607 159.943L324.698 158.921" stroke="white" stroke-width="0.75" stroke-miterlimit="10" stroke-linecap="round" stroke-linejoin="round"/>
<path d="M326.402 158.012L328.446 159.148" stroke="white" stroke-width="0.75" stroke-miterlimit="10" stroke-linecap="round" stroke-linejoin="round"/>
<path d="M327.878 157.103L329.469 157.443" stroke="white" stroke-width="0.75" stroke-miterlimit="10" stroke-linecap="round" stroke-linejoin="round"/>
<path d="M295.054 154.49H293.351" stroke="white" stroke-width="0.75" stroke-miterlimit="10" stroke-linecap="round" stroke-linejoin="round"/>
<path d="M329.355 155.967H330.718" stroke="white" stroke-width="0.75" stroke-miterlimit="10" stroke-linecap="round" stroke-linejoin="round"/>
<path d="M293.578 140.402C293.465 140.629 289.83 140.402 289.83 140.402" stroke="white" stroke-width="0.75" stroke-miterlimit="10" stroke-linecap="round" stroke-linejoin="round"/>
<path d="M330.718 138.357H333.444" stroke="white" stroke-width="0.75" stroke-miterlimit="10" stroke-linecap="round" stroke-linejoin="round"/>
<path d="M313.113 153.126C318.257 153.126 322.427 150.176 322.427 146.537C322.427 142.897 318.257 139.947 313.113 139.947C307.97 139.947 303.8 142.897 303.8 146.537C303.8 150.176 307.97 153.126 313.113 153.126Z" fill="white"/>
<path d="M220.774 226.519C221.229 226.519 224.636 226.519 229.179 226.178C231.678 225.951 233.722 225.724 234.631 225.724C238.833 225.27 242.241 224.588 244.967 224.02C275.178 217.885 287.672 212.772 287.672 212.772C297.099 209.023 315.953 200.048 336.511 177.326C337.306 177.326 339.464 177.439 341.395 179.03C342.417 179.825 342.985 180.734 343.325 181.302C336.851 190.505 327.311 202.207 313.454 213.113C289.83 231.745 265.865 238.903 251.781 241.857C252.803 248.56 254.053 256.967 255.416 266.51C259.505 296.39 257.801 293.323 259.505 298.094C261.89 305.024 265.865 313.204 263.139 322.975C262.798 324.225 262.458 325.134 262.23 325.702C262.23 325.247 262.23 324.793 262.344 324.338C254.28 323.543 244.285 323.202 232.927 324.225C221.569 325.247 211.915 327.519 204.192 329.792C204.192 330.133 204.306 330.36 204.306 330.701C203.965 330.473 203.397 330.019 202.829 329.337C197.037 323.089 199.762 313.318 201.353 297.867C201.693 294.799 201.92 287.983 202.488 274.463C202.943 264.465 203.056 256.285 203.056 250.946C187.61 254.922 167.052 258.671 142.633 258.785C120.598 258.898 101.631 256.058 87.0927 252.763C86.9792 252.536 85.1619 250.718 85.6162 248.105C85.957 246.174 87.3199 245.038 87.6606 244.811C144.904 245.947 169.778 241.175 181.476 236.29C181.249 236.403 204.533 226.633 220.774 226.519Z" fill="white"/>
<path d="M202.829 296.504C203.397 320.249 204.533 345.357 206.691 371.714C209.871 411.251 214.755 447.834 220.434 481.008C221.342 481.463 223.16 482.031 225.318 481.917C228.043 481.69 230.088 480.213 230.883 479.531C229.52 460.331 228.725 439.54 229.066 417.386C229.406 392.505 230.997 369.442 233.382 348.311C238.152 367.511 242.468 388.87 245.762 412.16C249.169 436.018 251.1 458.172 252.009 478.395C253.258 478.85 255.075 479.304 257.347 479.418C259.05 479.418 260.527 479.191 261.663 478.963C263.026 441.017 263.366 401.594 262.685 360.581C262.344 343.312 261.89 326.384 261.208 309.683C241.786 305.366 222.251 300.935 202.829 296.504Z" stroke="white" stroke-width="0.75" stroke-miterlimit="10"/>
<path d="M205.896 325.588C207.713 332.518 209.644 339.448 211.461 346.492C215.89 346.152 220.206 345.924 224.636 345.583C225.545 338.653 226.453 331.723 227.362 324.906C220.32 325.02 213.165 325.247 205.896 325.588Z" stroke="white" stroke-width="0.75" stroke-miterlimit="10"/>
<path d="M238.379 322.521C239.742 329.564 241.218 336.495 242.581 343.539C247.011 343.425 251.327 343.311 255.756 343.198C257.119 336.381 258.482 329.451 259.845 322.634C252.69 322.521 245.534 322.521 238.379 322.521Z" stroke="white" stroke-width="0.75" stroke-miterlimit="10"/>
<path d="M215.209 421.249C216.913 421.135 218.616 421.021 220.32 420.908" stroke="white" stroke-width="0.75" stroke-miterlimit="10"/>
<path d="M254.394 415.454C256.552 415 258.596 414.545 260.754 414.205" stroke="white" stroke-width="0.75" stroke-miterlimit="10"/>
<path d="M254.961 418.977C256.552 419.317 258.028 419.545 259.618 419.886" stroke="white" stroke-width="0.75" stroke-miterlimit="10"/>
<path d="M215.209 415.227C216.913 415.795 218.73 416.477 220.434 417.045" stroke="white" stroke-width="0.75" stroke-miterlimit="10"/>
<path d="M220.093 490.097C218.843 490.778 218.73 493.051 218.616 495.323C218.389 497.936 218.843 499.072 218.957 501.685C218.957 503.048 218.957 505.093 218.502 507.593C218.957 508.047 221.569 511.001 226.226 511.228C231.564 511.569 234.744 508.047 235.085 507.706C232.7 504.866 232.245 502.594 232.359 501.117C232.473 499.072 233.495 498.163 233.608 495.209C233.608 494.187 233.722 491.119 232.359 490.324C230.769 489.415 229.292 492.369 226.226 492.369C222.932 492.255 221.683 489.301 220.093 490.097Z" stroke="white" stroke-width="0.75" stroke-miterlimit="10"/>
<path d="M220.888 509.865C220.774 505.321 222.932 501.799 225.09 501.458C227.589 501.003 231.45 504.412 231.564 510.092" stroke="white" stroke-width="0.75" stroke-miterlimit="10"/>
<path d="M218.844 503.275C216.231 507.138 216.572 509.297 216.799 510.206C218.616 515.545 233.495 515.432 235.54 511.569C236.221 510.319 235.54 508.615 234.972 507.706" stroke="white" stroke-width="0.75" stroke-miterlimit="10"/>
<path d="M214.528 237.539C218.162 233.79 220.093 229.928 220.434 227.769C220.547 227.314 220.774 225.951 220.661 224.247C220.661 223.111 220.547 222.429 220.32 221.861C220.207 221.293 219.979 220.952 219.866 220.611C218.616 219.703 217.14 218.339 215.55 216.521C213.733 214.249 212.597 212.091 211.802 210.5" stroke="white" stroke-width="0.75" stroke-miterlimit="10"/>
<path d="M240.082 234.358C238.379 232.54 235.426 228.905 234.517 223.679C234.29 222.202 234.176 220.952 234.176 219.816C235.085 219.134 236.334 217.998 237.47 216.294C239.287 213.567 239.855 210.841 239.969 209.364" stroke="white" stroke-width="0.75" stroke-miterlimit="10"/>
<path d="M225.09 495.891C224.182 495.096 223.727 493.96 224.068 493.278C224.636 492.029 227.476 491.915 228.157 493.165C228.498 493.846 228.157 494.982 227.248 496.005C226.453 496.005 225.772 496.005 225.09 495.891Z" stroke="white" stroke-width="0.75" stroke-miterlimit="10"/>
<path d="M262.685 490.665C263.934 491.233 264.161 493.618 264.389 495.891C264.616 498.504 264.275 499.64 264.275 502.253C264.275 503.616 264.389 505.661 264.956 508.161C264.502 508.615 262.003 511.569 257.347 512.023C252.009 512.478 248.715 509.069 248.374 508.729C250.759 505.775 251.1 503.616 250.986 502.026C250.873 499.981 249.737 499.072 249.51 496.231C249.396 495.209 249.283 492.141 250.646 491.233C252.122 490.324 253.712 493.164 256.892 493.05C259.959 492.937 261.208 489.983 262.685 490.665Z" stroke="white" stroke-width="0.75" stroke-miterlimit="10"/>
<path d="M262.458 510.547C262.458 506.002 260.186 502.594 258.028 502.253C255.529 501.799 251.781 505.321 251.781 511.115" stroke="white" stroke-width="0.75" stroke-miterlimit="10"/>
<path d="M264.388 503.844C267.114 507.593 266.887 509.752 266.546 510.774C264.956 516.114 249.964 516.455 247.806 512.705C247.124 511.456 247.806 509.752 248.374 508.843" stroke="white" stroke-width="0.75" stroke-miterlimit="10"/>
<path d="M258.028 496.686C258.937 495.777 259.391 494.755 259.05 494.073C258.482 492.823 255.529 492.823 254.961 494.073C254.621 494.755 254.961 495.891 255.983 496.8C256.551 496.686 257.233 496.686 258.028 496.686Z" stroke="white" stroke-width="0.75" stroke-miterlimit="10"/>
<path d="M458.246 93.0303H450.522V163.355H458.246V93.0303Z" stroke="white" stroke-width="0.75" stroke-miterlimit="10"/>
<path d="M471.194 115.979H463.471V163.242H471.194V115.979Z" stroke="white" stroke-width="0.75" stroke-miterlimit="10"/>
<path d="M484.029 109.958H476.305V163.242H484.029V109.958Z" stroke="white" stroke-width="0.75" stroke-miterlimit="10"/>
<path d="M496.976 123.705H489.253V163.242H496.976V123.705Z" stroke="white" stroke-width="0.75" stroke-miterlimit="10"/>
<path d="M509.811 97.1201H502.087V163.355H509.811V97.1201Z" fill="white" stroke="white" stroke-width="0.75" stroke-miterlimit="10"/>
<path d="M522.758 86.1001H515.035V163.242H522.758V86.1001Z" stroke="white" stroke-width="0.75" stroke-miterlimit="10"/>
<path d="M33.0293 230.041C33.7108 223.565 34.9601 213.908 38.3675 202.661C50.066 163.124 72.5545 149.604 84.2531 123.36C91.7493 106.659 96.6331 80.8697 84.3667 41.333" stroke="white" stroke-width="0.75" stroke-miterlimit="10" stroke-linecap="round" stroke-linejoin="round"/>
<path d="M327.5 3H306.5C300.701 3 296 7.70101 296 13.5V34.5C296 40.299 300.701 45 306.5 45H327.5C333.299 45 338 40.299 338 34.5V13.5C338 7.70101 333.299 3 327.5 3Z" stroke="white" stroke-width="2" stroke-linecap="round" stroke-linejoin="round"/>
<path d="M325.4 22.6767C325.659 24.4244 325.361 26.2093 324.547 27.7776C323.733 29.3459 322.446 30.6176 320.867 31.412C319.289 32.2063 317.501 32.4828 315.756 32.2021C314.012 31.9214 312.4 31.0978 311.151 29.8485C309.902 28.5992 309.078 26.9877 308.798 25.2433C308.517 23.4989 308.793 21.7104 309.588 20.1322C310.382 18.554 311.654 17.2665 313.222 16.4528C314.79 15.639 316.575 15.3405 318.323 15.5997C320.106 15.864 321.756 16.6947 323.031 17.9691C324.305 19.2435 325.136 20.8939 325.4 22.6767Z" stroke="white" stroke-width="2" stroke-linecap="round" stroke-linejoin="round"/>
<path d="M328.55 12.4497H328.571" stroke="white" stroke-width="2" stroke-linecap="round" stroke-linejoin="round"/>
<path d="M393.4 13.6001C396.742 13.6001 399.947 14.9276 402.31 17.2906C404.673 19.6535 406 22.8584 406 26.2001V40.9001H397.6V26.2001C397.6 25.0862 397.158 24.0179 396.37 23.2302C395.582 22.4426 394.514 22.0001 393.4 22.0001C392.286 22.0001 391.218 22.4426 390.43 23.2302C389.643 24.0179 389.2 25.0862 389.2 26.2001V40.9001H380.8V26.2001C380.8 22.8584 382.127 19.6535 384.49 17.2906C386.853 14.9276 390.058 13.6001 393.4 13.6001V13.6001Z" stroke="white" stroke-width="2" stroke-linecap="round" stroke-linejoin="round"/>
<path d="M372.4 15.7002H364V40.9002H372.4V15.7002Z" stroke="white" stroke-width="2" stroke-linecap="round" stroke-linejoin="round"/>
<path d="M368.2 9.4C370.52 9.4 372.4 7.5196 372.4 5.2C372.4 2.8804 370.52 1 368.2 1C365.88 1 364 2.8804 364 5.2C364 7.5196 365.88 9.4 368.2 9.4Z" stroke="white" stroke-width="2" stroke-linecap="round" stroke-linejoin="round"/>
<path d="M451.1 1H444.8C442.015 1 439.345 2.10625 437.375 4.07538C435.406 6.04451 434.3 8.71523 434.3 11.5V17.8H428V26.2H434.3V43H442.7V26.2H449L451.1 17.8H442.7V11.5C442.7 10.943 442.921 10.4089 443.315 10.0151C443.709 9.62125 444.243 9.4 444.8 9.4H451.1V1Z" stroke="white" stroke-width="2" stroke-linecap="round" stroke-linejoin="round"/>
<path d="M97.3075 357.103C97.8614 358.535 98.0432 360.026 97.8529 361.575C97.681 363.082 97.0494 364.51 95.9582 365.858C94.8554 367.177 93.2594 368.24 91.1701 369.048C89.1405 369.832 87.1905 370.157 85.3201 370.023C83.4498 369.888 81.7889 369.364 80.3376 368.45C78.9046 367.494 77.8019 366.239 77.0295 364.685L80.3425 363.404C80.8197 364.284 81.5206 365.076 82.4455 365.782C83.3703 366.488 84.4911 366.947 85.8079 367.158C87.1132 367.34 88.5269 367.136 90.0491 366.548C92.0489 365.774 93.3633 364.649 93.9925 363.17C94.6516 361.68 94.6638 360.115 94.0291 358.473C93.4867 357.07 92.69 356.075 91.6391 355.486C90.6064 354.856 89.4754 354.504 88.2461 354.43C87.0467 354.345 85.442 354.365 83.4319 354.491C81.2197 354.625 79.3921 354.646 77.9491 354.552C76.5244 354.417 75.175 353.943 73.9008 353.132C72.6265 352.321 71.6259 350.976 70.8989 349.095C69.9757 346.707 70.0614 344.444 71.1558 342.306C72.2502 340.167 74.2599 338.532 77.1849 337.401C80.1696 336.248 82.8102 336.067 85.1068 336.86C87.4332 337.642 89.1818 339.059 90.3525 341.111L86.9947 342.409C86.2068 341.17 85.0289 340.253 83.461 339.658C81.9229 339.052 80.154 339.135 78.1543 339.909C76.3038 340.624 75.011 341.673 74.2759 343.055C73.5409 344.437 73.5022 345.979 74.16 347.68C74.6793 349.023 75.4437 349.98 76.4533 350.55C77.4629 351.12 78.5467 351.439 79.7048 351.506C80.8927 351.561 82.4618 351.538 84.4122 351.436C86.6542 351.289 88.5025 351.278 89.957 351.402C91.4414 351.514 92.8472 352 94.1743 352.859C95.5015 353.718 96.5458 355.133 97.3075 357.103ZM102.429 315.959L109.279 370.28L106.234 371.457L99.3395 317.154L102.429 315.959ZM123.192 351.675L124.75 355.704L120.586 357.314L119.029 353.285L123.192 351.675Z" fill="#414141"/>
</svg>
