<svg width="221" height="212" viewBox="0 0 221 212" fill="none" xmlns="http://www.w3.org/2000/svg">
<g opacity="0.3">
<path d="M34.9911 171.697C35.3773 162.69 56.8752 153.747 63.537 159.859C63.7623 160.085 65.5323 161.725 65.468 164.138C65.2749 172.759 42.3609 181.862 36.4715 175.815C34.9267 174.238 34.9911 172.115 34.9911 171.697Z" stroke="black" stroke-width="2" stroke-miterlimit="10" stroke-linecap="round" stroke-linejoin="round"/>
<path d="M67.5921 168.609C67.6886 169.027 67.753 169.477 67.753 169.928C67.5599 178.549 44.6459 187.652 38.7565 181.605C38.0485 180.865 37.6623 180.028 37.4692 179.288" stroke="black" stroke-width="2" stroke-miterlimit="10" stroke-linecap="round" stroke-linejoin="round"/>
<path d="M37.8553 170.989C38.4346 164.652 55.2338 157.736 60.1578 161.822C60.3187 161.95 61.6382 163.076 61.5094 164.781C61.1232 170.861 43.2297 177.938 38.8529 173.852C37.7265 172.791 37.8231 171.279 37.8553 170.989Z" stroke="black" stroke-width="2" stroke-miterlimit="10" stroke-linecap="round" stroke-linejoin="round"/>
<path d="M40.3977 174.689C43.101 169.284 55.7809 164.17 61.1554 166.518" stroke="black" stroke-width="2" stroke-miterlimit="10" stroke-linecap="round" stroke-linejoin="round"/>
<path d="M35.2808 173.788L37.791 180.318" stroke="black" stroke-width="2" stroke-miterlimit="10" stroke-linecap="round" stroke-linejoin="round"/>
<path d="M65.4358 162.915L67.6242 168.899" stroke="black" stroke-width="2" stroke-miterlimit="10" stroke-linecap="round" stroke-linejoin="round"/>
</g>
<path d="M16.5818 94.1005C17.419 93.8679 18.3028 93.5887 19.2796 93.3096" stroke="black" stroke-width="0.75" stroke-miterlimit="10"/>
<path d="M24.675 91.2624C30.1636 88.7965 36.1173 84.8882 40.5361 78.5141C50.7691 63.7651 44.0711 48.6904 54.5832 40.3621C61.9788 34.4997 67.2348 38.3614 82.0261 32.1269C89.6543 28.9165 95.701 24.6826 100.259 20.7278" stroke="black" stroke-width="0.75" stroke-miterlimit="10" stroke-dasharray="12.41 12.41"/>
<path d="M102.399 18.8202C103.097 18.1688 103.794 17.5175 104.399 16.8661" stroke="black" stroke-width="0.75" stroke-miterlimit="10"/>
<path d="M31.2805 93.4027C48.2579 90.4715 57.8862 83.7716 63.7469 77.3975C73.0495 67.2081 79.0033 51.1098 94.7248 47.3411C98.7714 46.3641 102.26 46.5037 104.446 46.7363" stroke="black" stroke-width="4" stroke-miterlimit="10"/>
<path d="M29.8386 93.6353C30.1642 93.5888 30.4433 93.5423 30.7689 93.4957" stroke="black" stroke-width="4" stroke-miterlimit="10"/>
<path d="M28.1638 93.868C28.4894 93.8215 28.7685 93.7749 29.0941 93.7284" stroke="black" stroke-width="4" stroke-miterlimit="10"/>
<path d="M13.4658 94.8916C18.1637 94.5659 22.8615 94.2867 27.5594 93.9611" stroke="black" stroke-width="4" stroke-miterlimit="10"/>
<path d="M38.2574 102.196C38.3969 101.778 36.8155 101.452 35.8852 100.103C34.5828 98.195 35.4666 95.5895 35.0945 95.5429C35.048 95.5429 34.9549 95.729 34.4898 96.7526C34.1642 97.4971 34.0712 97.5901 33.9782 97.6366C33.4665 97.7762 32.4897 96.1478 32.2107 95.6825C31.0013 93.5423 30.8618 91.8673 30.7222 91.9138C30.5362 91.9604 30.4897 93.868 31.2339 95.8221C31.5595 96.7061 31.8851 97.2179 31.8385 97.2179C31.7455 97.2644 30.3036 95.7756 29.7454 93.6353C29.4198 92.4722 29.4664 91.5416 29.3268 91.5416C29.1873 91.5416 28.8617 92.6117 28.9547 93.7749C29.1408 96.0547 30.7222 97.5436 30.5827 97.6832C30.4897 97.7762 29.6989 97.2179 29.0477 96.2408C27.7919 94.3798 27.8849 92.3326 27.6989 92.3326C27.5593 92.3326 27.3733 93.2166 27.4663 94.2867C27.7454 96.613 29.4664 98.0554 29.3268 98.1949C29.2338 98.288 28.2105 97.5436 27.3267 96.3804C26.5825 95.3568 26.35 94.5193 26.2569 94.5193C26.1639 94.5659 26.3034 95.9151 27.0011 97.2179C27.2802 97.6832 27.5593 98.1019 29.4198 99.7769C31.9781 102.103 32.4897 102.289 32.9549 102.429C33.2339 102.522 34.0247 102.522 35.6061 102.522C37.9783 102.475 38.2109 102.336 38.2574 102.196Z" stroke="black" stroke-width="0.75" stroke-miterlimit="10"/>
<path d="M140.773 68.5109C140.726 69.0227 140.726 69.3019 140.819 69.3019C141.005 69.3484 141.377 68.604 142.029 67.0686C141.656 67.0221 141.377 66.929 141.331 66.8359C141.284 66.5103 142.912 65.8589 143.238 66.2311C143.331 66.3241 143.331 66.5103 143.052 67.3477C142.68 68.4644 142.401 69.0692 142.447 69.1158C142.494 69.1623 143.424 67.6269 144.587 65.3471C145.331 63.8582 145.657 63.0207 145.796 63.0673C145.936 63.1138 145.61 64.37 145.378 65.254C144.633 67.72 143.703 69.3484 143.796 69.3949C143.889 69.4414 144.54 68.4644 145.191 67.2547C146.075 65.5332 146.401 64.2304 146.587 64.277C146.726 64.3235 146.633 65.0679 146.54 65.7658C146.122 68.0922 145.052 69.581 145.191 69.6741C145.285 69.7206 146.168 68.697 146.866 67.5804C147.238 66.9755 147.424 66.6033 147.471 66.6498C147.564 66.6964 147.192 67.9526 146.633 69.1158C146.354 69.6741 145.982 70.2324 145.285 71.256C145.285 71.256 143.657 73.6289 142.401 74.3268C142.308 74.3733 142.261 74.3733 142.215 74.4198C141.47 74.7455 141.377 74.4663 139.61 74.9316C138.261 75.2573 137.656 75.583 137.517 75.3503C137.284 75.0712 138.354 74.0941 139.098 72.6053C139.796 71.1164 139.889 69.6741 139.842 68.697" stroke="black" stroke-width="0.75" stroke-miterlimit="10"/>
<path d="M141.424 68.4179L118.632 71.9539L114.074 52.5522L137.982 48.8301L142.075 66.2311" stroke="black" stroke-width="0.75" stroke-miterlimit="10"/>
<path d="M23.001 15.7495V104.197" stroke="black" stroke-width="0.75" stroke-miterlimit="10" stroke-linecap="round" stroke-linejoin="round"/>
<path d="M40.583 15.7495V104.197" stroke="black" stroke-width="0.75" stroke-miterlimit="10" stroke-linecap="round" stroke-linejoin="round"/>
<path d="M58.165 15.7495V104.197" stroke="black" stroke-width="0.75" stroke-miterlimit="10" stroke-linecap="round" stroke-linejoin="round"/>
<path d="M75.7471 15.7495V104.197" stroke="black" stroke-width="0.75" stroke-miterlimit="10" stroke-linecap="round" stroke-linejoin="round"/>
<path d="M93.4688 15.7495V70.7442" stroke="black" stroke-width="0.75" stroke-miterlimit="10" stroke-linecap="round" stroke-linejoin="round"/>
<path d="M105.283 24.3569H12.3027" stroke="black" stroke-width="0.75" stroke-miterlimit="10" stroke-linecap="round" stroke-linejoin="round"/>
<path d="M105.283 41.9441H12.3027" stroke="black" stroke-width="0.75" stroke-miterlimit="10" stroke-linecap="round" stroke-linejoin="round"/>
<path d="M105.283 59.5312H12.3027" stroke="black" stroke-width="0.75" stroke-miterlimit="10" stroke-linecap="round" stroke-linejoin="round"/>
<path d="M87.0032 77.1648H12.3027" stroke="black" stroke-width="0.75" stroke-miterlimit="10" stroke-linecap="round" stroke-linejoin="round"/>
<path d="M27.6522 94.7054H12.3027" stroke="black" stroke-width="0.75" stroke-miterlimit="10" stroke-linecap="round" stroke-linejoin="round"/>
<path d="M29.2337 94.7054H28.3965" stroke="black" stroke-width="0.75" stroke-miterlimit="10" stroke-linecap="round" stroke-linejoin="round"/>
<path d="M30.9549 94.7054H30.2107" stroke="black" stroke-width="0.75" stroke-miterlimit="10" stroke-linecap="round" stroke-linejoin="round"/>
<path d="M105.283 94.7054H31.792" stroke="black" stroke-width="0.75" stroke-miterlimit="10" stroke-linecap="round" stroke-linejoin="round"/>
<path d="M93.4223 90.3784C92.2595 90.3319 91.8408 90.7971 91.4222 90.4714C91.0036 90.1923 91.3292 89.6805 90.9106 89.2152C90.492 88.7965 90.0268 89.1222 89.1896 88.7965C88.3058 88.4708 88.4919 87.959 87.5151 87.4937C86.6313 87.0285 86.2127 87.3541 85.6081 86.9354C85.422 86.7958 85.1429 86.5167 84.6778 85.1674C84.1661 83.6785 83.8871 82.9341 83.8871 81.957C83.8406 80.4217 84.3987 80.3751 84.2592 79.212C84.0731 77.8162 83.2824 77.7231 83.1428 76.3273C83.0963 75.8155 83.2359 75.2107 83.515 74.001C83.794 72.7447 83.9336 72.0934 84.1661 71.7211C84.9569 70.558 85.8871 70.8837 86.7244 69.7205C87.3756 68.79 87.0035 68.3712 87.6081 67.8129C88.3523 67.115 89.1431 67.6268 90.9571 67.3476C93.0967 66.9754 93.4223 65.9984 94.7247 66.1845C95.8875 66.324 95.7945 67.3942 97.2364 67.906C98.5853 68.3712 99.1434 67.7198 99.9807 68.3247C100.818 68.883 100.399 69.5809 101.423 70.9767C102.306 72.1864 103.097 72.2795 103.33 73.3031C103.469 73.9079 103.283 74.094 103.19 74.9315C103.051 77.3044 104.632 78.0488 104.213 79.6307C103.981 80.4682 103.562 80.2821 102.818 81.7709C102.213 83.0272 102.492 83.2133 101.981 84.0507C101.283 85.2139 100.725 84.8882 99.283 86.5167C98.7248 87.168 98.5388 87.4937 97.748 88.2847C97.3294 88.7034 97.0503 88.9361 96.5852 89.3083C95.2828 90.4249 94.9107 90.4714 94.7712 90.518C94.2595 90.6575 94.2595 90.4249 93.4223 90.3784Z" fill="black"/>
<path d="M190.261 141.048L193.098 147.887L194.028 147.19C194.726 148.074 195.47 148.958 196.168 149.842C196.494 149.609 196.819 149.33 197.098 149.097C196.401 148.26 195.703 147.422 195.005 146.585C195.331 146.352 195.61 146.166 195.935 145.933L190.261 141.048Z" fill="black"/>
<path d="M140.259 117.505H214.913" stroke="black" stroke-width="0.75" stroke-miterlimit="10" stroke-linecap="round" stroke-linejoin="round"/>
<path d="M165.33 120.809H143.841V161.613H165.33V120.809Z" stroke="black" stroke-width="0.75" stroke-miterlimit="10" stroke-linecap="round" stroke-linejoin="round"/>
<path d="M211.611 120.809H169.097V135.418H211.611V120.809Z" stroke="black" stroke-width="0.75" stroke-miterlimit="10" stroke-linecap="round" stroke-linejoin="round"/>
<path d="M188.819 138.489H169.097V161.613H188.819V138.489Z" stroke="black" stroke-width="0.75" stroke-miterlimit="10" stroke-linecap="round" stroke-linejoin="round"/>
<path d="M211.611 138.489H192.261V161.613H211.611V138.489Z" stroke="black" stroke-width="0.75" stroke-miterlimit="10" stroke-linecap="round" stroke-linejoin="round"/>
<path d="M187.238 122.67H170.772V124.159H187.238V122.67Z" stroke="black" stroke-width="0.75" stroke-miterlimit="10" stroke-linecap="round" stroke-linejoin="round"/>
<path d="M187.238 126.252H170.772V126.997H187.238V126.252Z" stroke="black" stroke-width="0.75" stroke-miterlimit="10" stroke-linecap="round" stroke-linejoin="round"/>
<path d="M187.238 128.114H170.772V128.858H187.238V128.114Z" stroke="black" stroke-width="0.75" stroke-miterlimit="10" stroke-linecap="round" stroke-linejoin="round"/>
<path d="M187.238 129.975H170.772V130.719H187.238V129.975Z" stroke="black" stroke-width="0.75" stroke-miterlimit="10" stroke-linecap="round" stroke-linejoin="round"/>
<path d="M187.238 131.836H170.772V132.58H187.238V131.836Z" stroke="black" stroke-width="0.75" stroke-miterlimit="10" stroke-linecap="round" stroke-linejoin="round"/>
<path d="M210.169 126.252H193.703V126.997H210.169V126.252Z" stroke="black" stroke-width="0.75" stroke-miterlimit="10" stroke-linecap="round" stroke-linejoin="round"/>
<path d="M210.169 128.114H193.703V128.858H210.169V128.114Z" stroke="black" stroke-width="0.75" stroke-miterlimit="10" stroke-linecap="round" stroke-linejoin="round"/>
<path d="M210.169 129.975H193.703V130.719H210.169V129.975Z" stroke="black" stroke-width="0.75" stroke-miterlimit="10" stroke-linecap="round" stroke-linejoin="round"/>
<path d="M210.169 131.836H193.703V132.58H210.169V131.836Z" stroke="black" stroke-width="0.75" stroke-miterlimit="10" stroke-linecap="round" stroke-linejoin="round"/>
<path d="M162.818 124.717H146.352V125.461H162.818V124.717Z" stroke="black" stroke-width="0.75" stroke-miterlimit="10" stroke-linecap="round" stroke-linejoin="round"/>
<path d="M162.818 126.578H146.352V127.323H162.818V126.578Z" stroke="black" stroke-width="0.75" stroke-miterlimit="10" stroke-linecap="round" stroke-linejoin="round"/>
<path d="M162.818 128.393H146.352V129.137H162.818V128.393Z" stroke="black" stroke-width="0.75" stroke-miterlimit="10" stroke-linecap="round" stroke-linejoin="round"/>
<path d="M162.818 130.254H146.352V130.998H162.818V130.254Z" stroke="black" stroke-width="0.75" stroke-miterlimit="10" stroke-linecap="round" stroke-linejoin="round"/>
<path d="M162.818 132.115H146.352V132.859H162.818V132.115Z" stroke="black" stroke-width="0.75" stroke-miterlimit="10" stroke-linecap="round" stroke-linejoin="round"/>
<path d="M162.818 133.976H146.352V134.72H162.818V133.976Z" stroke="black" stroke-width="0.75" stroke-miterlimit="10" stroke-linecap="round" stroke-linejoin="round"/>
<path d="M162.818 135.791H146.352V136.535H162.818V135.791Z" stroke="black" stroke-width="0.75" stroke-miterlimit="10" stroke-linecap="round" stroke-linejoin="round"/>
<path d="M162.818 137.652H146.352V138.396H162.818V137.652Z" stroke="black" stroke-width="0.75" stroke-miterlimit="10" stroke-linecap="round" stroke-linejoin="round"/>
<path d="M162.818 139.513H146.352V140.257H162.818V139.513Z" stroke="black" stroke-width="0.75" stroke-miterlimit="10" stroke-linecap="round" stroke-linejoin="round"/>
<path d="M162.818 141.374H146.352V142.118H162.818V141.374Z" stroke="black" stroke-width="0.75" stroke-miterlimit="10" stroke-linecap="round" stroke-linejoin="round"/>
<path d="M162.818 143.188H146.352V143.933H162.818V143.188Z" stroke="black" stroke-width="0.75" stroke-miterlimit="10" stroke-linecap="round" stroke-linejoin="round"/>
<path d="M162.818 145.049H146.352V145.794H162.818V145.049Z" stroke="black" stroke-width="0.75" stroke-miterlimit="10" stroke-linecap="round" stroke-linejoin="round"/>
<path d="M162.818 146.91H146.352V147.655H162.818V146.91Z" stroke="black" stroke-width="0.75" stroke-miterlimit="10" stroke-linecap="round" stroke-linejoin="round"/>
<path d="M162.818 148.771H146.352V149.516H162.818V148.771Z" stroke="black" stroke-width="0.75" stroke-miterlimit="10" stroke-linecap="round" stroke-linejoin="round"/>
<path d="M199.61 104.431H158.399V110.34H199.61V104.431Z" stroke="black" stroke-width="0.75" stroke-miterlimit="10"/>
<path d="M162.585 152.214H146.352V155.983H162.585V152.214Z" stroke="black" stroke-width="0.75" stroke-miterlimit="10" stroke-linecap="round" stroke-linejoin="round"/>
<path d="M214.867 96.1497H140.259V161.613H214.867V96.1497Z" stroke="black" stroke-width="0.75" stroke-miterlimit="10" stroke-linecap="round" stroke-linejoin="round"/>
<path d="M115.283 57.6701C115.283 77.537 115.283 97.4505 115.283 117.317H1V3.04761H115.237C115.237 19.4716 115.237 35.9421 115.237 52.366" stroke="black" stroke-width="0.75" stroke-miterlimit="10" stroke-linecap="round" stroke-linejoin="round"/>
<path d="M113.423 4.90869H2.8606V115.503H113.423V4.90869Z" stroke="black" stroke-width="0.75" stroke-miterlimit="10" stroke-linecap="round" stroke-linejoin="round"/>
<path d="M128.726 66.7428C133.504 66.7428 137.377 63.9931 137.377 60.6013C137.377 57.2094 133.504 54.4597 128.726 54.4597C123.948 54.4597 120.074 57.2094 120.074 60.6013C120.074 63.9931 123.948 66.7428 128.726 66.7428Z" stroke="black" stroke-width="0.75" stroke-miterlimit="10" stroke-linecap="round" stroke-linejoin="round"/>
<path d="M120.074 54.0411L122.4 56.3675" stroke="black" stroke-width="0.75" stroke-miterlimit="10" stroke-linecap="round" stroke-linejoin="round"/>
<path d="M123.098 52.8778C123.144 52.9709 124.586 55.2042 124.586 55.2042" stroke="black" stroke-width="0.75" stroke-miterlimit="10" stroke-linecap="round" stroke-linejoin="round"/>
<path d="M126.772 52.1801C126.772 52.3196 127.051 54.5995 127.051 54.5995" stroke="black" stroke-width="0.75" stroke-miterlimit="10" stroke-linecap="round" stroke-linejoin="round"/>
<path d="M129.656 52.3661C129.61 52.4591 129.377 54.4598 129.377 54.4598" stroke="black" stroke-width="0.75" stroke-miterlimit="10" stroke-linecap="round" stroke-linejoin="round"/>
<path d="M131.284 54.7389L132.726 52.7383" stroke="black" stroke-width="0.75" stroke-miterlimit="10" stroke-linecap="round" stroke-linejoin="round"/>
<path d="M133.61 55.5299L135.284 53.7153" stroke="black" stroke-width="0.75" stroke-miterlimit="10" stroke-linecap="round" stroke-linejoin="round"/>
<path d="M135.284 56.6001L137.377 55.3439" stroke="black" stroke-width="0.75" stroke-miterlimit="10" stroke-linecap="round" stroke-linejoin="round"/>
<path d="M121.237 57.3445L118.772 56.3674" stroke="black" stroke-width="0.75" stroke-miterlimit="10" stroke-linecap="round" stroke-linejoin="round"/>
<path d="M120.819 64.7423L121.656 64.1375" stroke="black" stroke-width="0.75" stroke-miterlimit="10" stroke-linecap="round" stroke-linejoin="round"/>
<path d="M121.47 65.3936L122.353 64.7422" stroke="black" stroke-width="0.75" stroke-miterlimit="10" stroke-linecap="round" stroke-linejoin="round"/>
<path d="M122.354 65.9519L123.098 65.3936" stroke="black" stroke-width="0.75" stroke-miterlimit="10" stroke-linecap="round" stroke-linejoin="round"/>
<path d="M123.423 66.5102L123.842 65.6727" stroke="black" stroke-width="0.75" stroke-miterlimit="10" stroke-linecap="round" stroke-linejoin="round"/>
<path d="M124.54 66.8825V66.0916" stroke="black" stroke-width="0.75" stroke-miterlimit="10" stroke-linecap="round" stroke-linejoin="round"/>
<path d="M125.47 67.115L125.749 66.3706" stroke="black" stroke-width="0.75" stroke-miterlimit="10" stroke-linecap="round" stroke-linejoin="round"/>
<path d="M126.447 67.1151L126.493 66.5103" stroke="black" stroke-width="0.75" stroke-miterlimit="10" stroke-linecap="round" stroke-linejoin="round"/>
<path d="M127.423 67.4408V66.7429" stroke="black" stroke-width="0.75" stroke-miterlimit="10" stroke-linecap="round" stroke-linejoin="round"/>
<path d="M91.0037 197.762C91.1432 198.088 91.2362 198.46 91.3293 198.925C91.5153 199.949 91.3758 200.786 91.2362 201.298C91.4223 201.484 91.9804 202.043 92.9572 202.182C94.2596 202.322 95.0968 201.484 95.2364 201.345C95.1899 201.159 95.1899 200.926 95.1434 200.74C95.0038 199.577 94.9108 198.414 94.8178 197.297C94.5387 197.53 93.9805 197.902 93.1898 198.041C92.1665 198.274 91.3293 197.902 91.0037 197.762Z" fill="#FF3D00"/>
<path d="M107.609 196.739C107.516 197.344 107.469 198.088 107.516 198.879C107.516 199.856 107.655 200.693 107.795 201.391C107.609 201.577 107.051 202.182 106.074 202.368C104.771 202.601 103.795 201.81 103.655 201.717C103.748 201.345 103.795 200.926 103.841 200.507C104.027 199.065 103.981 197.762 103.841 196.599C104.26 196.739 104.818 196.832 105.423 196.878C106.306 196.925 107.051 196.832 107.609 196.739Z" fill="#FF3D00"/>
<path d="M128.726 67.4408L128.493 66.7429" stroke="black" stroke-width="0.75" stroke-miterlimit="10" stroke-linecap="round" stroke-linejoin="round"/>
<path d="M129.842 67.4407L129.656 66.6963" stroke="black" stroke-width="0.75" stroke-miterlimit="10" stroke-linecap="round" stroke-linejoin="round"/>
<path d="M131.098 67.0684L130.865 66.5566" stroke="black" stroke-width="0.75" stroke-miterlimit="10" stroke-linecap="round" stroke-linejoin="round"/>
<path d="M132.214 66.7893L131.889 66.3706" stroke="black" stroke-width="0.75" stroke-miterlimit="10" stroke-linecap="round" stroke-linejoin="round"/>
<path d="M133.331 66.6964L132.54 66.0916" stroke="black" stroke-width="0.75" stroke-miterlimit="10" stroke-linecap="round" stroke-linejoin="round"/>
<path d="M133.935 66.0915L133.563 65.6727" stroke="black" stroke-width="0.75" stroke-miterlimit="10" stroke-linecap="round" stroke-linejoin="round"/>
<path d="M134.261 65.3005L135.098 65.7658" stroke="black" stroke-width="0.75" stroke-miterlimit="10" stroke-linecap="round" stroke-linejoin="round"/>
<path d="M134.865 64.9283L135.517 65.0679" stroke="black" stroke-width="0.75" stroke-miterlimit="10" stroke-linecap="round" stroke-linejoin="round"/>
<path d="M121.423 63.8582H120.726" stroke="black" stroke-width="0.75" stroke-miterlimit="10" stroke-linecap="round" stroke-linejoin="round"/>
<path d="M135.47 64.463H136.028" stroke="black" stroke-width="0.75" stroke-miterlimit="10" stroke-linecap="round" stroke-linejoin="round"/>
<path d="M120.819 58.0889C120.772 58.1819 119.284 58.0889 119.284 58.0889" stroke="black" stroke-width="0.75" stroke-miterlimit="10" stroke-linecap="round" stroke-linejoin="round"/>
<path d="M136.029 57.2513H137.145" stroke="black" stroke-width="0.75" stroke-miterlimit="10" stroke-linecap="round" stroke-linejoin="round"/>
<path d="M128.819 63.2999C130.925 63.2999 132.633 62.0917 132.633 60.6014C132.633 59.111 130.925 57.9028 128.819 57.9028C126.712 57.9028 125.005 59.111 125.005 60.6014C125.005 62.0917 126.712 63.2999 128.819 63.2999Z" fill="black"/>
<path d="M91.0035 93.3562C91.1896 93.3562 92.585 93.3562 94.4455 93.2166C95.4688 93.1236 96.3061 93.0305 96.6782 93.0305C98.3992 92.8444 99.7946 92.5652 100.911 92.3326C113.283 89.8202 118.4 87.7264 118.4 87.7264C122.261 86.1911 129.982 82.5154 138.401 73.2101C138.726 73.2101 139.61 73.2566 140.401 73.908C140.819 74.2337 141.052 74.6059 141.191 74.8385C138.54 78.6072 134.633 83.3995 128.958 87.866C119.284 95.4964 109.469 98.4276 103.702 99.6373C104.12 102.382 104.632 105.825 105.19 109.734C106.865 121.97 106.167 120.714 106.865 122.668C107.841 125.506 109.469 128.856 108.353 132.857C108.213 133.369 108.074 133.741 107.981 133.974C107.981 133.788 107.981 133.602 108.027 133.416C104.725 133.09 100.632 132.95 95.9805 133.369C91.3291 133.788 87.3755 134.719 84.2126 135.649C84.2126 135.789 84.2591 135.882 84.2591 136.021C84.1196 135.928 83.887 135.742 83.6544 135.463C81.2822 132.904 82.3986 128.903 83.0498 122.575C83.1893 121.319 83.2823 118.527 83.5149 112.99C83.7009 108.896 83.7475 105.546 83.7475 103.359C77.4216 104.988 69.0027 106.523 59.0023 106.57C49.9787 106.616 42.211 105.453 36.2573 104.104C36.2108 104.011 35.4665 103.266 35.6526 102.196C35.7921 101.405 36.3503 100.94 36.4898 100.847C59.9326 101.312 70.119 99.3581 74.9099 97.3575C74.8169 97.404 84.3521 93.4027 91.0035 93.3562Z" fill="black"/>
<path d="M83.6543 122.017C83.8869 131.741 84.352 142.023 85.2357 152.818C86.5381 169.009 88.5382 183.991 90.8639 197.576C91.236 197.762 91.9802 197.995 92.8639 197.949C93.9803 197.856 94.8175 197.251 95.1431 196.972C94.5849 189.109 94.2593 180.594 94.3989 171.521C94.5384 161.332 95.1896 151.887 96.1664 143.233C98.12 151.096 99.8875 159.843 101.236 169.381C102.632 179.152 103.422 188.225 103.795 196.506C104.306 196.692 105.05 196.878 105.981 196.925C106.678 196.925 107.283 196.832 107.748 196.739C108.306 181.199 108.446 165.054 108.167 148.258C108.027 141.186 107.841 134.253 107.562 127.414C99.6084 125.646 91.6081 123.831 83.6543 122.017Z" stroke="black" stroke-width="0.75" stroke-miterlimit="10"/>
<path d="M84.9104 133.927C85.6546 136.766 86.4453 139.604 87.1896 142.488C89.0036 142.349 90.7711 142.256 92.5851 142.116C92.9572 139.278 93.3293 136.44 93.7014 133.648C90.8176 133.695 87.8873 133.788 84.9104 133.927Z" stroke="black" stroke-width="0.75" stroke-miterlimit="10"/>
<path d="M98.2131 132.671C98.7713 135.556 99.376 138.394 99.9341 141.279C101.748 141.232 103.516 141.186 105.33 141.139C105.888 138.348 106.446 135.51 107.004 132.718C104.074 132.671 101.143 132.671 98.2131 132.671Z" stroke="black" stroke-width="0.75" stroke-miterlimit="10"/>
<path d="M88.7244 173.103C89.4221 173.057 90.1198 173.01 90.8175 172.964" stroke="black" stroke-width="0.75" stroke-miterlimit="10"/>
<path d="M104.771 170.73C105.655 170.544 106.492 170.358 107.376 170.218" stroke="black" stroke-width="0.75" stroke-miterlimit="10"/>
<path d="M105.004 172.173C105.655 172.312 106.26 172.405 106.911 172.545" stroke="black" stroke-width="0.75" stroke-miterlimit="10"/>
<path d="M88.7244 170.637C89.4221 170.87 90.1663 171.149 90.864 171.382" stroke="black" stroke-width="0.75" stroke-miterlimit="10"/>
<path d="M90.7242 201.299C90.2125 201.578 90.166 202.508 90.1195 203.439C90.0265 204.509 90.2125 204.974 90.2591 206.044C90.2591 206.603 90.2591 207.44 90.073 208.464C90.2591 208.65 91.3289 209.859 93.2359 209.953C95.422 210.092 96.7244 208.65 96.864 208.51C95.8872 207.347 95.7011 206.416 95.7476 205.812C95.7941 204.974 96.2128 204.602 96.2593 203.392C96.2593 202.973 96.3058 201.717 95.7476 201.392C95.0964 201.019 94.4918 202.229 93.2359 202.229C91.887 202.183 91.3754 200.973 90.7242 201.299Z" stroke="black" stroke-width="0.75" stroke-miterlimit="10"/>
<path d="M91.0499 209.394C91.0033 207.533 91.8871 206.091 92.7708 205.951C93.7941 205.765 95.3756 207.161 95.4221 209.487" stroke="black" stroke-width="0.75" stroke-miterlimit="10"/>
<path d="M90.2127 206.695C89.1429 208.277 89.2825 209.161 89.3755 209.533C90.1197 211.72 96.213 211.674 97.0502 210.092C97.3293 209.58 97.0502 208.882 96.8176 208.51" stroke="black" stroke-width="0.75" stroke-miterlimit="10"/>
<path d="M88.4454 97.8693C89.9338 96.3339 90.7246 94.752 90.8641 93.868C90.9106 93.6819 91.0037 93.1235 90.9571 92.4256C90.9571 91.9604 90.9106 91.6812 90.8176 91.4486C90.7711 91.2159 90.6781 91.0764 90.6315 90.9368C90.1199 90.5646 89.5152 90.0063 88.864 89.2618C88.1198 88.3313 87.6547 87.4473 87.3291 86.7959" stroke="black" stroke-width="0.75" stroke-miterlimit="10"/>
<path d="M98.9106 96.5665C98.2129 95.822 97.0036 94.3332 96.6315 92.1929C96.5385 91.5881 96.4919 91.0763 96.4919 90.611C96.8641 90.3319 97.3757 89.8666 97.8408 89.1687C98.5851 88.0521 98.8176 86.9354 98.8641 86.3306" stroke="black" stroke-width="0.75" stroke-miterlimit="10"/>
<path d="M92.7711 203.671C92.399 203.346 92.2129 202.88 92.3525 202.601C92.585 202.089 93.7479 202.043 94.027 202.555C94.1665 202.834 94.027 203.299 93.6549 203.718C93.3293 203.718 93.0502 203.718 92.7711 203.671Z" stroke="black" stroke-width="0.75" stroke-miterlimit="10"/>
<path d="M108.167 201.531C108.679 201.763 108.772 202.74 108.865 203.671C108.958 204.741 108.818 205.206 108.818 206.277C108.818 206.835 108.865 207.672 109.097 208.696C108.911 208.882 107.888 210.092 105.981 210.278C103.795 210.464 102.446 209.068 102.306 208.929C103.283 207.719 103.423 206.835 103.376 206.183C103.33 205.346 102.865 204.974 102.772 203.811C102.725 203.392 102.679 202.136 103.237 201.763C103.841 201.391 104.493 202.554 105.795 202.508C107.051 202.461 107.562 201.252 108.167 201.531Z" stroke="black" stroke-width="0.75" stroke-miterlimit="10"/>
<path d="M108.074 209.673C108.074 207.812 107.144 206.416 106.26 206.277C105.237 206.09 103.702 207.533 103.702 209.906" stroke="black" stroke-width="0.75" stroke-miterlimit="10"/>
<path d="M108.865 206.928C109.981 208.464 109.888 209.348 109.748 209.766C109.097 211.953 102.957 212.093 102.074 210.557C101.795 210.046 102.074 209.348 102.306 208.975" stroke="black" stroke-width="0.75" stroke-miterlimit="10"/>
<path d="M106.26 203.997C106.632 203.625 106.818 203.206 106.678 202.927C106.446 202.415 105.237 202.415 105.004 202.927C104.864 203.206 105.004 203.671 105.423 204.043C105.655 203.997 105.934 203.997 106.26 203.997Z" stroke="black" stroke-width="0.75" stroke-miterlimit="10"/>
<path d="M188.254 38.689H185.092V67.489H188.254V38.689Z" stroke="black" stroke-width="0.75" stroke-miterlimit="10"/>
<path d="M193.557 48.0874H190.394V67.4425H193.557V48.0874Z" stroke="black" stroke-width="0.75" stroke-miterlimit="10"/>
<path d="M198.813 45.6215H195.65V67.4425H198.813V45.6215Z" stroke="black" stroke-width="0.75" stroke-miterlimit="10"/>
<path d="M204.116 51.2512H200.953V67.4425H204.116V51.2512Z" stroke="black" stroke-width="0.75" stroke-miterlimit="10"/>
<path d="M209.372 40.364H206.209V67.4891H209.372V40.364Z" fill="black" stroke="black" stroke-width="0.75" stroke-miterlimit="10"/>
<path d="M214.674 35.851H211.511V67.4426H214.674V35.851Z" stroke="black" stroke-width="0.75" stroke-miterlimit="10"/>
<path d="M14.1167 94.7986C14.3958 92.1466 14.9074 88.1918 16.3028 83.5856C21.0937 67.3943 30.3034 61.8576 35.0942 51.1099C38.1641 44.2705 40.1642 33.7089 35.1408 17.5176" stroke="black" stroke-width="0.75" stroke-miterlimit="10" stroke-linecap="round" stroke-linejoin="round"/>
<path d="M134.711 1.81909H126.111C123.736 1.81909 121.811 3.74428 121.811 6.11913V14.7192C121.811 17.094 123.736 19.0192 126.111 19.0192H134.711C137.085 19.0192 139.011 17.094 139.011 14.7192V6.11913C139.011 3.74428 137.085 1.81909 134.711 1.81909Z" stroke="#193EFF" stroke-width="2" stroke-linecap="round" stroke-linejoin="round"/>
<path d="M133.851 9.87721C133.957 10.5929 133.835 11.3239 133.501 11.9662C133.168 12.6084 132.641 13.1292 131.994 13.4546C131.348 13.7799 130.616 13.8931 129.901 13.7781C129.187 13.6632 128.527 13.3259 128.015 12.8143C127.504 12.3026 127.166 11.6427 127.052 10.9283C126.937 10.2139 127.05 9.48151 127.375 8.8352C127.7 8.18889 128.221 7.66161 128.863 7.32836C129.506 6.9951 130.237 6.87285 130.952 6.97899C131.683 7.08725 132.358 7.42745 132.88 7.94934C133.402 8.47123 133.742 9.14713 133.851 9.87721Z" stroke="#193EFF" stroke-width="2" stroke-linecap="round" stroke-linejoin="round"/>
<path d="M135.141 5.68909H135.149" stroke="#193EFF" stroke-width="2" stroke-linecap="round" stroke-linejoin="round"/>
<path d="M161.698 6.16003C163.067 6.16003 164.379 6.70368 165.347 7.67138C166.315 8.63907 166.858 9.95155 166.858 11.3201V17.3401H163.418V11.3201C163.418 10.8639 163.237 10.4264 162.915 10.1038C162.592 9.78128 162.155 9.60006 161.698 9.60006C161.242 9.60006 160.805 9.78128 160.482 10.1038C160.16 10.4264 159.978 10.8639 159.978 11.3201V17.3401H156.538V11.3201C156.538 9.95155 157.082 8.63907 158.05 7.67138C159.017 6.70368 160.33 6.16003 161.698 6.16003V6.16003Z" stroke="#193EFF" stroke-width="2" stroke-linecap="round" stroke-linejoin="round"/>
<path d="M153.098 7.02002H149.658V17.3401H153.098V7.02002Z" stroke="#193EFF" stroke-width="2" stroke-linecap="round" stroke-linejoin="round"/>
<path d="M151.378 4.44003C152.328 4.44003 153.098 3.66995 153.098 2.72001C153.098 1.77008 152.328 1 151.378 1C150.428 1 149.658 1.77008 149.658 2.72001C149.658 3.66995 150.428 4.44003 151.378 4.44003Z" stroke="#193EFF" stroke-width="2" stroke-linecap="round" stroke-linejoin="round"/>
<path d="M185.328 1H182.748C181.608 1 180.514 1.45304 179.708 2.25945C178.901 3.06586 178.448 4.15959 178.448 5.30003V7.88005H175.868V11.3201H178.448V18.2001H181.888V11.3201H184.468L185.328 7.88005H181.888V5.30003C181.888 5.07195 181.979 4.8532 182.14 4.69192C182.301 4.53064 182.52 4.44003 182.748 4.44003H185.328V1Z" stroke="#193EFF" stroke-width="2" stroke-linecap="round" stroke-linejoin="round"/>
<path d="M35.2403 142.681C35.1258 142.385 34.9639 142.147 34.7545 141.968C34.5539 141.785 34.3248 141.659 34.0674 141.588C33.8099 141.517 33.5355 141.494 33.244 141.516C32.9526 141.539 32.6632 141.606 32.3759 141.717C32.1235 141.814 31.8975 141.942 31.6981 142.099C31.4954 142.247 31.3261 142.418 31.1904 142.61C31.0634 142.8 30.9831 143.006 30.9493 143.229C30.9121 143.443 30.939 143.668 31.0299 143.903L31.0602 143.982C31.1578 144.234 31.2941 144.431 31.4693 144.574C31.6411 144.708 31.8523 144.801 32.103 144.854C32.3591 144.895 32.6563 144.9 32.9946 144.87C33.3296 144.83 33.7134 144.762 34.1461 144.665C35.1609 144.442 35.9755 144.453 36.5897 144.696C37.2006 144.93 37.6406 145.395 37.9099 146.091L37.9705 146.248C38.1219 146.64 38.192 147.028 38.1806 147.413C38.1745 147.785 38.082 148.141 37.903 148.481C37.7328 148.817 37.477 149.126 37.1357 149.408C36.7945 149.69 36.367 149.93 35.8534 150.129C35.2702 150.354 34.7202 150.472 34.2036 150.481C33.6923 150.479 33.2271 150.389 32.808 150.21C32.3942 150.02 32.0316 149.755 31.72 149.415C31.4051 149.067 31.1551 148.653 30.97 148.174L30.8186 147.782L31.9154 147.358L32.0366 147.672C32.3463 148.473 32.7961 148.989 33.3862 149.221C33.985 149.45 34.6762 149.413 35.4596 149.11C36.1386 148.848 36.5907 148.503 36.8158 148.075C37.0462 147.636 37.0655 147.168 36.8736 146.672L36.8433 146.594C36.6582 146.115 36.3384 145.818 35.8839 145.704C35.438 145.586 34.7972 145.624 33.9612 145.817C33.4763 145.934 33.0231 146.004 32.6016 146.027C32.1855 146.038 31.8082 145.994 31.4696 145.895C31.1277 145.787 30.8315 145.616 30.5812 145.383C30.3308 145.149 30.1299 144.837 29.9784 144.445L29.9178 144.288C29.7799 143.931 29.7276 143.576 29.7612 143.223C29.7947 142.87 29.9 142.534 30.077 142.215C30.2628 141.893 30.5166 141.605 30.8384 141.35C31.1656 141.084 31.5512 140.865 31.9952 140.693C32.5088 140.495 32.9944 140.392 33.4521 140.385C33.9185 140.375 34.3398 140.442 34.7159 140.587C35.0887 140.723 35.4104 140.934 35.681 141.219C35.9569 141.493 36.1655 141.813 36.3069 142.178L36.5189 142.727L35.422 143.151L35.2403 142.681ZM40.9756 135.84L42.0008 135.774L42.6942 148.865L41.656 148.936L40.9756 135.84ZM50.3941 143.456C50.2965 143.204 50.3011 142.957 50.4079 142.715C50.52 142.462 50.7023 142.286 50.9547 142.189C51.2072 142.091 51.4558 142.1 51.7006 142.215C51.9507 142.319 52.1246 142.497 52.2222 142.749C52.3198 143.002 52.3126 143.255 52.2004 143.508C52.0936 143.75 51.914 143.919 51.6616 144.017C51.4091 144.114 51.1578 144.111 50.9077 144.008C50.6629 143.892 50.4917 143.708 50.3941 143.456Z" fill="#414141"/>
</svg>
