<svg width="884" height="603" viewBox="0 0 884 603" fill="none" xmlns="http://www.w3.org/2000/svg">
<path d="M751.856 273.812L761.005 251.92L758.718 246.529L751.856 253.554L733.722 240.811L720.979 244.568L709.543 239.34H705.949L704.642 234.766L693.206 242.118L689.448 226.597L675.725 244.568L663.636 220.716L648.442 232.479L647.135 223.983L641.417 229.211L632.268 205.196L627.04 220.716L608.906 202.745L605.312 205.196L595.836 257.965C591.099 258.618 581.198 260.677 579.499 263.683C577.8 266.689 586.742 273.104 591.425 275.936C591.425 280.074 590.968 291.227 589.138 302.728C586.851 317.105 590.282 331.155 595.836 348.309C600.28 362.032 614.025 372.107 620.342 375.429L634.065 431.465L647.788 434.079C673.111 435.55 702.028 419.212 712.32 408.266C720.554 399.51 722.504 390.132 722.449 386.538C712.124 359.092 721.85 335.566 728.004 327.234C735.715 324.228 747.118 301.04 751.856 289.822L773.258 297.501L778.322 295.867L779.629 289.822L751.856 273.812Z" fill="white"/>
<path d="M59.9774 331.645C62.1992 324.065 78.874 321.19 86.9337 320.699C83.9386 318.848 76.9354 314.785 72.8838 313.348C68.8322 311.91 71.1957 304.362 72.8838 300.768C66.349 300.507 67.2202 289.55 68.4727 284.104C67.9282 282.471 65.9896 278.582 62.5914 276.099C58.3438 272.995 65.042 263.029 68.4727 257.311C71.9034 251.593 80.2355 252.737 86.9337 252.737C92.2922 252.737 90.6912 263.846 89.221 269.401C94.0568 269.793 93.8498 281.109 93.1419 286.718C96.8994 285.248 105.493 284.66 109.806 294.07C114.119 303.48 108.009 307.793 104.415 308.773L107.519 324.784L122.385 318.249L107.519 279.203V266.133C111.875 264.5 122.026 261.232 127.777 261.232C134.965 261.232 153.589 272.341 154.896 282.307C155.942 290.28 169.709 325.383 176.461 341.938L139.213 367.424L135.782 363.503C133.005 344.225 117.484 335.24 112.42 334.749C108.368 334.357 81.4335 339.378 68.4727 341.938C64.7151 341.665 57.7555 339.226 59.9774 331.645Z" fill="white"/>
<path d="M125.653 383.107L146.238 411.207L209.953 371.344L187.734 340.794C183.977 341.284 172.279 344.453 155.55 353.21C138.821 361.967 128.648 376.79 125.653 383.107Z" fill="#DEDEDE"/>
<path d="M139.266 419.725L232.452 601.128L881.078 598.327C875.722 565.123 875.316 547.635 870.923 515.596C845.165 447.119 813.46 427.262 759.208 389.379C755.895 386.828 748.573 384.411 745.78 395.153C742.289 408.58 734.904 419.859 710.466 437.18C686.028 454.501 656.085 456.65 639.704 455.71C623.323 454.77 614.998 440.268 612.849 421.47C611.131 406.432 617.415 385.306 620.772 376.623C618.534 375.101 608.606 372.971 586.8 376.623C559.543 381.188 525.974 410.191 514.158 421.47C502.342 432.749 446.887 504.317 431.446 530.903C419.093 552.172 407.948 565.456 403.92 569.44C379.258 544.107 326.793 490.433 314.225 478.402C301.657 466.371 244.358 399.27 217.279 367.224C206.403 367.761 191.902 377.16 169.209 389.647C151.056 399.637 141.683 413.861 139.266 419.725Z" fill="#141414"/>
<path d="M599.538 259.026C598.607 259.609 596.129 261.947 594.693 266.443C593.413 270.481 595.282 274.389 595.668 275.5C597.154 275.962 599.461 276.372 603.844 274.655C605.68 273.943 609.618 273.547 610.555 272.72C610.986 269.077 616.795 269.343 615.863 265.619C614.931 261.894 602.787 259.747 599.538 259.026Z" fill="black" stroke="black" stroke-width="2" stroke-miterlimit="10" stroke-linecap="round" stroke-linejoin="round"/>
<path d="M661.226 267.92C660.164 268.585 656.37 271.156 654.733 276.284C653.273 280.89 654.438 284.769 654.878 286.036C656.572 286.563 663.575 288.278 668.573 286.319C670.668 285.507 672.237 284.368 673.305 283.425C673.797 279.27 680.423 279.574 679.359 275.326C678.296 271.077 664.932 268.743 661.226 267.92Z" fill="black" stroke="black" stroke-width="2" stroke-miterlimit="10" stroke-linecap="round" stroke-linejoin="round"/>
<path d="M597.796 303.382L620.831 264.826L623.282 265.806L627.366 294.396C628.728 297.01 630.372 303.382 626.059 307.956C620.668 313.674 606.455 310.734 601.554 309.753C597.633 308.969 597.415 305.179 597.796 303.382Z" fill="#DEDEDE"/>
<path d="M724.736 282.47C716.632 290.051 716.458 314.6 717.384 325.927C719.834 326.417 726.108 327.397 731.597 327.397C738.459 327.397 752.835 294.396 753.979 284.757C755.123 275.119 753.162 274.138 748.588 270.871C744.013 267.603 734.865 272.995 724.736 282.47Z" fill="#DEDEDE"/>
<path d="M632.783 379.11L632.566 380.086L632.783 379.11ZM718.5 325.818L719.103 325.021C718.855 324.833 718.534 324.772 718.234 324.854C717.934 324.937 717.69 325.155 717.573 325.443L718.5 325.818ZM597.964 302.392L597.054 301.977L597.964 302.392ZM724.587 280.759C724.219 281.171 724.253 281.803 724.665 282.172C725.076 282.54 725.708 282.506 726.077 282.094L724.587 280.759ZM747.854 270.785L748.128 269.823L747.854 270.785ZM722.487 306.828C721.952 306.963 721.628 307.507 721.763 308.042C721.898 308.578 722.442 308.902 722.978 308.767L722.487 306.828ZM725.121 297.627L724.257 297.124C724.058 297.465 724.079 297.892 724.31 298.212C724.542 298.533 724.94 298.687 725.327 298.606L725.121 297.627ZM747.445 302.038L748.294 302.566L747.445 302.038ZM728.707 327.445L729.149 328.341L728.707 327.445ZM751.544 272.559L750.942 273.357L751.544 272.559ZM760.447 251.026C760.519 250.479 760.133 249.977 759.585 249.905C759.037 249.834 758.536 250.22 758.464 250.767L760.447 251.026ZM728.389 328.428C728.661 327.947 728.491 327.337 728.01 327.065C727.529 326.794 726.919 326.964 726.647 327.445L728.389 328.428ZM721.565 382.72L720.628 383.068L721.565 382.72ZM611.743 370.031L611.11 370.805L611.743 370.031ZM624.051 388.921L623.066 389.093C623.071 389.117 623.076 389.141 623.082 389.165L624.051 388.921ZM634.218 429.377L633.248 429.62C633.25 429.626 633.251 429.631 633.252 429.636L634.218 429.377ZM723.399 386.936L724.383 387.11C724.421 386.897 724.389 386.678 724.291 386.485L723.399 386.936ZM741.66 292.953C741.391 293.435 741.563 294.044 742.045 294.314C742.527 294.583 743.137 294.411 743.406 293.928L741.66 292.953ZM593.949 258.079C593.868 258.625 594.246 259.134 594.792 259.215C595.339 259.295 595.847 258.918 595.928 258.372L593.949 258.079ZM604.613 208.178C604.981 208.59 605.613 208.624 606.025 208.256C606.436 207.887 606.471 207.255 606.103 206.844L604.613 208.178ZM593.268 275.855C593.37 275.312 593.012 274.789 592.469 274.688C591.926 274.586 591.404 274.944 591.302 275.487L593.268 275.855ZM720.707 430.517L721.291 431.329L720.707 430.517ZM608.876 329.321C608.426 328.999 607.802 329.103 607.481 329.553C607.16 330.002 607.263 330.627 607.713 330.948L608.876 329.321ZM639.673 326.686C640.08 326.313 640.107 325.68 639.733 325.273C639.359 324.867 638.726 324.84 638.32 325.214L639.673 326.686ZM588.883 258.701L588.956 259.698L588.957 259.698L588.883 258.701ZM580.729 263.086L581.674 263.413L581.675 263.41L580.729 263.086ZM585.842 271.978L586.363 271.125L586.354 271.119L585.842 271.978ZM648.586 267.435L648.659 268.432L648.659 268.432L648.586 267.435ZM639.285 272.438L640.23 272.764L640.231 272.761L639.285 272.438ZM645.117 282.579L645.638 281.726L645.63 281.72L645.117 282.579ZM714.275 160.866L714.151 161.858L714.275 160.866ZM756.753 187.094L755.91 187.633L756.753 187.094ZM739.494 179.921L738.528 180.18V180.18L739.494 179.921ZM744.36 198.028L743.394 198.288V198.288L744.36 198.028ZM743.075 198.863L743.704 198.086V198.086L743.075 198.863ZM726.079 185.108L726.708 184.331L726.079 185.108ZM724.885 185.314L724.031 184.793V184.793L724.885 185.314ZM716.568 198.921L715.714 198.4L716.568 198.921ZM715.145 198.831L714.233 199.24V199.24L715.145 198.831ZM705.8 177.993L706.712 177.584V177.584L705.8 177.993ZM704.776 177.57L704.418 176.637L704.776 177.57ZM666.689 192.172L667.047 193.106L666.689 192.172ZM665.669 191.084L666.577 191.501V191.501L665.669 191.084ZM672.803 175.561L671.895 175.144V175.144L672.803 175.561ZM672.198 174.43L672.356 173.442L672.198 174.43ZM655.534 171.764L655.376 172.751L655.534 171.764ZM655.356 170.223L655.735 171.148V171.148L655.356 170.223ZM684.625 158.233L684.246 157.308V157.308L684.625 158.233ZM667.857 148.881L667.721 147.89L667.857 148.881ZM713.773 160.601L713.033 161.273V161.273L713.773 160.601ZM684.605 156.734L684.958 155.798V155.798L684.605 156.734ZM667.719 150.348L667.365 151.283L667.719 150.348ZM618.891 169.145L619.386 170.015L618.891 169.145ZM638.351 173.231L638.993 173.997V173.997L638.351 173.231ZM620.467 195.19L621.412 195.516V195.516L620.467 195.19ZM621.486 196.092L621.876 197.012L621.876 197.012L621.486 196.092ZM654.028 182.271L653.637 181.35L654.028 182.271ZM726.647 217.354L727.349 216.642L726.647 217.354ZM741.199 231.69L740.497 232.403L741.199 231.69ZM742.518 231.402L741.582 231.048V231.048L742.518 231.402ZM748.429 215.777L747.494 215.423V215.423L748.429 215.777ZM755.714 188.13L755.196 188.985V188.985L755.714 188.13ZM751.339 185.478L751.858 184.623L751.339 185.478ZM740.69 179.023L740.172 179.878L740.69 179.023ZM772.352 234.303L771.392 234.583V234.583L772.352 234.303ZM749.729 215.47L749.051 216.205V216.205L749.729 215.47ZM771.042 235.103L771.719 234.368V234.368L771.042 235.103ZM769.684 261.716L770.684 261.682V261.682L769.684 261.716ZM768.217 262.204L767.396 262.774L768.217 262.204ZM756.928 245.959L757.749 245.389V245.389L756.928 245.959ZM755.544 246.063L756.441 246.505L755.544 246.063ZM752.144 252.963L753.041 253.405L753.041 253.405L752.144 252.963ZM750.963 253.269L751.532 252.447V252.447L750.963 253.269ZM733.537 241.233L732.969 242.056V242.056L733.537 241.233ZM732.756 241.158L732.356 240.242V240.242L732.756 241.158ZM720.989 246.301L720.589 245.384V245.384L720.989 246.301ZM707.16 239.688L706.387 239.053V239.053L707.16 239.688ZM725.46 217.416L726.232 218.051V218.051L725.46 217.416ZM720.203 246.221L720.779 245.404H720.779L720.203 246.221ZM691.917 198.493L692.864 198.172V198.172L691.917 198.493ZM705.774 239.434L706.722 239.114L705.774 239.434ZM695.489 242.877L696.207 243.573V243.573L695.489 242.877ZM694.126 242.498L695.1 242.272V242.272L694.126 242.498ZM690.671 227.582L691.645 227.357V227.357L690.671 227.582ZM689.216 227.316L688.385 226.76L689.216 227.316ZM677.966 244.118L677.135 243.562V243.562L677.966 244.118ZM646.332 229.046L647.306 229.275L646.332 229.046ZM690.625 198.142L689.97 197.387L690.625 198.142ZM676.576 244.03L675.682 244.478V244.478L676.576 244.03ZM655.135 183.154L654.151 182.976L655.135 183.154ZM640.887 227.18L640.014 226.691V226.691L640.887 227.18ZM639.413 227.02L640.37 226.73L639.413 227.02ZM633.113 206.208L634.07 205.919L633.113 206.208ZM631.592 206.147L630.661 205.781V205.781L631.592 206.147ZM625.944 220.509L625.014 220.143L625.944 220.509ZM624.558 220.707L623.767 221.319V221.319L624.558 220.707ZM610.251 202.221L611.042 201.609L610.251 202.221ZM609.016 202.174L608.274 201.504L609.016 202.174ZM592.12 220.882L591.377 220.212L592.12 220.882ZM590.782 220.022L589.865 219.625L590.782 220.022ZM604.043 189.392L604.96 189.789V189.789L604.043 189.392ZM603.267 188.267L603.312 189.266L603.267 188.267ZM587.93 188.965L587.975 189.964L587.93 188.965ZM619.247 170.508L619.314 169.511L619.247 170.508ZM637.883 171.77L637.95 170.772L637.883 171.77ZM587.625 187.401L587.293 186.458L587.625 187.401ZM646.356 254.276C645.839 254.472 645.579 255.049 645.774 255.565C645.969 256.082 646.546 256.343 647.062 256.148L646.356 254.276ZM680.587 260.788C681.106 260.977 681.68 260.71 681.869 260.192C682.058 259.673 681.791 259.099 681.273 258.909L680.587 260.788ZM614.729 252.692C615.105 253.096 615.738 253.12 616.142 252.744C616.547 252.368 616.57 251.735 616.195 251.331L614.729 252.692ZM582.866 239.936C582.317 239.874 581.823 240.27 581.761 240.818C581.7 241.367 582.095 241.862 582.644 241.923L582.866 239.936ZM220.517 369.935L219.718 370.536H219.718L220.517 369.935ZM139.74 421.996L140.627 421.534L140.621 421.523L139.74 421.996ZM232.008 599.084L231.122 599.546C231.294 599.877 231.636 600.084 232.008 600.084V599.084ZM882.328 599.084V600.084H883.462L883.32 598.959L882.328 599.084ZM145.553 409.431L146.299 410.097L145.553 409.431ZM127.854 385.689L126.957 386.129L126.997 386.212L127.052 386.286L127.854 385.689ZM190.259 342.553L189.383 343.035L189.397 343.062L189.413 343.087L190.259 342.553ZM750.683 385.686L750.066 386.473L750.152 386.54L750.25 386.587L750.683 385.686ZM131.245 375.727L130.452 375.117H130.452L131.245 375.727ZM150.96 403.942L151.644 404.672H151.644L150.96 403.942ZM201.53 370.91L201.899 371.839L201.53 370.91ZM192.254 375.168L192.71 376.058L192.254 375.168ZM140.118 366.501L139.453 365.754L140.118 366.501ZM731.554 374.346L731.977 373.44L731.554 374.346ZM737.725 377.418L738.195 376.536L737.725 377.418ZM725.954 318.754C725.461 318.506 724.86 318.704 724.611 319.198C724.363 319.691 724.561 320.292 725.055 320.54L725.954 318.754ZM749.898 331.933L750.348 331.039L749.898 331.933ZM751.784 338.318L750.921 337.812L751.784 338.318ZM749.726 341.831L750.589 342.336L749.726 341.831ZM743.744 343.606L744.191 342.711L743.744 343.606ZM731.528 337.495L731.081 338.389L731.528 337.495ZM734.621 331.293L734.175 332.189L734.621 331.293ZM745.795 337.964C746.289 338.21 746.889 338.008 747.135 337.514C747.381 337.019 747.179 336.419 746.685 336.173L745.795 337.964ZM721.358 350.114C721.377 350.666 721.84 351.098 722.392 351.079C722.944 351.06 723.376 350.597 723.356 350.045L721.358 350.114ZM722.578 327.518C722.559 326.966 722.096 326.534 721.544 326.553C720.992 326.572 720.56 327.035 720.58 327.587L722.578 327.518ZM730.306 332.318L731.106 332.918L730.306 332.318ZM778.007 296.059L778.44 296.96L778.814 296.781L778.951 296.389L778.007 296.059ZM774.65 297.67L774.244 298.584L774.666 298.771L775.083 298.571L774.65 297.67ZM778.812 287.734L779.752 287.392L779.609 286.999L779.229 286.824L778.812 287.734ZM779.887 290.688L780.831 291.018L780.948 290.681L780.827 290.346L779.887 290.688ZM702.411 265.579L701.685 266.266L701.822 266.411L702.005 266.492L702.411 265.579ZM707.245 254.971L707.661 254.062L707.519 253.997L707.364 253.978L707.245 254.971ZM690.461 252.957L690.58 251.964L687.831 251.634L689.734 253.644L690.461 252.957ZM695.966 258.771L695.24 259.459L695.966 258.771ZM708.856 258.771L709.804 259.09L709.925 258.73L709.777 258.381L708.856 258.771ZM707.245 263.564L707.629 264.488L708.048 264.313L708.193 263.883L707.245 263.564ZM797.134 314.051C797.134 313.499 796.686 313.051 796.134 313.051C795.581 313.051 795.134 313.499 795.134 314.051H797.134ZM795.134 326.27C795.134 326.822 795.581 327.27 796.134 327.27C796.686 327.27 797.134 326.822 797.134 326.27H795.134ZM797.134 337.281C797.134 336.728 796.686 336.281 796.134 336.281C795.581 336.281 795.134 336.728 795.134 337.281H797.134ZM795.134 349.5C795.134 350.052 795.581 350.5 796.134 350.5C796.686 350.5 797.134 350.052 797.134 349.5H795.134ZM807.816 332.641C808.368 332.641 808.816 332.193 808.816 331.641C808.816 331.089 808.368 330.641 807.816 330.641V332.641ZM800.506 330.641C799.954 330.641 799.506 331.089 799.506 331.641C799.506 332.193 799.954 332.641 800.506 332.641V330.641ZM791.762 332.641C792.314 332.641 792.762 332.193 792.762 331.641C792.762 331.089 792.314 330.641 791.762 330.641V332.641ZM784.452 330.641C783.9 330.641 783.452 331.089 783.452 331.641C783.452 332.193 783.9 332.641 784.452 332.641V330.641ZM523.753 141.644C523.753 141.092 523.305 140.644 522.753 140.644C522.2 140.644 521.753 141.092 521.753 141.644H523.753ZM521.753 153.863C521.753 154.415 522.2 154.863 522.753 154.863C523.305 154.863 523.753 154.415 523.753 153.863H521.753ZM523.753 164.873C523.753 164.321 523.305 163.873 522.753 163.873C522.2 163.873 521.753 164.321 521.753 164.873H523.753ZM521.753 177.092C521.753 177.645 522.2 178.092 522.753 178.092C523.305 178.092 523.753 177.645 523.753 177.092H521.753ZM534.435 160.234C534.987 160.234 535.435 159.786 535.435 159.234C535.435 158.682 534.987 158.234 534.435 158.234V160.234ZM527.125 158.234C526.573 158.234 526.125 158.682 526.125 159.234C526.125 159.786 526.573 160.234 527.125 160.234V158.234ZM518.38 160.234C518.933 160.234 519.38 159.786 519.38 159.234C519.38 158.682 518.933 158.234 518.38 158.234V160.234ZM511.071 158.234C510.519 158.234 510.071 158.682 510.071 159.234C510.071 159.786 510.519 160.234 511.071 160.234V158.234ZM815.664 369.61C815.664 369.058 815.216 368.61 814.664 368.61C814.111 368.61 813.664 369.058 813.664 369.61H815.664ZM813.664 376.488C813.664 377.041 814.111 377.488 814.664 377.488C815.216 377.488 815.664 377.041 815.664 376.488H813.664ZM815.664 387.499C815.664 386.947 815.216 386.499 814.664 386.499C814.111 386.499 813.664 386.947 813.664 387.499H815.664ZM813.664 394.378C813.664 394.93 814.111 395.378 814.664 395.378C815.216 395.378 815.664 394.93 815.664 394.378H813.664ZM823.675 382.859C824.228 382.859 824.675 382.412 824.675 381.859C824.675 381.307 824.228 380.859 823.675 380.859V382.859ZM819.036 380.859C818.483 380.859 818.036 381.307 818.036 381.859C818.036 382.412 818.483 382.859 819.036 382.859V380.859ZM810.291 382.859C810.844 382.859 811.291 382.412 811.291 381.859C811.291 381.307 810.844 380.859 810.291 380.859V382.859ZM805.652 380.859C805.1 380.859 804.652 381.307 804.652 381.859C804.652 382.412 805.1 382.859 805.652 382.859V380.859ZM542.283 186.491C542.283 185.939 541.835 185.491 541.283 185.491C540.73 185.491 540.283 185.939 540.283 186.491H542.283ZM540.283 204.081C540.283 204.634 540.73 205.081 541.283 205.081C541.835 205.081 542.283 204.634 542.283 204.081H540.283ZM542.283 215.092C542.283 214.539 541.835 214.092 541.283 214.092C540.73 214.092 540.283 214.539 540.283 215.092H542.283ZM540.283 232.682C540.283 233.234 540.73 233.682 541.283 233.682C541.835 233.682 542.283 233.234 542.283 232.682H540.283ZM555.65 210.452C556.202 210.452 556.65 210.004 556.65 209.452C556.65 208.9 556.202 208.452 555.65 208.452V210.452ZM545.655 208.452C545.103 208.452 544.655 208.9 544.655 209.452C544.655 210.004 545.103 210.452 545.655 210.452V208.452ZM536.91 210.452C537.463 210.452 537.91 210.004 537.91 209.452C537.91 208.9 537.463 208.452 536.91 208.452V210.452ZM526.915 208.452C526.363 208.452 525.915 208.9 525.915 209.452C525.915 210.004 526.363 210.452 526.915 210.452V208.452ZM632.566 380.086C656.144 385.311 675.377 378.047 689.939 366.374C704.474 354.724 714.38 338.673 719.427 326.193L717.573 325.443C712.623 337.682 702.898 353.424 688.688 364.814C674.506 376.181 655.879 383.203 632.999 378.134L632.566 380.086ZM618.455 266.622C615.354 272.787 610.458 280.648 606.103 287.463C603.934 290.857 601.89 294.007 600.295 296.519C598.716 299.008 597.513 300.971 597.054 301.977L598.873 302.807C599.261 301.956 600.372 300.13 601.984 297.591C603.581 295.075 605.604 291.958 607.788 288.54C612.138 281.733 617.088 273.79 620.242 267.521L618.455 266.622ZM597.054 301.977C595.73 304.88 597.048 308.623 600.765 310.929C604.496 313.243 610.668 314.198 619.545 311.97L619.058 310.031C610.478 312.183 604.922 311.154 601.819 309.229C598.703 307.296 598.08 304.546 598.873 302.807L597.054 301.977ZM619.545 311.97C623.975 310.859 626.883 309.47 628.678 307.822C630.525 306.126 631.136 304.207 631.074 302.256C631.013 300.382 630.329 298.497 629.69 296.821C629.022 295.068 628.417 293.566 628.276 292.214L626.287 292.421C626.461 294.099 627.198 295.898 627.821 297.533C628.473 299.243 629.027 300.829 629.075 302.321C629.12 303.736 628.71 305.078 627.325 306.349C625.888 307.668 623.356 308.952 619.058 310.031L619.545 311.97ZM628.276 292.214C627.973 289.303 627.537 279.731 626.412 272.604C626.128 270.807 625.797 269.133 625.405 267.729C625.02 266.353 624.549 265.129 623.937 264.317C623.627 263.905 623.221 263.519 622.694 263.326C622.128 263.118 621.545 263.177 621.013 263.443C620.514 263.692 620.073 264.112 619.674 264.624C619.268 265.142 618.864 265.809 618.455 266.622L620.242 267.521C620.615 266.779 620.952 266.236 621.25 265.855C621.554 265.466 621.777 265.297 621.906 265.232C621.964 265.203 621.992 265.201 621.995 265.201C621.995 265.201 621.996 265.2 622.005 265.204C622.037 265.215 622.157 265.277 622.34 265.52C622.716 266.019 623.107 266.938 623.478 268.267C623.842 269.567 624.159 271.158 624.437 272.916C625.556 280.006 625.959 289.274 626.287 292.421L628.276 292.214ZM726.077 282.094C728.051 279.891 731.534 276.714 735.515 274.388C739.53 272.042 743.841 270.683 747.58 271.746L748.128 269.823C743.59 268.532 738.669 270.229 734.506 272.661C730.311 275.112 726.671 278.434 724.587 280.759L726.077 282.094ZM722.978 308.767C728.766 307.303 731.984 304.118 732.282 301.083C732.437 299.514 731.773 298.081 730.389 297.224C729.048 296.394 727.159 296.177 724.916 296.648L725.327 298.606C727.268 298.198 728.58 298.457 729.336 298.924C730.048 299.365 730.374 300.05 730.292 300.888C730.117 302.666 727.957 305.445 722.487 306.828L722.978 308.767ZM746.596 301.51C743.168 307.021 740.198 312.448 737.173 317.046C734.153 321.637 731.282 325.06 728.265 326.548L729.149 328.341C732.699 326.591 735.824 322.735 738.844 318.145C741.859 313.561 744.975 307.904 748.294 302.566L746.596 301.51ZM728.265 326.548C726.887 327.227 725.491 327.495 724.023 327.292C722.543 327.086 720.915 326.391 719.103 325.021L717.897 326.616C719.905 328.134 721.846 329.009 723.748 329.273C725.66 329.538 727.458 329.175 729.149 328.341L728.265 326.548ZM747.58 271.746C748.926 272.129 750.039 272.676 750.942 273.357L752.147 271.76C751.02 270.911 749.677 270.264 748.128 269.823L747.58 271.746ZM750.942 273.357C753.659 275.405 754.75 278.911 754.038 283.784C753.325 288.663 750.817 294.722 746.596 301.51L748.294 302.566C752.588 295.661 755.249 289.334 756.017 284.073C756.786 278.805 755.67 274.417 752.147 271.76L750.942 273.357ZM752.421 273.04C755.795 266.896 757.799 261.412 758.96 257.456C759.541 255.478 759.911 253.881 760.137 252.774C760.25 252.22 760.327 251.789 760.376 251.493C760.4 251.345 760.418 251.231 760.429 251.153C760.435 251.114 760.439 251.083 760.442 251.062C760.444 251.052 760.445 251.043 760.446 251.037C760.446 251.034 760.446 251.032 760.447 251.03C760.447 251.029 760.447 251.028 760.447 251.028C760.447 251.027 760.447 251.027 760.447 251.027C760.447 251.027 760.447 251.026 759.456 250.897C758.464 250.767 758.464 250.767 758.464 250.767C758.464 250.767 758.464 250.767 758.464 250.767C758.464 250.767 758.464 250.767 758.464 250.767C758.464 250.767 758.464 250.769 758.464 250.77C758.463 250.773 758.462 250.779 758.461 250.787C758.459 250.802 758.456 250.827 758.451 250.861C758.441 250.928 758.425 251.03 758.403 251.166C758.357 251.439 758.285 251.846 758.177 252.374C757.962 253.431 757.605 254.973 757.041 256.893C755.914 260.733 753.962 266.08 750.668 272.077L752.421 273.04ZM718.88 351.594C719.656 347.101 722.01 341.334 724.212 336.628C725.307 334.289 726.353 332.236 727.125 330.768C727.51 330.035 727.827 329.448 728.048 329.045C728.158 328.844 728.244 328.689 728.302 328.584C728.331 328.532 728.353 328.492 728.368 328.466C728.375 328.453 728.38 328.443 728.384 328.437C728.386 328.434 728.387 328.431 728.388 328.43C728.388 328.429 728.389 328.428 728.389 328.428C728.389 328.428 728.389 328.428 728.389 328.428C728.389 328.428 728.389 328.428 727.518 327.936C726.647 327.445 726.647 327.445 726.647 327.445C726.647 327.445 726.647 327.445 726.647 327.446C726.646 327.446 726.646 327.447 726.645 327.448C726.644 327.45 726.643 327.453 726.641 327.456C726.637 327.464 726.631 327.475 726.623 327.489C726.607 327.517 726.584 327.558 726.554 327.612C726.493 327.721 726.405 327.88 726.293 328.085C726.068 328.497 725.746 329.093 725.354 329.837C724.572 331.325 723.512 333.406 722.401 335.78C720.191 340.501 717.734 346.477 716.909 351.253L718.88 351.594ZM716.909 351.253C715.277 360.712 715.866 370.241 720.628 383.068L722.503 382.372C717.853 369.845 717.313 360.674 718.88 351.594L716.909 351.253ZM611.11 370.805C613.801 373.007 617.47 374.964 621.356 376.562L622.117 374.712C618.326 373.154 614.855 371.285 612.376 369.257L611.11 370.805ZM621.356 376.562C625.056 378.083 628.998 379.296 632.566 380.086L632.999 378.134C629.54 377.367 625.708 376.188 622.117 374.712L621.356 376.562ZM620.751 375.809L623.066 389.093L625.037 388.749L622.722 375.465L620.751 375.809ZM623.082 389.165L633.248 429.62L635.188 429.133L625.021 388.677L623.082 389.165ZM720.628 383.068C721.175 384.543 721.798 385.988 722.506 387.387L724.291 386.485C723.62 385.157 723.026 383.782 722.503 382.372L720.628 383.068ZM633.252 429.636C633.846 431.85 635.846 433.362 638.458 434.33C641.099 435.309 644.592 435.823 648.613 435.901C656.668 436.056 667.075 434.461 677.585 431.034C698.53 424.205 720.364 409.92 724.383 387.11L722.414 386.763C718.594 408.44 697.713 422.368 676.965 429.133C666.628 432.503 656.445 434.051 648.651 433.901C644.749 433.826 641.503 433.326 639.153 432.455C636.773 431.573 635.528 430.399 635.184 429.118L633.252 429.636ZM725.985 298.13C727.801 295.011 730.857 290.387 734.109 286.66C735.738 284.794 737.384 283.189 738.921 282.109C740.493 281.003 741.773 280.572 742.728 280.718L743.03 278.741C741.289 278.474 739.461 279.285 737.771 280.472C736.047 281.684 734.28 283.422 732.602 285.345C729.242 289.196 726.114 293.933 724.257 297.124L725.985 298.13ZM742.728 280.718C743.743 280.873 744.239 281.348 744.505 282.002C744.807 282.744 744.848 283.818 744.627 285.145C744.189 287.779 742.815 290.885 741.66 292.953L743.406 293.928C744.613 291.769 746.108 288.432 746.6 285.473C746.844 284.004 746.865 282.494 746.358 281.248C745.815 279.914 744.711 278.998 743.03 278.741L742.728 280.718ZM595.928 258.372C598.218 242.887 600.369 229.726 602.171 220.694C603.074 216.17 603.882 212.716 604.568 210.53C604.918 209.417 605.21 208.72 605.427 208.376C605.553 208.176 605.555 208.255 605.393 208.326C605.278 208.376 605.104 208.408 604.914 208.355C604.74 208.306 604.643 208.212 604.613 208.178L606.103 206.844C605.96 206.684 605.746 206.511 605.451 206.428C605.139 206.342 604.84 206.385 604.595 206.492C604.174 206.675 603.901 207.046 603.735 207.309C603.369 207.89 603.014 208.804 602.66 209.931C601.94 212.226 601.115 215.768 600.21 220.302C598.398 229.385 596.24 242.587 593.949 258.079L595.928 258.372ZM591.302 275.487C588.608 289.878 586.819 308.15 589.053 325.581C591.287 343.006 597.56 359.718 611.11 370.805L612.376 369.257C599.377 358.62 593.237 342.486 591.037 325.327C588.838 308.176 590.595 290.129 593.268 275.855L591.302 275.487ZM621.127 377.062C620.198 376.691 620.198 376.692 620.197 376.692C620.197 376.693 620.197 376.694 620.197 376.695C620.196 376.696 620.195 376.699 620.194 376.702C620.191 376.709 620.187 376.718 620.182 376.731C620.173 376.755 620.158 376.792 620.14 376.84C620.102 376.935 620.048 377.076 619.979 377.259C619.839 377.627 619.639 378.166 619.392 378.859C618.897 380.244 618.217 382.243 617.468 384.707C615.97 389.633 614.196 396.429 613.093 403.899C610.903 418.743 611.306 436.659 622.367 447.606L623.773 446.185C613.459 435.975 612.89 418.975 615.072 404.191C616.156 396.847 617.903 390.152 619.381 385.289C620.12 382.859 620.79 380.89 621.275 379.531C621.518 378.851 621.714 378.324 621.849 377.968C621.916 377.79 621.968 377.655 622.003 377.565C622.021 377.52 622.034 377.486 622.043 377.464C622.047 377.453 622.05 377.445 622.053 377.44C622.054 377.437 622.054 377.435 622.055 377.434C622.055 377.434 622.055 377.433 622.055 377.433C622.055 377.433 622.055 377.433 621.127 377.062ZM622.367 447.606C627.92 453.103 635.41 455.884 643.812 456.729C652.209 457.574 661.577 456.492 670.989 454.204C689.806 449.63 708.989 440.19 721.291 431.329L720.122 429.706C708.021 438.423 689.073 447.75 670.516 452.261C661.241 454.515 652.112 455.554 644.012 454.739C635.915 453.925 628.908 451.267 623.773 446.185L622.367 447.606ZM721.291 431.329C741.11 417.053 748.782 393.47 750.538 384.804L748.578 384.406C746.866 392.856 739.35 415.856 720.122 429.706L721.291 431.329ZM607.713 330.948C613.495 335.081 618.702 336.68 623.943 335.825C629.132 334.978 634.162 331.751 639.673 326.686L638.32 325.214C632.898 330.197 628.225 333.099 623.621 333.851C619.069 334.594 614.39 333.262 608.876 329.321L607.713 330.948ZM611.954 261.033C604.586 258.268 596.647 257.126 588.81 257.703L588.957 259.698C596.505 259.142 604.154 260.242 611.251 262.906L611.954 261.033ZM588.81 257.703C587.121 257.827 585.221 258.156 583.575 258.899C581.92 259.645 580.436 260.853 579.783 262.762L581.675 263.41C582.092 262.192 583.057 261.326 584.397 260.722C585.746 260.113 587.387 259.813 588.956 259.698L588.81 257.703ZM579.783 262.76C579.04 264.915 579.695 267.248 580.859 268.952L582.511 267.823C581.585 266.469 581.197 264.796 581.674 263.413L579.783 262.76ZM580.859 268.952C582.028 270.662 583.71 271.87 585.329 272.837L586.354 271.119C584.814 270.2 583.432 269.172 582.511 267.823L580.859 268.952ZM585.32 272.831C589.129 275.158 593.394 276.761 597.813 277.368L598.085 275.387C593.962 274.821 589.957 273.32 586.363 271.125L585.32 272.831ZM597.813 277.368C599.963 277.663 601.754 277.838 603.756 277.499C605.755 277.162 607.888 276.328 610.787 274.735L609.824 272.982C607.017 274.524 605.108 275.243 603.423 275.527C601.741 275.811 600.207 275.678 598.085 275.387L597.813 277.368ZM611.251 262.906C612.935 263.538 613.91 264.319 614.421 265.086C614.916 265.83 615.034 266.651 614.831 267.533C614.407 269.38 612.555 271.482 609.824 272.982L610.787 274.735C613.763 273.101 616.175 270.616 616.781 267.981C617.093 266.622 616.917 265.228 616.086 263.978C615.27 262.751 613.886 261.759 611.954 261.033L611.251 262.906ZM674.851 270.227C666.467 267.08 657.431 265.781 648.513 266.438L648.659 268.432C657.289 267.797 666.035 269.054 674.148 272.1L674.851 270.227ZM648.513 266.438C646.595 266.579 644.446 266.952 642.589 267.789C640.724 268.631 639.068 269.984 638.339 272.114L640.231 272.761C640.724 271.323 641.861 270.312 643.412 269.612C644.971 268.909 646.861 268.565 648.659 268.432L648.513 266.438ZM638.34 272.111C637.51 274.515 638.239 277.129 639.55 279.048L641.202 277.92C640.129 276.35 639.667 274.395 640.23 272.764L638.34 272.111ZM639.55 279.048C640.866 280.974 642.763 282.339 644.604 283.438L645.63 281.72C643.867 280.669 642.27 279.484 641.202 277.92L639.55 279.048ZM644.596 283.432C648.925 286.077 653.771 287.899 658.791 288.588L659.063 286.606C654.339 285.958 649.753 284.24 645.638 281.726L644.596 283.432ZM658.791 288.588C661.24 288.924 663.266 289.12 665.527 288.738C667.784 288.357 670.202 287.414 673.502 285.601L672.539 283.848C669.331 285.61 667.138 286.438 665.193 286.766C663.253 287.094 661.485 286.939 659.063 286.606L658.791 288.588ZM674.148 272.1C676.087 272.828 677.228 273.733 677.831 274.64C678.419 275.524 678.558 276.501 678.32 277.541C677.823 279.703 675.671 282.128 672.539 283.848L673.502 285.601C676.879 283.746 679.591 280.939 680.269 277.989C680.617 276.472 680.421 274.922 679.496 273.532C678.587 272.165 677.037 271.048 674.851 270.227L674.148 272.1ZM714.151 161.858C723.765 163.061 744.541 169.844 755.91 187.633L757.596 186.556C745.786 168.077 724.338 161.117 714.399 159.873L714.151 161.858ZM738.528 180.18L743.394 198.288L745.326 197.769L740.46 179.661L738.528 180.18ZM743.704 198.086L726.708 184.331L725.45 185.885L742.446 199.641L743.704 198.086ZM724.031 184.793L715.714 198.4L717.421 199.443L725.738 185.836L724.031 184.793ZM716.057 198.422L706.712 177.584L704.887 178.402L714.233 199.24L716.057 198.422ZM704.418 176.637L666.331 191.239L667.047 193.106L705.134 178.504L704.418 176.637ZM666.577 191.501L673.712 175.979L671.895 175.144L664.76 190.666L666.577 191.501ZM672.356 173.442L655.692 170.776L655.376 172.751L672.04 175.417L672.356 173.442ZM655.735 171.148L685.004 159.158L684.246 157.308L654.977 169.297L655.735 171.148ZM667.994 149.872C673.906 149.055 682.339 148.757 690.726 150.255C699.123 151.755 707.363 155.034 713.033 161.273L714.513 159.928C708.431 153.236 699.705 149.827 691.078 148.286C682.441 146.743 673.792 147.051 667.721 147.89L667.994 149.872ZM684.958 155.798L682.154 154.738L681.446 156.609L684.251 157.669L684.958 155.798ZM682.154 154.738L668.073 149.412L667.365 151.283L681.446 156.609L682.154 154.738ZM681.721 154.676C673.843 155.302 661.524 156.714 649.442 158.954C637.401 161.186 625.446 164.264 618.396 168.276L619.386 170.015C626.112 166.187 637.762 163.153 649.807 160.92C661.81 158.696 674.058 157.292 681.879 156.67L681.721 154.676ZM637.709 172.464C634.787 174.909 630.956 178.466 627.506 182.414C624.072 186.344 620.943 190.741 619.521 194.864L621.412 195.516C622.706 191.764 625.629 187.602 629.012 183.73C632.38 179.877 636.132 176.391 638.993 173.997L637.709 172.464ZM621.876 197.012L654.419 183.191L653.637 181.35L621.095 195.171L621.876 197.012ZM725.946 218.066L740.497 232.403L741.901 230.978L727.349 216.642L725.946 218.066ZM743.453 231.755L749.365 216.131L747.494 215.423L741.582 231.048L743.453 231.755ZM756.233 187.275L751.858 184.623L750.821 186.333L755.196 188.985L756.233 187.275ZM751.858 184.623L741.208 178.168L740.172 179.878L750.821 186.333L751.858 184.623ZM773.312 234.023C770.949 225.926 767.342 214.691 763.491 204.968C761.566 200.109 759.571 195.603 757.631 192.049C756.661 190.272 755.695 188.715 754.748 187.462C753.81 186.223 752.844 185.221 751.858 184.623L750.821 186.333C751.49 186.739 752.276 187.51 753.153 188.669C754.02 189.816 754.934 191.281 755.876 193.007C757.76 196.459 759.72 200.88 761.632 205.705C765.452 215.35 769.04 226.521 771.392 234.583L773.312 234.023ZM749.051 216.205L768.023 233.682L769.378 232.211L750.406 214.734L749.051 216.205ZM768.023 233.682L770.364 235.839L771.719 234.368L769.378 232.211L768.023 233.682ZM767.701 232.981L768.685 261.75L770.684 261.682L769.7 232.912L767.701 232.981ZM769.039 261.633L757.749 245.389L756.107 246.53L767.396 262.774L769.039 261.633ZM754.647 245.621L751.247 252.521L753.041 253.405L756.441 246.505L754.647 245.621ZM751.532 252.447L734.105 240.411L732.969 242.056L750.395 254.092L751.532 252.447ZM732.356 240.242L720.589 245.384L721.39 247.217L733.157 242.074L732.356 240.242ZM707.933 240.322L709.308 238.649L707.763 237.379L706.387 239.053L707.933 240.322ZM709.308 238.649L726.232 218.051L724.687 216.782L707.763 237.379L709.308 238.649ZM720.779 245.404L709.111 237.196L707.96 238.832L719.628 247.039L720.779 245.404ZM690.97 198.814L703.029 234.443L704.924 233.802L692.864 198.172L690.97 198.814ZM703.029 234.443L704.827 239.755L706.722 239.114L704.924 233.802L703.029 234.443ZM703.259 233.427L694.771 242.181L696.207 243.573L704.695 234.819L703.259 233.427ZM695.1 242.272L691.645 227.357L689.696 227.808L693.152 242.724L695.1 242.272ZM688.385 226.76L677.135 243.562L678.797 244.675L690.047 227.872L688.385 226.76ZM645.359 228.818C645.22 229.411 645.164 230.141 645.569 230.735C646.019 231.397 646.76 231.512 647.321 231.478C647.894 231.443 648.543 231.249 649.216 230.977C649.904 230.699 650.683 230.312 651.535 229.838C654.928 227.951 659.742 224.534 665.017 220.496L663.802 218.908C658.531 222.942 653.817 226.281 650.563 228.09C649.753 228.541 649.051 228.886 648.467 229.123C647.867 229.365 647.453 229.466 647.2 229.482C646.937 229.498 647.091 229.417 647.222 229.61C647.307 229.735 647.201 229.724 647.306 229.275L645.359 228.818ZM665.017 220.496C673.798 213.774 683.978 205.24 691.281 198.897L689.97 197.387C682.682 203.716 672.537 212.221 663.802 218.908L665.017 220.496ZM677.471 243.583L665.304 219.254L663.515 220.149L675.682 244.478L677.471 243.583ZM654.151 182.976C652.847 190.187 650.838 201.127 649.005 210.743L650.969 211.117C652.805 201.494 654.814 190.547 656.119 183.332L654.151 182.976ZM649.005 210.743C647.513 218.565 646.141 225.486 645.359 228.818L647.306 229.275C648.1 225.894 649.479 218.929 650.969 211.117L649.005 210.743ZM649.114 210.441L640.014 226.691L641.759 227.668L650.859 211.418L649.114 210.441ZM640.37 226.73L634.07 205.919L632.156 206.498L638.456 227.309L640.37 226.73ZM630.661 205.781L625.014 220.143L626.875 220.874L632.522 206.513L630.661 205.781ZM625.348 220.095L611.042 201.609L609.461 202.833L623.767 221.319L625.348 220.095ZM608.274 201.504L591.377 220.212L592.862 221.552L609.759 202.844L608.274 201.504ZM591.7 220.419L604.96 189.789L603.125 188.995L589.865 219.625L591.7 220.419ZM603.221 187.268L587.885 187.966L587.975 189.964L603.312 189.266L603.221 187.268ZM619.179 171.506L632.828 172.43L632.963 170.434L619.314 169.511L619.179 171.506ZM632.828 172.43L637.815 172.767L637.95 170.772L632.963 170.434L632.828 172.43ZM587.958 188.344L633.228 172.375L632.562 170.489L587.293 186.458L587.958 188.344ZM587.885 187.966C587.888 187.966 587.908 187.966 587.939 187.977C587.969 187.987 587.997 188.003 588.021 188.024C588.066 188.063 588.08 188.102 588.084 188.123C588.088 188.145 588.09 188.187 588.063 188.24C588.048 188.267 588.028 188.293 588.004 188.314C587.98 188.335 587.961 188.343 587.958 188.344L587.293 186.458C585.333 187.149 585.9 190.059 587.975 189.964L587.885 187.966ZM604.96 189.789C605.491 188.564 604.555 187.207 603.221 187.268L603.312 189.266C603.169 189.273 603.068 189.127 603.125 188.995L604.96 189.789ZM591.377 220.212C591.391 220.197 591.44 220.161 591.512 220.155C591.57 220.15 591.608 220.166 591.627 220.179C591.646 220.191 591.677 220.218 591.696 220.273C591.72 220.341 591.708 220.401 591.7 220.419L589.865 219.625C589.053 221.5 591.492 223.069 592.862 221.552L591.377 220.212ZM611.042 201.609C610.354 200.719 609.028 200.669 608.274 201.504L609.759 202.844C609.677 202.934 609.535 202.929 609.461 202.833L611.042 201.609ZM625.014 220.143C625.069 220.002 625.256 219.976 625.348 220.095L623.767 221.319C624.624 222.427 626.362 222.179 626.875 220.874L625.014 220.143ZM634.07 205.919C633.574 204.28 631.288 204.187 630.661 205.781L632.522 206.513C632.512 206.539 632.484 206.579 632.438 206.607C632.399 206.631 632.362 206.637 632.334 206.636C632.306 206.635 632.27 206.626 632.232 206.598C632.188 206.567 632.164 206.525 632.156 206.498L634.07 205.919ZM640.014 226.691C640.029 226.666 640.059 226.633 640.103 226.612C640.141 226.593 640.177 226.59 640.205 226.593C640.233 226.596 640.267 226.607 640.301 226.634C640.339 226.663 640.362 226.702 640.37 226.73L638.456 227.309C638.917 228.833 640.981 229.057 641.759 227.668L640.014 226.691ZM677.135 243.562C677.218 243.438 677.404 243.45 677.471 243.583L675.682 244.478C676.301 245.716 678.027 245.825 678.797 244.675L677.135 243.562ZM691.645 227.357C691.288 225.817 689.265 225.446 688.385 226.76L690.047 227.872C690.031 227.897 689.998 227.926 689.954 227.944C689.914 227.96 689.879 227.961 689.851 227.955C689.823 227.95 689.79 227.937 689.758 227.908C689.723 227.876 689.703 227.837 689.696 227.808L691.645 227.357ZM694.771 242.181C694.879 242.071 695.065 242.122 695.1 242.272L693.152 242.724C693.475 244.117 695.212 244.6 696.207 243.573L694.771 242.181ZM720.589 245.384C720.651 245.357 720.723 245.365 720.779 245.404L719.628 247.039C720.144 247.402 720.812 247.47 721.39 247.217L720.589 245.384ZM734.105 240.411C733.591 240.055 732.929 239.991 732.356 240.242L733.157 242.074C733.095 242.101 733.024 242.094 732.969 242.056L734.105 240.411ZM751.247 252.521C751.299 252.414 751.434 252.379 751.532 252.447L750.395 254.092C751.302 254.719 752.554 254.393 753.041 253.405L751.247 252.521ZM757.749 245.389C756.964 244.259 755.255 244.387 754.647 245.621L756.441 246.505C756.375 246.638 756.191 246.652 756.107 246.53L757.749 245.389ZM749.365 216.131C749.316 216.26 749.152 216.298 749.051 216.205L750.406 214.734C749.466 213.867 747.947 214.227 747.494 215.423L749.365 216.131ZM740.497 232.403C741.427 233.319 742.991 232.976 743.453 231.755L741.582 231.048C741.632 230.916 741.8 230.879 741.901 230.978L740.497 232.403ZM727.349 216.642C726.593 215.897 725.361 215.961 724.687 216.782L726.232 218.051C726.16 218.14 726.027 218.146 725.946 218.066L727.349 216.642ZM706.387 239.053C706.484 238.935 706.673 238.969 706.722 239.114L704.827 239.755C705.281 241.097 707.033 241.417 707.933 240.322L706.387 239.053ZM692.864 198.172C692.453 196.959 690.942 196.542 689.97 197.387L691.281 198.897C691.175 198.989 691.013 198.941 690.97 198.814L692.864 198.172ZM654.419 183.191C654.279 183.251 654.123 183.131 654.151 182.976L656.119 183.332C656.375 181.916 654.956 180.79 653.637 181.35L654.419 183.191ZM619.521 194.864C618.989 196.407 620.571 197.567 621.876 197.012L621.095 195.171C621.156 195.145 621.253 195.155 621.326 195.219C621.361 195.249 621.394 195.296 621.412 195.358C621.431 195.424 621.424 195.483 621.412 195.516L619.521 194.864ZM638.993 173.997C640.234 172.959 639.606 170.884 637.95 170.772L637.815 172.767C637.785 172.765 637.742 172.751 637.706 172.72C637.674 172.694 637.659 172.666 637.652 172.645C637.646 172.625 637.642 172.595 637.652 172.559C637.663 172.517 637.687 172.482 637.709 172.464L638.993 173.997ZM618.396 168.276C617.651 168.701 617.383 169.503 617.571 170.207C617.754 170.895 618.36 171.451 619.179 171.506L619.314 169.511C619.332 169.512 619.375 169.522 619.42 169.56C619.46 169.593 619.489 169.639 619.503 169.691C619.517 169.743 619.518 169.812 619.489 169.883C619.458 169.961 619.407 170.002 619.386 170.015L618.396 168.276ZM667.721 147.89C666.822 148.014 666.273 148.713 666.205 149.457C666.138 150.192 666.537 150.97 667.365 151.283L668.073 149.412C668.089 149.419 668.131 149.444 668.164 149.498C668.192 149.545 668.201 149.595 668.197 149.639C668.193 149.684 668.174 149.741 668.127 149.792C668.074 149.85 668.015 149.869 667.994 149.872L667.721 147.89ZM685.004 159.158C686.521 158.537 686.492 156.378 684.958 155.798L684.251 157.669C684.224 157.659 684.186 157.633 684.158 157.591C684.134 157.554 684.126 157.518 684.125 157.49C684.125 157.462 684.132 157.426 684.155 157.388C684.182 157.346 684.219 157.318 684.246 157.308L685.004 159.158ZM655.692 170.776C655.718 170.78 655.766 170.8 655.806 170.845C655.839 170.882 655.851 170.919 655.854 170.946C655.857 170.972 655.854 171.011 655.83 171.055C655.802 171.107 655.759 171.138 655.735 171.148L654.977 169.297C653.288 169.989 653.574 172.463 655.376 172.751L655.692 170.776ZM673.712 175.979C674.211 174.893 673.536 173.631 672.356 173.442L672.04 175.417C671.913 175.397 671.841 175.261 671.895 175.144L673.712 175.979ZM666.331 191.239C666.358 191.228 666.403 191.223 666.451 191.235C666.493 191.246 666.523 191.267 666.543 191.287C666.562 191.308 666.581 191.339 666.589 191.382C666.598 191.43 666.589 191.475 666.577 191.501L664.76 190.666C664.084 192.137 665.536 193.686 667.047 193.106L666.331 191.239ZM706.712 177.584C706.32 176.709 705.313 176.294 704.418 176.637L705.134 178.504C705.038 178.541 704.93 178.496 704.887 178.402L706.712 177.584ZM715.714 198.4C715.796 198.266 715.993 198.279 716.057 198.422L714.233 199.24C714.827 200.565 716.663 200.682 717.421 199.443L715.714 198.4ZM726.708 184.331C725.859 183.644 724.601 183.861 724.031 184.793L725.738 185.836C725.677 185.936 725.541 185.959 725.45 185.885L726.708 184.331ZM768.685 261.75C768.684 261.724 768.694 261.673 768.729 261.627C768.759 261.587 768.792 261.568 768.818 261.559C768.843 261.551 768.882 261.546 768.929 261.56C768.985 261.577 769.023 261.611 769.039 261.633L767.396 262.774C768.424 264.253 770.745 263.481 770.684 261.682L768.685 261.75ZM743.394 198.288C743.387 198.261 743.386 198.211 743.407 198.16C743.426 198.116 743.453 198.089 743.476 198.074C743.499 198.059 743.534 198.045 743.582 198.046C743.638 198.047 743.683 198.069 743.704 198.086L742.446 199.641C743.806 200.741 745.78 199.458 745.326 197.768L743.394 198.288ZM740.46 179.661C740.467 179.689 740.468 179.735 740.451 179.782C740.436 179.823 740.412 179.85 740.389 179.867C740.366 179.884 740.333 179.899 740.29 179.903C740.24 179.906 740.196 179.893 740.172 179.878L741.208 178.168C739.816 177.324 738.106 178.608 738.528 180.18L740.46 179.661ZM755.91 187.633C755.9 187.616 755.876 187.56 755.886 187.48C755.895 187.41 755.927 187.358 755.961 187.324C755.994 187.291 756.042 187.264 756.101 187.256C756.169 187.247 756.218 187.266 756.233 187.275L755.196 188.985C755.967 189.453 756.839 189.271 757.37 188.743C757.907 188.21 758.09 187.329 757.596 186.556L755.91 187.633ZM771.392 234.583C771.385 234.559 771.381 234.504 771.406 234.444C771.428 234.393 771.46 234.364 771.486 234.348C771.512 234.332 771.55 234.319 771.6 234.322C771.658 234.327 771.702 234.352 771.719 234.368L770.364 235.839C771.677 237.048 773.834 235.814 773.312 234.023L771.392 234.583ZM714.399 159.873C714.423 159.876 714.447 159.884 714.469 159.896C714.491 159.907 714.505 159.92 714.513 159.928L713.033 161.273C713.317 161.586 713.705 161.802 714.151 161.858L714.399 159.873ZM647.062 256.148C657.473 252.216 665.564 255.304 680.587 260.788L681.273 258.909C666.428 253.49 657.587 250.036 646.356 254.276L647.062 256.148ZM616.195 251.331C608.026 242.534 598.571 241.691 582.866 239.936L582.644 241.923C598.538 243.7 607.157 244.537 614.729 252.692L616.195 251.331ZM621.042 375.464C591.619 369.939 564.115 380.192 539.258 398.301C514.407 416.405 492.108 442.425 473.026 468.633C453.943 494.844 438.025 521.318 425.987 540.324C419.954 549.848 414.919 557.459 410.941 562.26C408.942 564.673 407.276 566.293 405.943 567.109C405.281 567.514 404.775 567.674 404.403 567.691C404.07 567.706 403.795 567.611 403.524 567.362L402.169 568.832C402.826 569.438 403.62 569.729 404.494 569.689C405.329 569.651 406.169 569.316 406.987 568.815C408.616 567.818 410.455 565.982 412.481 563.536C416.554 558.621 421.654 550.902 427.676 541.395C439.746 522.34 455.609 495.953 474.643 469.811C493.678 443.666 515.833 417.841 540.435 399.918C565.03 381.999 591.98 372.041 620.672 377.43L621.042 375.464ZM403.524 567.362C396.128 560.542 361.273 525.253 322.896 484.534C284.518 443.814 242.686 397.735 221.316 369.334L219.718 370.536C241.165 399.04 283.072 445.195 321.441 485.906C359.812 526.618 394.713 561.957 402.169 568.832L403.524 567.362ZM138.853 422.458L231.122 599.546L232.895 598.622L140.627 421.534L138.853 422.458ZM232.008 600.084H882.328V598.084H232.008V600.084ZM144.807 408.765C142.379 411.482 140.501 414.043 139.411 416.303C138.344 418.519 137.912 420.709 138.859 422.47L140.621 421.523C140.146 420.64 140.219 419.234 141.213 417.171C142.185 415.154 143.925 412.754 146.299 410.097L144.807 408.765ZM146.355 408.833L128.656 385.091L127.052 386.286L144.751 410.029L146.355 408.833ZM221.316 369.334C219.998 367.583 217.88 366.811 215.402 366.689C212.925 366.568 209.944 367.082 206.657 368.055L207.224 369.972C210.41 369.029 213.146 368.581 215.304 368.687C217.46 368.793 218.894 369.441 219.718 370.536L221.316 369.334ZM189.413 343.087L206.095 369.547L207.787 368.48L191.105 342.02L189.413 343.087ZM638.388 432.683L627.87 451.04L629.606 452.034L640.124 433.678L638.388 432.683ZM651.098 433.016L647.748 456.091L649.727 456.378L653.078 433.304L651.098 433.016ZM666.331 432.216L672.797 451.665L674.695 451.034L668.229 431.585L666.331 432.216ZM684.148 425.868L697.15 444.508L698.79 443.363L685.789 424.724L684.148 425.868ZM703.868 417.169L720.649 429.11L721.808 427.48L705.027 415.539L703.868 417.169ZM715.455 405.898L739.114 411.455L739.572 409.508L715.912 403.951L715.455 405.898ZM750.25 386.587C825.845 422.943 864.147 481.519 870.13 519.677L872.106 519.368C865.999 480.415 827.159 421.355 751.117 384.785L750.25 386.587ZM631.822 420.75L614.635 430.506L615.622 432.246L632.81 422.49L631.822 420.75ZM628.517 405.494L614.792 402.271L614.335 404.218L628.06 407.441L628.517 405.494ZM625.212 388.442L618.415 386.846L617.957 388.793L624.755 390.389L625.212 388.442ZM128.752 385.248C128.335 384.398 128.326 383.229 128.883 381.673C129.438 380.124 130.51 378.322 132.038 376.336L130.452 375.117C128.861 377.185 127.654 379.175 127.001 380.999C126.35 382.816 126.206 384.6 126.957 386.129L128.752 385.248ZM150.276 403.213C148.239 405.121 146.398 406.984 144.807 408.765L146.299 410.097C147.842 408.37 149.64 406.549 151.644 404.672L150.276 403.213ZM130.425 376.299L150.14 404.515L151.78 403.37L132.065 375.154L130.425 376.299ZM183.568 341.923C185.206 341.622 186.526 341.592 187.512 341.807C188.472 342.016 189.055 342.439 189.383 343.035L191.135 342.071C190.462 340.848 189.312 340.152 187.938 339.853C186.589 339.559 184.974 339.631 183.206 339.956L183.568 341.923ZM206.657 368.055C204.916 368.57 203.075 369.219 201.16 369.981L201.899 371.839C203.769 371.095 205.552 370.468 207.224 369.972L206.657 368.055ZM182.531 341.457L200.674 371.428L202.385 370.392L184.242 340.422L182.531 341.457ZM172.76 345.794C176.915 343.822 180.637 342.461 183.568 341.923L183.206 339.956C180.027 340.54 176.124 341.983 171.902 343.988L172.76 345.794ZM201.16 369.981C198.197 371.16 195.047 372.614 191.798 374.278L192.71 376.058C195.915 374.417 199.007 372.99 201.899 371.839L201.16 369.981ZM171.496 345.441L191.419 375.717L193.09 374.618L173.167 344.341L171.496 345.441ZM132.038 376.336C134.205 373.519 137.226 370.414 140.783 367.247L139.453 365.754C135.841 368.969 132.723 372.165 130.452 375.117L132.038 376.336ZM160.778 394.294C156.938 397.292 153.376 400.309 150.276 403.213L151.644 404.672C154.692 401.816 158.207 398.839 162.008 395.871L160.778 394.294ZM139.316 367.098L160.591 395.68L162.195 394.486L140.92 365.903L139.316 367.098ZM140.783 367.247C145.292 363.233 150.632 359.146 156.123 355.448L155.006 353.79C149.452 357.53 144.039 361.671 139.453 365.754L140.783 367.247ZM156.123 355.448C161.775 351.642 167.569 348.259 172.76 345.794L171.902 343.988C166.601 346.504 160.72 349.941 155.006 353.79L156.123 355.448ZM191.798 374.278C186.478 377.002 180.882 380.293 175.4 383.867L176.492 385.543C181.926 382 187.462 378.745 192.71 376.058L191.798 374.278ZM175.4 383.867C170.331 387.172 165.354 390.722 160.778 394.294L162.008 395.871C166.538 392.335 171.469 388.818 176.492 385.543L175.4 383.867ZM154.736 355.18L175.118 385.266L176.774 384.144L156.392 354.058L154.736 355.18ZM723.226 388.274L746.87 392.724L747.239 390.758L723.595 386.309L723.226 388.274ZM718.459 369.026C718.146 369.975 718.146 369.975 718.146 369.975C718.146 369.975 718.146 369.975 718.146 369.975C718.146 369.975 718.147 369.975 718.147 369.976C718.147 369.976 718.148 369.976 718.149 369.976C718.152 369.977 718.156 369.978 718.161 369.98C718.171 369.984 718.187 369.989 718.208 369.996C718.25 370.01 718.313 370.031 718.397 370.06C718.565 370.117 718.814 370.203 719.136 370.317C719.781 370.545 720.719 370.885 721.887 371.332C724.223 372.227 727.474 373.548 731.132 375.252L731.977 373.44C728.268 371.711 724.972 370.372 722.602 369.465C721.417 369.011 720.462 368.665 719.803 368.431C719.473 368.315 719.217 368.226 719.043 368.167C718.955 368.137 718.889 368.115 718.843 368.1C718.82 368.092 718.803 368.086 718.791 368.082C718.785 368.08 718.781 368.079 718.778 368.078C718.776 368.077 718.775 368.077 718.774 368.076C718.773 368.076 718.773 368.076 718.773 368.076C718.773 368.076 718.773 368.076 718.772 368.076C718.772 368.076 718.772 368.076 718.459 369.026ZM731.132 375.252C733.084 376.162 735.151 377.181 737.255 378.301L738.195 376.536C736.055 375.396 733.957 374.362 731.977 373.44L731.132 375.252ZM737.255 378.301C741.603 380.617 746.097 383.361 750.066 386.473L751.3 384.899C747.211 381.693 742.61 378.887 738.195 376.536L737.255 378.301ZM721.326 380.035L737.823 378.414L737.627 376.423L721.131 378.044L721.326 380.035ZM725.055 320.54L749.448 332.826L750.348 331.039L725.954 318.754L725.055 320.54ZM750.921 337.812L748.863 341.325L750.589 342.336L752.646 338.823L750.921 337.812ZM744.191 342.711L731.976 336.6L731.081 338.389L743.297 344.5L744.191 342.711ZM734.175 332.189L745.795 337.964L746.685 336.173L735.066 330.398L734.175 332.189ZM723.356 350.045L722.578 327.518L720.58 327.587L721.358 350.114L723.356 350.045ZM731.106 332.918C731.819 331.966 733.11 331.659 734.175 332.189L735.066 330.398C733.136 329.439 730.797 329.994 729.505 331.719L731.106 332.918ZM731.976 336.6C730.601 335.913 730.184 334.148 731.106 332.918L729.505 331.719C727.836 333.947 728.591 337.143 731.081 338.389L731.976 336.6ZM748.863 341.325C747.914 342.945 745.871 343.552 744.191 342.711L743.297 344.5C745.918 345.811 749.107 344.865 750.589 342.336L748.863 341.325ZM749.448 332.826C751.286 333.751 751.961 336.036 750.921 337.812L752.646 338.823C754.27 336.051 753.217 332.484 750.348 331.039L749.448 332.826ZM777.574 295.157L774.217 296.768L775.083 298.571L778.44 296.96L777.574 295.157ZM777.873 288.075L778.947 291.029L780.827 290.346L779.752 287.392L777.873 288.075ZM778.943 290.357L777.063 295.728L778.951 296.389L780.831 291.018L778.943 290.357ZM729 276.296L702.817 264.665L702.005 266.492L728.188 278.124L729 276.296ZM775.056 296.756L754.378 287.57L753.566 289.398L774.244 298.584L775.056 296.756ZM754.227 277.579L778.396 288.643L779.229 286.824L755.06 275.76L754.227 277.579ZM706.828 255.88L740.531 271.309L741.364 269.49L707.661 254.062L706.828 255.88ZM690.341 253.95L698.733 254.957L698.972 252.971L690.58 251.964L690.341 253.95ZM698.733 254.957L707.126 255.964L707.364 253.978L698.972 252.971L698.733 254.957ZM703.137 264.891L696.692 258.084L695.24 259.459L701.685 266.266L703.137 264.891ZM696.692 258.084L691.187 252.269L689.734 253.644L695.24 259.459L696.692 258.084ZM697.995 253.449L695.108 258.257L696.823 259.286L699.71 254.479L697.995 253.449ZM706.324 255.361L707.935 259.162L709.777 258.381L708.165 254.581L706.324 255.361ZM707.908 258.453L706.297 263.246L708.193 263.883L709.804 259.09L707.908 258.453ZM706.86 262.641L702.026 264.655L702.795 266.502L707.629 264.488L706.86 262.641ZM795.134 314.051V326.27H797.134V314.051H795.134ZM795.134 337.281V349.5H797.134V337.281H795.134ZM807.816 330.641H800.506V332.641H807.816V330.641ZM791.762 330.641H784.452V332.641H791.762V330.641ZM521.753 141.644V153.863H523.753V141.644H521.753ZM521.753 164.873V177.092H523.753V164.873H521.753ZM534.435 158.234H527.125V160.234H534.435V158.234ZM518.38 158.234H511.071V160.234H518.38V158.234ZM813.664 369.61V376.488H815.664V369.61H813.664ZM813.664 387.499V394.378H815.664V387.499H813.664ZM823.675 380.859H819.036V382.859H823.675V380.859ZM810.291 380.859H805.652V382.859H810.291V380.859ZM540.283 186.491V204.081H542.283V186.491H540.283ZM540.283 215.092V232.682H542.283V215.092H540.283ZM555.65 208.452H545.655V210.452H555.65V208.452ZM536.91 208.452H526.915V210.452H536.91V208.452ZM882.328 599.084C883.32 598.959 883.32 598.959 883.32 598.959C883.32 598.959 883.32 598.958 883.32 598.957C883.32 598.956 883.32 598.954 883.319 598.952C883.319 598.947 883.318 598.939 883.317 598.929C883.314 598.909 883.31 598.88 883.305 598.84C883.295 598.761 883.28 598.644 883.261 598.488C883.221 598.178 883.163 597.719 883.086 597.12C882.933 595.923 882.708 594.17 882.418 591.946C881.839 587.497 881.005 581.165 879.981 573.627C877.933 558.553 875.13 538.655 872.106 519.368L870.13 519.677C873.151 538.946 875.952 558.829 877.999 573.896C879.022 581.43 879.857 587.758 880.435 592.204C880.724 594.426 880.95 596.178 881.103 597.374C881.179 597.972 881.237 598.431 881.277 598.74C881.296 598.895 881.311 599.012 881.321 599.091C881.326 599.13 881.33 599.16 881.332 599.18C881.334 599.19 881.335 599.197 881.335 599.202C881.335 599.204 881.336 599.206 881.336 599.207C881.336 599.208 881.336 599.209 881.336 599.209C881.336 599.209 881.336 599.209 882.328 599.084Z" fill="#141414"/>
<circle cx="494.555" cy="196.831" r="2.0141" fill="#141414"/>
<circle cx="116.067" cy="229.918" r="2.0141" fill="white"/>
<circle cx="22.6192" cy="185.481" r="2.0141" fill="white"/>
<circle cx="95.4832" cy="166.857" r="2.0141" fill="white"/>
<circle cx="564.646" cy="172.93" r="2.0141" fill="#141414"/>
<circle cx="516.306" cy="244.363" r="2.0141" fill="#141414"/>
<circle cx="766.325" cy="372.46" r="2.0141" fill="#141414"/>
<path d="M256.575 601.045L202.602 444.535H456.79L506.556 588.846H676.706V601.045H510.763H256.575Z" fill="white"/>
<path d="M510.763 601.045H256.575L202.602 444.535H456.79L506.556 588.846M510.763 601.045L506.556 588.846M510.763 601.045H676.706V588.846H506.556" stroke="#141414" stroke-width="2"/>
<path d="M363.92 516.343C368.336 527.586 364.396 539.26 355.664 542.69C346.931 546.12 336.099 540.248 331.683 529.006C327.267 517.764 331.207 506.089 339.94 502.659C348.672 499.229 359.504 505.101 363.92 516.343Z" fill="#DEDEDE" stroke="#141414" stroke-width="2"/>
<path d="M137.579 366.933C131.981 353.15 121.765 335.74 112.747 334.626C101.474 333.234 61.4778 349.795 58.7977 337.678C56.6536 327.985 76.5672 321.383 86.792 319.294C79.7461 318.188 67.5143 313.035 74.9545 301.269M74.9545 301.269C71.7797 299.51 65.7925 294.698 67.2421 289.525C69.0541 283.058 75.2175 269.824 86.456 269.675C95.4468 269.556 95.2981 281.552 94.0999 287.565M74.9545 301.269C80.2474 292.898 87.5948 288.813 94.0999 287.565M90.1652 309.847C91.2339 310.383 95.6332 310.674 104.681 307.546C115.991 303.637 112.44 292.874 106.169 288.979C103.467 287.3 99.0248 286.62 94.0999 287.565M138.502 317.976C126.984 310.358 123.386 304.05 127.036 285.634C119.694 285.765 105.259 283.009 106.249 270.945C107.486 255.865 137.673 261.058 147.929 271.913C158.185 282.769 161.532 315.721 177.115 342.428M70.0381 282.47C66.8633 280.711 61.1423 276.119 62.5919 270.945C64.4039 264.478 70.5674 251.244 81.8058 251.095C90.7966 250.977 90.6479 262.972 89.4497 268.985" stroke="#141414" stroke-width="2" stroke-linecap="round" stroke-linejoin="round"/>
<path d="M85.9721 251.92L50.0121 131.678L121.242 319.065L107.519 323.966L102.877 308.446M90.1251 265.806L91.5909 270.707M94.9622 281.98L96.2462 286.391" stroke="#141414" stroke-width="2" stroke-linecap="round" stroke-linejoin="round"/>
<path d="M503.041 514.621L512.844 477.209M530.978 531.285L559.895 499.754M545.845 558.405L587.994 550.89" stroke="white" stroke-width="2" stroke-linecap="round" stroke-linejoin="round"/>
<path d="M13.6818 207.319C13.6818 206.767 13.2341 206.319 12.6818 206.319C12.1295 206.319 11.6818 206.767 11.6818 207.319H13.6818ZM11.6818 219.538C11.6818 220.091 12.1295 220.538 12.6818 220.538C13.2341 220.538 13.6818 220.091 13.6818 219.538H11.6818ZM13.6818 230.549C13.6818 229.996 13.2341 229.549 12.6818 229.549C12.1295 229.549 11.6818 229.996 11.6818 230.549H13.6818ZM11.6818 242.768C11.6818 243.32 12.1295 243.768 12.6818 243.768C13.2341 243.768 13.6818 243.32 13.6818 242.768H11.6818ZM24.3636 225.909C24.9159 225.909 25.3636 225.461 25.3636 224.909C25.3636 224.357 24.9159 223.909 24.3636 223.909V225.909ZM17.0541 223.909C16.5018 223.909 16.0541 224.357 16.0541 224.909C16.0541 225.461 16.5018 225.909 17.0541 225.909V223.909ZM8.30952 225.909C8.8618 225.909 9.30952 225.461 9.30952 224.909C9.30952 224.357 8.8618 223.909 8.30952 223.909V225.909ZM1 223.909C0.447715 223.909 0 224.357 0 224.909C0 225.461 0.447715 225.909 1 225.909V223.909ZM11.6818 207.319V219.538H13.6818V207.319H11.6818ZM11.6818 230.549V242.768H13.6818V230.549H11.6818ZM24.3636 223.909H17.0541V225.909H24.3636V223.909ZM8.30952 223.909H1V225.909H8.30952V223.909Z" fill="white"/>
<path d="M119.547 124C119.547 123.448 119.099 123 118.547 123C117.995 123 117.547 123.448 117.547 124H119.547ZM117.547 136.219C117.547 136.771 117.995 137.219 118.547 137.219C119.099 137.219 119.547 136.771 119.547 136.219H117.547ZM119.547 147.229C119.547 146.677 119.099 146.229 118.547 146.229C117.995 146.229 117.547 146.677 117.547 147.229H119.547ZM117.547 159.448C117.547 160.001 117.995 160.448 118.547 160.448C119.099 160.448 119.547 160.001 119.547 159.448H117.547ZM130.229 142.59C130.781 142.59 131.229 142.142 131.229 141.59C131.229 141.038 130.781 140.59 130.229 140.59V142.59ZM122.919 140.59C122.367 140.59 121.919 141.038 121.919 141.59C121.919 142.142 122.367 142.59 122.919 142.59V140.59ZM114.175 142.59C114.727 142.59 115.175 142.142 115.175 141.59C115.175 141.038 114.727 140.59 114.175 140.59V142.59ZM106.865 140.59C106.313 140.59 105.865 141.038 105.865 141.59C105.865 142.142 106.313 142.59 106.865 142.59V140.59ZM117.547 124V136.219H119.547V124H117.547ZM117.547 147.229V159.448H119.547V147.229H117.547ZM130.229 140.59H122.919V142.59H130.229V140.59ZM114.175 140.59H106.865V142.59H114.175V140.59Z" fill="white"/>
<path d="M308.8 187.16H237.637C236.656 187.16 235.862 187.955 235.862 188.935V198.873C235.862 199.853 236.656 200.647 237.637 200.647H308.8C309.78 200.647 310.575 199.853 310.575 198.873V188.935C310.575 187.955 309.78 187.16 308.8 187.16Z" stroke="black" stroke-width="2"/>
<path d="M237.104 175.354H310.575M237.104 133.389H310.575H237.104ZM237.104 147.377H310.575H237.104ZM237.104 161.365H310.575H237.104Z" stroke="black" stroke-width="2" stroke-linecap="round" stroke-linejoin="round"/>
<path d="M344.616 201.95L346.392 235.722M354.618 185.78L394.129 203.789L354.618 185.78ZM354.435 195.382L380.208 229.66L354.435 195.382Z" stroke="black" stroke-width="2" stroke-linecap="round" stroke-linejoin="round"/>
<path d="M195.223 13.245C195.223 11.6768 196.494 10.4055 198.062 10.4055H291.053C292.622 10.4055 293.893 11.6768 293.893 13.245V73.9379C293.893 75.5062 292.622 76.7773 291.053 76.7773H198.062C196.494 76.7773 195.223 75.5062 195.223 73.9379V13.245Z" fill="white" stroke="black" stroke-width="2" stroke-linecap="round" stroke-linejoin="round"/>
<path d="M205.693 33.6534C205.693 32.0851 206.964 30.814 208.532 30.814H230.361C231.929 30.814 233.2 32.0851 233.2 33.6534V53.5295C233.2 55.0977 231.929 56.3689 230.361 56.3689H208.532C206.964 56.3689 205.693 55.0977 205.693 53.5295V33.6534Z" stroke="black" stroke-width="2" stroke-linecap="round" stroke-linejoin="round"/>
<path d="M224.327 108.189C224.327 106.62 225.598 105.349 227.166 105.349H320.335C321.904 105.349 323.175 106.62 323.175 108.189V207.391C323.175 208.96 321.904 210.231 320.335 210.231H227.166C225.598 210.231 224.327 208.96 224.327 207.391V108.189Z" stroke="black" stroke-width="2" stroke-linecap="round" stroke-linejoin="round"/>
<path d="M325.837 6.41267C325.837 3.42333 328.261 1 331.249 1C334.238 1 336.662 3.42333 336.662 6.41267V7.12253C336.662 10.1119 334.238 12.5352 331.249 12.5352C328.261 12.5352 325.837 10.1119 325.837 7.12253V6.41267Z" fill="white" stroke="black" stroke-width="2" stroke-linecap="round" stroke-linejoin="round"/>
<path d="M342.696 6.32394C342.696 3.38362 345.079 1 348.02 1C350.96 1 353.344 3.38362 353.344 6.32394V7.21127C353.344 10.1516 350.96 12.5352 348.02 12.5352C345.079 12.5352 342.696 10.1516 342.696 7.21127V6.32394Z" fill="white" stroke="black" stroke-width="2" stroke-linecap="round" stroke-linejoin="round"/>
<path d="M359.555 6.41267C359.555 3.42333 361.979 1 364.968 1C367.956 1 370.38 3.42333 370.38 6.41267V7.12253C370.38 10.1119 367.956 12.5352 364.968 12.5352C361.979 12.5352 359.555 10.1119 359.555 7.12253V6.41267Z" fill="white" stroke="black" stroke-width="2" stroke-linecap="round" stroke-linejoin="round"/>
<path d="M267.628 35.0733C267.628 33.5051 268.899 32.2339 270.468 32.2339H363.459C365.028 32.2339 366.299 33.5051 366.299 35.0733V134.099C366.299 135.667 365.028 136.938 363.459 136.938H270.468C268.899 136.938 267.628 135.667 267.628 134.099V35.0733Z" fill="white" stroke="black" stroke-width="2" stroke-linecap="round" stroke-linejoin="round"/>
<path d="M338.259 108.721C338.259 107.153 339.53 105.881 341.099 105.881H394.161C395.729 105.881 397 107.153 397 108.721V165.509C397 167.078 395.729 168.349 394.161 168.349H341.099C339.53 168.349 338.259 167.078 338.259 165.509V108.721Z" fill="white" stroke="black" stroke-width="2" stroke-linecap="round" stroke-linejoin="round"/>
<path d="M345.713 116.529C345.713 114.961 346.983 113.69 348.552 113.69H386.707C388.276 113.69 389.547 114.961 389.547 116.529V156.991C389.547 158.56 388.276 159.831 386.707 159.831H348.552C346.983 159.831 345.713 158.56 345.713 156.991V116.529Z" stroke="black" stroke-width="2" stroke-linecap="round" stroke-linejoin="round"/>
<path d="M277.921 46.0759H357.78" stroke="black" stroke-width="2" stroke-linecap="round" stroke-linejoin="round"/>
<path d="M277.921 58.8535H357.78" stroke="black" stroke-width="2" stroke-linecap="round" stroke-linejoin="round"/>
<path d="M277.921 71.6309H357.78" stroke="black" stroke-width="2" stroke-linecap="round" stroke-linejoin="round"/>
<path d="M277.921 84.231H357.78" stroke="black" stroke-width="2" stroke-linecap="round" stroke-linejoin="round"/>
<path d="M278.099 97.186H323.352" stroke="black" stroke-width="2" stroke-linecap="round" stroke-linejoin="round"/>
<path d="M138.133 81.8145L149.558 93.24L160.983 81.8145L166.116 86.9469L154.691 98.3724L166.116 109.798L160.983 114.93L149.558 103.505L138.133 114.93L133 109.798L144.425 98.3724L133 86.9469L138.133 81.8145Z" stroke="black" stroke-width="2" stroke-linecap="round" stroke-linejoin="round"/>
</svg>
