<svg width="96" height="96" viewBox="0 0 96 96" fill="none" xmlns="http://www.w3.org/2000/svg">
<g clip-path="url(#clip0_2858_1425)">
<path d="M40.6875 68.4844C42.7188 69.5156 44.5469 70.7812 46.1719 72.2812C47.7969 73.7812 49.2031 75.4688 50.3906 77.3438C51.5781 79.2188 52.4688 81.2188 53.0625 83.3438C53.6562 85.4688 53.9688 87.6875 54 90H48C48 87.5312 47.5312 85.2031 46.5938 83.0156C45.6562 80.8281 44.375 78.9219 42.75 77.2969C41.125 75.6719 39.2031 74.375 36.9844 73.4062C34.7656 72.4375 32.4375 71.9688 30 72C27.5 72 25.1719 72.4688 23.0156 73.4062C20.8594 74.3438 18.9531 75.625 17.2969 77.25C15.6406 78.875 14.3438 80.7969 13.4062 83.0156C12.4688 85.2344 12 87.5625 12 90H6C6 87.7188 6.3125 85.5156 6.9375 83.3906C7.5625 81.2656 8.45312 79.2656 9.60938 77.3906C10.7656 75.5156 12.1562 73.8281 13.7812 72.3281C15.4062 70.8281 17.25 69.5469 19.3125 68.4844C17 66.7656 15.2031 64.6406 13.9219 62.1094C12.6406 59.5781 12 56.875 12 54C12 51.5312 12.4688 49.2031 13.4062 47.0156C14.3438 44.8281 15.625 42.9219 17.25 41.2969C18.875 39.6719 20.7812 38.375 22.9688 37.4062C25.1562 36.4375 27.5 35.9688 30 36C32.875 36 35.5781 36.6406 38.1094 37.9219C40.6406 39.2031 42.7656 41 44.4844 43.3125C45.6719 40.9688 47.1875 38.875 49.0312 37.0312C50.875 35.1875 52.9688 33.6719 55.3125 32.4844C53 30.7656 51.2031 28.6406 49.9219 26.1094C48.6406 23.5781 48 20.875 48 18C48 15.5312 48.4688 13.2031 49.4062 11.0156C50.3438 8.82812 51.625 6.92188 53.25 5.29688C54.875 3.67188 56.7812 2.375 58.9688 1.40625C61.1562 0.4375 63.5 -0.03125 66 0C68.4688 0 70.7969 0.46875 72.9844 1.40625C75.1719 2.34375 77.0781 3.625 78.7031 5.25C80.3281 6.875 81.625 8.79688 82.5938 11.0156C83.5625 13.2344 84.0312 15.5625 84 18C84 20.875 83.3594 23.5781 82.0781 26.1094C80.7969 28.6406 79 30.7656 76.6875 32.4844C78.7188 33.5156 80.5469 34.7812 82.1719 36.2812C83.7969 37.7812 85.2031 39.4688 86.3906 41.3438C87.5781 43.2188 88.4688 45.2188 89.0625 47.3438C89.6562 49.4688 89.9688 51.6875 90 54H84C84 51.5312 83.5312 49.2031 82.5938 47.0156C81.6562 44.8281 80.375 42.9219 78.75 41.2969C77.125 39.6719 75.2031 38.375 72.9844 37.4062C70.7656 36.4375 68.4375 35.9688 66 36C63.5 36 61.1719 36.4688 59.0156 37.4062C56.8594 38.3438 54.9531 39.625 53.2969 41.25C51.6406 42.875 50.3438 44.7969 49.4062 47.0156C48.4688 49.2344 48 51.5625 48 54C48 56.875 47.3594 59.5781 46.0781 62.1094C44.7969 64.6406 43 66.7656 40.6875 68.4844ZM54 18C54 19.6562 54.3125 21.2031 54.9375 22.6406C55.5625 24.0781 56.4219 25.3594 57.5156 26.4844C58.6094 27.6094 59.875 28.4688 61.3125 29.0625C62.75 29.6562 64.3125 29.9688 66 30C67.6562 30 69.2031 29.6875 70.6406 29.0625C72.0781 28.4375 73.3594 27.5781 74.4844 26.4844C75.6094 25.3906 76.4688 24.125 77.0625 22.6875C77.6562 21.25 77.9688 19.6875 78 18C78 16.3438 77.6875 14.7969 77.0625 13.3594C76.4375 11.9219 75.5781 10.6406 74.4844 9.51562C73.3906 8.39062 72.125 7.53125 70.6875 6.9375C69.25 6.34375 67.6875 6.03125 66 6C64.3438 6 62.7969 6.3125 61.3594 6.9375C59.9219 7.5625 58.6406 8.42188 57.5156 9.51562C56.3906 10.6094 55.5312 11.875 54.9375 13.3125C54.3438 14.75 54.0312 16.3125 54 18ZM18 54C18 55.6562 18.3125 57.2031 18.9375 58.6406C19.5625 60.0781 20.4219 61.3594 21.5156 62.4844C22.6094 63.6094 23.875 64.4688 25.3125 65.0625C26.75 65.6562 28.3125 65.9688 30 66C31.6562 66 33.2031 65.6875 34.6406 65.0625C36.0781 64.4375 37.3594 63.5781 38.4844 62.4844C39.6094 61.3906 40.4688 60.125 41.0625 58.6875C41.6562 57.25 41.9688 55.6875 42 54C42 52.3438 41.6875 50.7969 41.0625 49.3594C40.4375 47.9219 39.5781 46.6406 38.4844 45.5156C37.3906 44.3906 36.125 43.5312 34.6875 42.9375C33.25 42.3438 31.6875 42.0312 30 42C28.3438 42 26.7969 42.3125 25.3594 42.9375C23.9219 43.5625 22.6406 44.4219 21.5156 45.5156C20.3906 46.6094 19.5312 47.875 18.9375 49.3125C18.3438 50.75 18.0312 52.3125 18 54ZM88.5 96L75 85.4531L61.5 96L66.9375 79.125L54 69H70.1719L75 54L79.8281 69H96L83.0625 79.125L88.5 96Z" fill="white"/>
</g>
<defs>
<clipPath id="clip0_2858_1425">
<rect width="96" height="96" fill="white"/>
</clipPath>
</defs>
</svg>
